<?xml version="1.0" encoding="UTF-8"?>
<svg id="Layer_1" xmlns="http://www.w3.org/2000/svg" version="1.1" viewBox="0 0 48 48">
  <!-- Generator: Adobe Illustrator 30.3.0, SVG Export Plug-In . SVG Version: 2.1.3 Build 182)  -->
  <defs>
    <style>
      .st0 {
        fill: #0f0b10;
      }
    </style>
  </defs>
  <path class="st0" d="M44.9,38.09c-.44-.18-.95.02-1.13.46-1.21,2.88-4.02,4.75-7.15,4.75-3.75,0-6.89-2.68-7.6-6.23,0-.01,0-.03,0-.04,0-.38-.05-.75-.14-1.1,0-.13,0-.25,0-.38,0-3.24,2-6.02,4.83-7.18l2.09,7.41c.11.38.45.63.83.63.08,0,.16,0,.23-.03.46-.13.73-.61.6-1.07l-2.09-7.41c.41-.07.83-.1,1.25-.1,3.08,0,5.87,1.83,7.11,4.65.19.44.7.64,1.13.45.44-.19.64-.7.45-1.14-1.51-3.45-4.92-5.69-8.69-5.69-.59,0-1.16.05-1.73.16l-.07-.26c-.25-.89-.44-1.79-.56-2.7-.07-.53-.12-1.06-.15-1.59.08.4.43.69.85.69h1.18c1.63,0,2.96-1.33,2.96-2.96s-1.33-2.96-2.96-2.96h-2.59l-6.62-5.87c.35.1.71.15,1.08.15,2.14,0,3.88-1.74,3.88-3.88s-1.74-3.88-3.88-3.88-3.88,1.74-3.88,3.88c0,.73.2,1.41.55,2-.62-.28-1.29-.43-1.99-.43-1.29,0-2.49.5-3.4,1.41l-7.07,7.07s0,0,0,0c-.02.02-.05.05-.07.07,0,0,0,0,0,0,0,0,0,0,0,0-.45.6-.7,1.31-.76,2.08h-1.7c-.48,0-.86.39-.86.86v1.06c0,1.8,1.46,3.26,3.26,3.26h1.02l-.44,1.91c-.42-.06-.85-.09-1.29-.09-5.22,0-9.47,4.25-9.47,9.47,0,3.2,1.59,6.03,4.03,7.75h-3.16c-.48,0-.86.39-.86.86s.39.86.86.86h8.61c4.69,0,8.59-3.42,9.34-7.89.05.43.41.76.85.76h5.87c.57,2.22,1.91,4.12,3.74,5.41h-5.48c-.48,0-.86.39-.86.86s.39.86.86.86h10.93c3.82,0,7.25-2.28,8.74-5.8.18-.44-.02-.95-.46-1.13M34.09,18.18h2.05c.68,0,1.23.55,1.23,1.23s-.55,1.23-1.23,1.23h-1.18c-.45,0-.81.34-.86.77,0-.26-.02-.52-.02-.78v-2.46ZM32.45,22.53h-8.65c-.14-.17-.28-.33-.44-.48l-2.72-2.72,3.58-3.58,8.17,5.92c.01.29.03.58.06.87M31.17,24.26l-5.29,4.79-.51-3.13s0-.01,0-.02c-.1-.57-.28-1.12-.51-1.64h6.3ZM28.02,4.7c1.19,0,2.16.97,2.16,2.16s-.97,2.16-2.16,2.16-2.16-.97-2.16-2.16.97-2.16,2.16-2.16M20.51,11.05c.58-.58,1.36-.9,2.18-.9s1.6.32,2.18.9l7.49,6.65v1.8l-7.73-5.6c-.15-.11-.33-.16-.51-.16-.22,0-.44.08-.61.25l-4.36,4.36-2.88-.79-1.79-.49,6.02-6.02ZM12.08,22.53c-.85,0-1.53-.69-1.53-1.53v-.19h1.04c.19.64.5,1.23.91,1.73h-.41ZM11.37,43.3c-4.27,0-7.75-3.48-7.75-7.75s3.48-7.75,7.75-7.75c.3,0,.6.02.9.05l-1.74,7.5c-.06.26,0,.53.17.73.16.21.41.33.67.33h7.7c-.43,3.87-3.72,6.88-7.7,6.88M12.46,34.69l1.49-6.44c2.75.97,4.79,3.45,5.12,6.44h-6.61ZM14.35,26.56l.53-2.29,4.14,2.39,1.36,5.92c-.94-2.84-3.19-5.08-6.03-6.02M20.61,25.9c-.05-.23-.2-.43-.41-.55l-5.59-3.23c-.71-.41-1.27-1.22-1.45-2.12-.11-.54-.08-1.05.09-1.48l2.51.69,3.2.88,3.17,3.17c.8.8,1.34,1.81,1.54,2.93l1.05,6.52h-2.55l-1.56-6.81ZM22.44,36.17v-1.73h2.28c1.12,0,2.08.72,2.44,1.73h-4.72ZM27.35,33.62c-.25-.19-.52-.36-.81-.5l-.33-2.04,6.62-6c.1.46.21.91.33,1.36l.07.26c-2.97,1.14-5.23,3.74-5.89,6.91"/>
  <path class="st0" d="M45.24,34.69c-.48,0-.86.39-.86.86v.04c0,.48.38.86.86.87h0c.48,0,.86-.39.86-.86v-.05c0-.48-.38-.86-.86-.86"/>
  <path class="st0" d="M22.91,43.55c-.16-.16-.38-.25-.61-.25s-.45.09-.61.25c-.16.16-.25.38-.25.61s.09.45.25.61c.16.16.38.25.61.25s.45-.09.61-.25c.16-.16.25-.38.25-.61s-.09-.45-.25-.61"/>
</svg>