<?xml version="1.0" encoding="UTF-8"?>
<svg id="Layer_1" xmlns="http://www.w3.org/2000/svg" version="1.1" viewBox="0 0 48 48">
  <!-- Generator: Adobe Illustrator 30.3.0, SVG Export Plug-In . SVG Version: 2.1.3 Build 182)  -->
  <defs>
    <style>
      .st0 {
        fill: none;
      }
    </style>
  </defs>
  <path class="st0" d="M16.36,45.22h2.4c-.42-.45-.85-1-1.2-1.65-.35.65-.78,1.2-1.2,1.65Z"/>
  <path class="st0" d="M32.93,2.76h-5.24c-.08,0-.14.06-.14.14v1.85h5.53v-1.85h0c0-.08-.06-.14-.14-.14Z"/>
  <polygon class="st0" points="30.05 36.35 36.15 36.35 37.16 24.6 30.05 24.6 30.05 36.35"/>
  <path d="M12.99,32.63c.3-.28.33-.72.12-1.06-.46-.74-.39-1.44-.32-2.52l.08-1.19h3.43c.45,0,.82-.37.82-.82s-.37-.82-.82-.82h-3.32l.45-6.32h8.25l.24,1.72c.06.43.43.75.86.73,0,0,.01,0,.02,0,.48-.03.82-.47.76-.94l-.29-2.37c-.03-.43-.39-.76-.82-.76h-9.78c-.43,0-.79.33-.82.76l-.7,9.92c-.1,1.43-.06,2.52.6,3.57.27.42.87.47,1.23.13h0Z"/>
  <path d="M16.74,35.76v4.58c0,3.24-2.96,4.91-3.08,4.98-.33.18-.49.56-.4.92.09.36.42.62.79.62h7.02c.37,0,.7-.25.79-.62.09-.36-.07-.74-.4-.92-.03-.02-3.08-1.72-3.08-4.98v-4.58c1.48-.19,2.86-.89,3.88-1.99.98-1.05,1.7-2.01,1.7-3.3,0-.5-.35-.94-.85-.95h0c-.45,0-.81.35-.85.8-.11,1.21-.52,1.51-1.19,2.33-.82.88-1.9,1.41-3.08,1.51-.27.02-.52.12-.72.31-.29.29-.52.69-.52,1.29ZM18.76,45.22h-2.4c.42-.45.85-1,1.2-1.65.35.65.77,1.2,1.2,1.65Z"/>
  <path d="M35.22,16.99c-.32.34-.36.86-.07,1.23,1.1,1.41,2.32,3.27,2.24,5.16v.04s-.05-.01-.07-.01h-7.75c-.34,0-.62.28-.62.62v12.96c0,.34.28.62.62.62h6.58s0,0,0,0l-.66,7.62s0,0,0,0h-10.14s0,0,0,0l-.86-10c-.04-.45-.44-.79-.89-.75-.45.04-.78.44-.74.89l.93,10.75c.04.43.4.76.82.76h11.65c.43,0,.79-.33.82-.76l1.95-22.64c.13-2.88-1.6-5.26-2.85-6.51-.26-.27-.7-.26-.95.02h0ZM36.26,36.38h-6.08s0,0,0,0v-11.73s0,0,0,0h7.09s0,0,0,0l-1.01,11.73s0,0,0,0Z"/>
  <path d="M33.78,6.39h.1c.45,0,.82-.37.82-.82v-2.67c0-.98-.8-1.78-1.78-1.78h-5.24c-.98,0-1.78.8-1.78,1.78v2.67c0,.45.37.82.82.82h.1v8.81c-.91.4-1.73.95-2.46,1.64-.33.31-.34.83-.03,1.16.31.33.83.34,1.16.03.69-.66,1.5-1.16,2.4-1.49.34-.12.57-.42.57-.78V6.4h3.68v4.44c0,1.31,1.64,1.32,1.64,0v-4.44ZM33.07,4.75h-5.53v-1.85c0-.08.06-.14.14-.14h5.24c.08,0,.14.06.14.14h0v1.85Z"/>
  <g>
    <path d="M41.74,6.52c-.15-.15-.36-.22-.57-.22-.23,0-.46.09-.64.27-.97.99-1.59,1.63-2.21,2.27-.7.72-1.4,1.44-2.59,2.65l-1.64,1.66c-2.84,2.89-5.75,5.84-8.59,8.72l-1.53,1.56c-2.78,2.82-5.47,5.54-7.94,8.04l-1.15,1.16c-4.88,4.93-7.04,7.1-8.76,8.78-.32.31-.35.82-.07,1.17.16.2.39.32.64.34.24.01.49-.07.67-.25,1.94-1.89,4.3-4.26,9.2-9.22l1.3-1.31c1.82-1.84,3.72-3.76,5.64-5.71l1.53-1.55c3.39-3.44,6.76-6.87,9.74-9.89l1.19-1.21c2.01-2.04,3.17-3.24,4.12-4.21.61-.63,1.13-1.16,1.72-1.76.16-.17.25-.39.25-.62,0-.24-.1-.46-.27-.62l-.04-.04Z"/>
    <polygon points="42.14 6.2 42.14 6.2 42.14 6.2 42.14 6.2"/>
  </g>
</svg>