<?xml version="1.0" encoding="UTF-8"?>
<svg id="Layer_1" xmlns="http://www.w3.org/2000/svg" version="1.1" viewBox="0 0 48 48">
  <!-- Generator: Adobe Illustrator 30.3.0, SVG Export Plug-In . SVG Version: 2.1.3 Build 182)  -->
  <defs>
    <style>
      .st0 {
        fill: #0f0b0f;
      }
    </style>
  </defs>
  <path class="st0" d="M31,29.94c-.71-.3-1.01.15-1.01.3-.15.33-.02.73.31.9l.13.07c.7.32,1.01-.13,1.01-.27.18-.34.05-.77-.29-.95-.04-.02-.09-.04-.13-.05h-.02Z"/>
  <path class="st0" d="M24.24,33.66c-.29-.26-.73-.24-1,.05,0,0,0,0,0,.01-.25.31-.19.76.12,1.01,0,0,0,0,0,0l.11.09c.28.16.63.1.85-.14.26-.29.26-.72,0-1.01h-.07Z"/>
  <path class="st0" d="M39.26,23.34c-.23-.55-.54-1.05-.94-1.49-.35-.39-.94-.43-1.33-.08-.39.35-.43.94-.08,1.33.25.28.46.6.61.95.62,1.76.17,3.73-1.15,5.05l-7.06,7.38c-1.26-.22-2.46-.72-3.49-1.47-.3-.24-.74-.18-.98.12-.01.01-.02.03-.03.04-.23.31-.17.75.14.99,0,0,.02.01.03.02l.68.45c.76.48,1.59.84,2.45,1.09l-6.31,6.56c-.5.81-1.55,1.06-2.36.57-.81-.5-1.06-1.55-.56-2.36l5.39-15.56c1.02,1.09,2.18,2.04,3.45,2.81.33.2.75.09.95-.23.21-.32.11-.74-.2-.95,0,0-.01,0-.02-.01-1.4-.83-2.64-1.91-3.65-3.18l1.03-2.73c.59-1.85,2.22-3.16,4.15-3.33.42-.02.85.05,1.24.2.48.18,1.02-.05,1.2-.53h0c.21-.47,0-1.01-.46-1.22-.02-.01-.05-.02-.07-.03-.64-.23-1.33-.33-2.02-.28-2.69.21-5,2.01-5.84,4.58l-6.84,19.82c-.82,1.8-.02,3.91,1.78,4.73,1.49.68,3.26.25,4.28-1.04l14.54-15.14c1.83-1.85,2.42-4.6,1.5-7.04"/>
  <path class="st0" d="M42.5,12.52c.24-.26.41-.44.51-.52,1.16-.9,1.82-2.28,1.8-3.74-.11-.91-.62-1.72-1.39-2.21-.95-.59-2.14-.59-3.1,0-.74.51-1.32,1.24-1.65,2.08-.43-.59-1.1-.96-1.84-1.01-.67-.05-1.33.19-1.82.65-.65.76-.94,1.77-.81,2.77.11,2.02.34,7.14.41,8.59l-.09.22c-.13-.3-.48-.44-.78-.31-.12.05-.21.13-.28.24-.33.55,0,1.29.77,1.77.77.47,1.59.43,1.93-.12.17-.27.09-.63-.18-.81,0,0,0,0-.01,0-.09-.05-.2-.08-.3-.09.58-.61,1.73-1.88,3.03-3.32l1.87-2.02c.43-.56,1.08-.92,1.79-.99.29.05.55.22.71.47.13.23.16.5.08.75-.22.44-.61.76-1.08.89l-.41.14-1.19.34c-.31.1-.49.43-.4.75.05.14.14.26.26.34.15.09.32.11.48.06l1.17-.3c.18-.05.35-.11.52-.17.81-.24,1.46-.83,1.78-1.61.2-.58.14-1.22-.17-1.76-.35-.57-.93-.96-1.59-1.05M35.43,10.51c-.11-.66.05-1.34.46-1.88.24-.22.56-.33.89-.3.37.02.71.2.94.49.27.55.32,1.19.12,1.78-.63,1.87-1.45,4.04-2.12,5.76-.14-2.06-.26-4.57-.33-5.9l.04.05ZM42.2,11.18c-.39.38-2.41,2.6-4.37,4.74l-1.01,1.14c.71-1.79,1.56-3.99,2.02-5.54.05-.15.09-.31.12-.46.18-.54.35-1.07.5-1.54.2-.97.72-1.84,1.47-2.47.56-.35,1.27-.35,1.83,0,.46.29.76.77.83,1.31-.03,1.1-.56,2.12-1.44,2.77l.04.05Z"/>
  <path class="st0" d="M25.81,10.46c-1.22-1.29-2.92-2.02-4.7-2.02-2.01.05-3.92.84-5.39,2.21-1.49-1.37-3.42-2.17-5.45-2.25-1.78,0-3.48.72-4.7,2.02-1.72,1.97-2.56,4.55-2.32,7.16.24,4.97,4.04,10.76,8.63,10.76,1.37,0,2.71-.4,3.84-1.16,1.12.78,2.45,1.2,3.81,1.2.3,0,.59-.03.89-.07l.66-1.9c-.49.21-1.02.32-1.55.32-1.18,0-2.32-.41-3.22-1.18-.15-.16-.36-.24-.57-.24-.21,0-.41.08-.57.22-.91.76-2.05,1.18-3.24,1.2-3.52,0-6.79-5.05-6.99-9.18-.21-2.16.47-4.31,1.88-5.95.89-.97,2.15-1.52,3.46-1.54,1.85.15,3.59.98,4.86,2.34.31.27.77.27,1.08,0l.1-.08c1.24-1.33,2.95-2.14,4.77-2.26,1.33,0,2.6.57,3.51,1.54,1.26,1.44,1.93,3.3,1.88,5.21.5-.31,1.04-.56,1.6-.75-.09-2.07-.89-4.04-2.27-5.59"/>
  <path class="st0" d="M9.59,14.15c.33-.12.51-.48.39-.82-.12-.33-.48-.5-.81-.38,0,0,0,0,0,0-1.73.61-2.17,2.71-1.93,4.04.06.3.32.51.63.51h.12c.35-.05.58-.38.53-.73,0-.02,0-.05-.02-.07-.13-.67.06-2.19,1.09-2.55"/>
  <path class="st0" d="M10.92,12.19c-.33.09-.53.43-.44.77,0,0,0,.01,0,.02.07.27.32.46.6.46h.23c.32-.09.51-.42.42-.74,0-.01,0-.02,0-.03-.1-.36-.46-.56-.82-.47"/>
  <path class="st0" d="M15.41,9.25h.18c.24,0,.46-.15.54-.37.54-1.52.5-3.19-.1-4.69-.8-1.41-2.07-2.48-3.59-3.03-.31-.1-.65.06-.75.37,0,.01,0,.03-.01.04-.53,1.52-.49,3.18.1,4.68.8,1.41,2.1,2.47,3.63,3M12.69,2.57c.98.45,1.79,1.2,2.32,2.13.42,1.02.49,2.14.21,3.21-1-.45-1.83-1.21-2.37-2.17-.38-1.01-.44-2.12-.16-3.17"/>
</svg>