<?xml version="1.0" encoding="UTF-8"?>
<svg id="Layer_1" xmlns="http://www.w3.org/2000/svg" version="1.1" viewBox="0 0 48 48">
  <!-- Generator: Adobe Illustrator 30.3.0, SVG Export Plug-In . SVG Version: 2.1.3 Build 182)  -->
  <defs>
    <style>
      .st0 {
        fill: #231f20;
      }
    </style>
  </defs>
  <path class="st0" d="M18.33,13.8c.07,0,.15,0,.23,0,3.22.05,4.99,2.54,4.51,4.37-1.53-.65-2.79-.98-4-.98-.62,0-1.22.08-1.84.25-1.67.45-3.23.88-4.52.88-.13,0-.26,0-.39-.01-1.36-.1-3.69-.52-4.51-2.24.55.3,1.33.66,2.22.66.59,0,1.23-.16,1.9-.6,1.64-1.09,2.78-2.33,6.4-2.33M18.33,12.67c-3.45,0-4.99,1.09-6.36,2.06-.22.15-.44.31-.67.46-.42.28-.84.41-1.28.41-.62,0-1.2-.27-1.69-.52-.17-.09-.35-.13-.53-.13-.28,0-.56.11-.78.31-.35.34-.45.86-.24,1.3,1,2.12,3.51,2.73,5.44,2.88.15.01.31.02.47.02,1.4,0,2.99-.43,4.66-.88l.15-.04c.53-.14,1.04-.21,1.55-.21,1.03,0,2.12.27,3.56.89.14.06.29.09.44.09.17,0,.34-.04.5-.11.29-.14.51-.41.59-.73.3-1.16,0-2.45-.84-3.55-1.06-1.39-2.8-2.21-4.75-2.24-.08,0-.16,0-.24,0h0Z"/>
  <path class="st0" d="M6.97,36.2c-1.54,0-2.98-.51-4.05-1.45-1.15-1.01-1.8-2.45-1.83-4.06v-.83c0-.23.08-.44.24-.6.16-.16.37-.25.6-.25h44.15c.47,0,.84.38.84.84s-.38.84-.84.84H2.77c.03,1.12.47,2.09,1.26,2.79.79.69,1.87,1.05,3.08,1.03h17.99c.62,0,1.41-.47,2.25-.97,1.06-.63,2.25-1.34,3.61-1.43,2.62-.18,7.4-.05,15.29,1.6.46.1.75.54.65,1-.1.46-.55.75-1,.65-7.7-1.61-12.31-1.74-14.82-1.57-.96.07-1.93.64-2.87,1.2-1.05.62-2.03,1.21-3.11,1.21H7.13c-.05,0-.11,0-.16,0Z"/>
  <path class="st0" d="M27.75,16.54c0,.46-.39.83-.85.82-.46,0-.83-.39-.82-.85,0-.46.39-.83.85-.82.46,0,.83.39.82.85Z"/>
  <path class="st0" d="M26.85,11.38c-.01.73-.61,1.32-1.35,1.31-.73-.01-1.32-.61-1.31-1.35,0-.73.61-1.32,1.34-1.31.73,0,1.32.61,1.31,1.35Z"/>
  <path class="st0" d="M6.14,12.69c0,.51-.42.91-.93.9-.51,0-.91-.42-.91-.93,0-.51.42-.91.93-.91.51,0,.91.42.9.93Z"/>
  <rect class="st0" x="7.99" y="21.62" width="1.69" height="8.23"/>
  <rect class="st0" x="12.77" y="21.9" width="1.69" height="8.23"/>
  <rect class="st0" x="17.48" y="21.9" width="1.69" height="8.23"/>
  <rect class="st0" x="21.84" y="21.9" width="1.69" height="8.23"/>
  <path class="st0" d="M26.14,30.69H5.02c-.86,0-1.56-.68-1.56-1.52v-6.6c0-.84.7-1.52,1.56-1.52h21.11c.86,0,1.56.68,1.56,1.52v6.6c0,.84-.7,1.52-1.56,1.52ZM5.15,29h20.85v-6.26H5.15v6.26Z"/>
</svg>