<?xml version="1.0" encoding="UTF-8"?>
<svg id="Layer_1" xmlns="http://www.w3.org/2000/svg" version="1.1" viewBox="0 0 64 64">
  <!-- Generator: Adobe Illustrator 30.3.0, SVG Export Plug-In . SVG Version: 2.1.3 Build 182)  -->
  <defs>
    <style>
      .st0 {
        fill: #333;
      }
    </style>
  </defs>
  <path class="st0" d="M1.6,58.45h55.59c2.65,0,4.82-2.16,4.82-4.82V5.55H1.6v52.9ZM26.08,46.42c.82.82.82,2.16,0,2.98-.41.41-.95.62-1.49.62s-1.08-.2-1.49-.62l-4.26-4.27-4.27,4.27c-.41.41-.95.62-1.49.62s-1.08-.21-1.49-.62c-.82-.82-.82-2.16,0-2.98l4.27-4.27-4.27-4.27c-.82-.82-.82-2.16,0-2.98.82-.82,2.16-.82,2.98,0l4.27,4.27,4.26-4.27c.83-.82,2.16-.82,2.98,0,.82.82.82,2.16,0,2.98l-4.27,4.27,4.27,4.27ZM46.04,50.28h-1.47c-1.17,0-2.11-.94-2.11-2.11s.94-2.11,2.11-2.11h1.47c1.17,0,2.11.94,2.11,2.11s-.95,2.11-2.11,2.11ZM38.56,17.93h13.48c1.17,0,2.11.94,2.11,2.11s-.95,2.11-2.11,2.11h-13.48c-1.16,0-2.11-.94-2.11-2.11s.94-2.11,2.11-2.11ZM48.16,36.11c0,1.17-.95,2.11-2.11,2.11h-1.47c-1.17,0-2.11-.94-2.11-2.11s.94-2.11,2.11-2.11h1.47c1.16,0,2.11.95,2.11,2.11ZM38.56,40.04h13.48c1.17,0,2.11.94,2.11,2.11s-.95,2.11-2.11,2.11h-13.48c-1.16,0-2.11-.94-2.11-2.11s.94-2.11,2.11-2.11ZM12.1,17.93h4.63v-4.63c0-1.17.94-2.11,2.11-2.11s2.11.94,2.11,2.11v4.63h4.63c1.16,0,2.11.94,2.11,2.11s-.95,2.11-2.11,2.11h-4.63v4.63c0,1.17-.94,2.11-2.11,2.11s-2.11-.94-2.11-2.11v-4.63h-4.63c-1.17,0-2.11-.94-2.11-2.11s.95-2.11,2.11-2.11Z"/>
</svg>