<?xml version="1.0" encoding="UTF-8"?>
<svg id="Layer_1" xmlns="http://www.w3.org/2000/svg" version="1.1" viewBox="0 0 48 48">
  <!-- Generator: Adobe Illustrator 30.3.0, SVG Export Plug-In . SVG Version: 2.1.3 Build 182)  -->
  <defs>
    <style>
      .st0 {
        fill: #231f20;
      }
    </style>
  </defs>
  <path class="st0" d="M9.89,19.72H2.09c-.68,0-1.23-.52-1.23-1.16s.55-1.16,1.23-1.16h8.47c.42,0,.81.2,1.04.54l2.44,3.67,3.76-9.08c.19-.46.67-.75,1.18-.74.52.02.97.34,1.13.81l3.57,10.78,1.3-5.09c.13-.52.62-.89,1.19-.89h6.08c.68,0,1.23.52,1.23,1.16s-.55,1.16-1.23,1.16h-5.12l-2.11,8.27c-.13.51-.6.87-1.15.89-.01,0-.03,0-.04,0-.53,0-1.01-.33-1.17-.81l-3.86-11.63-3.37,8.16c-.17.41-.56.69-1.02.73-.46.04-.91-.17-1.15-.54l-3.37-5.07ZM43.94,8.67c-2.63-2.41-6.07-3.74-9.69-3.74-3.18,0-6.22,1.02-8.67,2.89-2.45-1.87-5.49-2.89-8.67-2.89-3.61,0-7.05,1.33-9.69,3.74-1.57,1.44-2.57,3.15-2.98,5.09-.13.63.3,1.24.96,1.36.66.12,1.31-.28,1.44-.91.31-1.49,1.06-2.76,2.28-3.88,2.17-1.99,5.01-3.09,7.98-3.09s5.7,1.05,7.83,2.95c.47.42,1.21.42,1.68,0,2.12-1.9,4.9-2.95,7.83-2.95s5.81,1.1,7.98,3.09c1.67,1.53,2.47,3.37,2.44,5.63-.08,6.61-7.41,15.33-14.23,21.29-.35.31-.68.6-.99.87-1.84,1.62-3.1,2.72-3.87,2.94-.77-.22-2.03-1.32-3.87-2.94-.31-.27-.64-.56-.99-.87-2.49-2.18-8.66-7.92-12.04-14.19-.31-.57-1.05-.8-1.65-.51-.6.29-.84.99-.53,1.56,3.56,6.6,9.97,12.58,12.56,14.84.35.3.68.59.99.87,2.56,2.25,3.85,3.38,5.37,3.57.05,0,.11.01.16.01s.11,0,.16-.01c1.53-.19,2.81-1.32,5.37-3.57.31-.27.64-.56.99-.87,3.49-3.05,14.91-13.73,15.02-22.97.04-2.89-1.04-5.36-3.19-7.33"/>
</svg>