<?xml version="1.0" encoding="UTF-8"?>
<svg id="Layer_1" xmlns="http://www.w3.org/2000/svg" version="1.1" viewBox="0 0 48 48">
  <!-- Generator: Adobe Illustrator 30.3.0, SVG Export Plug-In . SVG Version: 2.1.3 Build 182)  -->
  <defs>
    <style>
      .st0 {
        fill: #0f0a0f;
      }

      .st1 {
        fill: #0f0b10;
      }
    </style>
  </defs>
  <path class="st0" d="M24,46.85c-3.09,0-6.08-.6-8.9-1.8-2.72-1.15-5.17-2.8-7.26-4.9-2.1-2.1-3.75-4.54-4.9-7.26-1.19-2.82-1.8-5.81-1.8-8.9s.6-6.08,1.8-8.9c1.15-2.72,2.8-5.17,4.9-7.26,2.1-2.1,4.54-3.75,7.26-4.9,2.82-1.19,5.81-1.8,8.9-1.8s6.08.6,8.9,1.8c2.72,1.15,5.16,2.8,7.26,4.9,2.1,2.1,3.75,4.54,4.9,7.26,1.19,2.82,1.8,5.81,1.8,8.9s-.61,6.08-1.8,8.9c-1.15,2.72-2.8,5.16-4.9,7.26-2.1,2.1-4.54,3.75-7.26,4.9-2.82,1.19-5.81,1.8-8.9,1.8M24,4.18c-5.29,0-10.27,2.06-14.02,5.81-3.74,3.74-5.81,8.72-5.81,14.02s2.06,10.27,5.81,14.02c3.74,3.74,8.72,5.81,14.02,5.81s10.27-2.06,14.02-5.81c3.74-3.74,5.81-8.72,5.81-14.02s-2.06-10.27-5.81-14.02c-3.74-3.74-8.72-5.81-14.02-5.81"/>
  <path class="st0" d="M14.83,35.01c-.6-.5-1.16-1.08-1.69-1.72l-4.83,5.12,2.2,2.08,4.81-5.09c-.16-.12-.33-.25-.49-.39"/>
  <path class="st0" d="M39.31,8.37c-.6-.5-1.16-1.08-1.68-1.72l-4.83,5.12,2.2,2.08,4.81-5.09c-.16-.12-.33-.25-.49-.39"/>
  <path class="st1" d="M13.32,28.3l-.83.13.36.76c.64,1.34,2.12,2.12,3.59,1.88l.27-.04.67,2.15c.21-.08.42-.16.64-.22.22-.07.44-.12.65-.18l-.67-2.15.25-.12c1.35-.64,2.12-2.11,1.88-3.59l-.13-.82-.75.36c-.95.45-1.6,1.31-1.83,2.29l-.6-1.92c.46-.67,1.08-1.23,1.85-1.6l.4-.19c.11-.44.13-.9.06-1.35l-.13-.82-.75.36c-.94.45-1.6,1.31-1.83,2.29l-.6-1.92c.46-.67,1.08-1.23,1.84-1.6l.4-.19c.11-.44.13-.9.06-1.35l-.13-.82-.75.36c-.94.45-1.6,1.31-1.83,2.3l-.6-1.92c.46-.67,1.08-1.23,1.85-1.6l.4-.19c.11-.44.13-.9.06-1.34l-.13-.83-.75.36c-1.22.58-1.96,1.85-1.92,3.17l-.63.2c-.71-1.12-2.04-1.74-3.38-1.53l-.83.13.36.75c.19.41.48.77.81,1.07l.44-.07c.84-.14,1.67-.03,2.42.26l.6,1.92c-.75-.68-1.77-1.02-2.81-.85l-.82.13.36.75c.19.41.47.77.81,1.07l.44-.07c.83-.13,1.66-.03,2.42.27l.6,1.92c-.75-.68-1.77-1.02-2.81-.85l-.83.13.36.75c.19.41.47.77.81,1.07l.44-.07c.83-.13,1.67-.03,2.42.27l.6,1.92c-.74-.68-1.77-1.02-2.81-.85"/>
  <path class="st1" d="M13.66,18.96c.1-.7.37-1.37.76-1.95-.31-.68-.83-1.25-1.5-1.6l-.44-.23-.23.44c-.35.67-.45,1.43-.32,2.17.66.26,1.25.66,1.73,1.17"/>
  <path class="st1" d="M29.54,26.83l-.78-.29-.06.83c-.11,1.49.8,2.88,2.19,3.4l.26.1-.47,2.2c.22.03.44.07.66.12.22.05.44.11.66.17l.47-2.2.28.02c1.49.11,2.88-.8,3.4-2.2l.29-.78-.83-.06c-1.04-.07-2.04.36-2.72,1.1l.42-1.96c.73-.36,1.55-.54,2.39-.48l.45.03c.31-.33.56-.72.71-1.14l.29-.78-.83-.06c-1.04-.07-2.04.36-2.72,1.1l.42-1.96c.73-.36,1.55-.54,2.39-.48l.45.03c.31-.33.56-.72.71-1.14l.29-.78-.83-.06c-1.04-.07-2.04.36-2.72,1.1l.42-1.96c.73-.36,1.55-.54,2.39-.48l.44.03c.31-.33.56-.72.72-1.14l.29-.78-.83-.06c-1.35-.09-2.62.64-3.23,1.82l-.64-.14c-.07-1.33-.93-2.52-2.19-2.99l-.78-.29-.06.83c-.03.45.04.91.18,1.34l.42.16c.79.29,1.46.8,1.98,1.42l-.42,1.96c-.32-.96-1.04-1.76-2.03-2.12l-.78-.29-.06.83c-.03.45.03.91.18,1.33l.42.16c.79.29,1.46.8,1.98,1.42l-.42,1.97c-.32-.96-1.04-1.76-2.03-2.12l-.78-.29-.06.83c-.03.45.03.91.18,1.34l.42.16c.79.29,1.46.8,1.98,1.42l-.42,1.96c-.32-.96-1.04-1.76-2.03-2.12"/>
  <path class="st1" d="M34.43,18.87c.44-.56.99-1.01,1.62-1.32.06-.75-.11-1.49-.52-2.13l-.27-.42-.42.27c-.64.41-1.1,1.02-1.35,1.73.44.55.77,1.19.93,1.88"/>
  <path class="st1" d="M24.38,15.27c.31-.64.76-1.2,1.31-1.64-.09-.74-.42-1.44-.95-1.97l-.36-.36-.35.36c-.54.54-.86,1.23-.95,1.97.55.44,1,1,1.31,1.64"/>
  <path class="st1" d="M21.27,27.46l-.83-.12.12.83c.21,1.48,1.39,2.65,2.86,2.86l.27.04v5.16c.47.28.92.59,1.35.92v-6.08l.27-.04c1.47-.21,2.65-1.39,2.86-2.86l.12-.83-.83.12c-1.04.15-1.92.78-2.43,1.65v-2.01c.64-.5,1.4-.86,2.24-.98l.44-.06c.23-.39.39-.82.46-1.27l.12-.83-.83.12c-1.04.15-1.92.78-2.43,1.65v-2.01c.64-.5,1.4-.86,2.24-.97l.44-.06c.23-.39.39-.82.46-1.27l.12-.83-.83.12c-1.04.15-1.92.78-2.43,1.65v-2.01c.64-.5,1.4-.86,2.24-.98l.44-.06c.23-.39.39-.82.46-1.27l.12-.83-.83.12c-1.04.15-1.92.78-2.43,1.65v-2.01c.64-.5,1.4-.86,2.24-.97l.44-.06c.23-.39.39-.82.46-1.27l.12-.83-.83.12c-1.34.19-2.42,1.18-2.77,2.46h-.66c-.35-1.28-1.43-2.27-2.77-2.46l-.83-.12.12.83c.06.45.22.88.46,1.27l.44.06c.84.12,1.6.47,2.23.97v2.01c-.51-.87-1.39-1.5-2.43-1.65l-.83-.12.12.83c.06.45.22.88.46,1.27l.44.06c.84.12,1.6.47,2.23.98v2.01c-.51-.87-1.39-1.5-2.43-1.65l-.83-.12.12.83c.06.45.22.88.46,1.27l.44.06c.84.12,1.6.47,2.23.97v2.01c-.51-.87-1.39-1.5-2.43-1.65l-.83-.12.12.83c.06.45.22.88.46,1.27l.44.06c.84.12,1.6.47,2.23.98v2.01c-.51-.87-1.39-1.5-2.43-1.65"/>
</svg>