<?xml version="1.0" encoding="UTF-8"?>
<svg id="Layer_1" xmlns="http://www.w3.org/2000/svg" version="1.1" viewBox="0 0 48 48">
  <!-- Generator: Adobe Illustrator 30.3.0, SVG Export Plug-In . SVG Version: 2.1.3 Build 182)  -->
  <defs>
    <style>
      .st0 {
        fill: #0f0b0f;
      }
    </style>
  </defs>
  <path class="st0" d="M38.93,13.94c-1.37,0-2.49,1.09-2.49,2.44s1.12,2.44,2.49,2.44,2.49-1.09,2.49-2.44-1.12-2.44-2.49-2.44M38.93,17.48c-.62,0-1.12-.49-1.12-1.1s.5-1.1,1.12-1.1,1.12.49,1.12,1.1c0,.61-.5,1.1-1.12,1.1"/>
  <path class="st0" d="M32.02,13.94c-1.37,0-2.49,1.09-2.49,2.44s1.12,2.44,2.49,2.44,2.49-1.09,2.49-2.44-1.12-2.44-2.49-2.44M32.02,17.48c-.62,0-1.12-.49-1.12-1.1s.5-1.1,1.12-1.1,1.12.49,1.12,1.1-.5,1.1-1.12,1.1"/>
  <path class="st0" d="M40.27,4.64h-9.6c-.63,0-1.15.5-1.15,1.13v4.5c0,.62.52,1.13,1.15,1.13h3.31c.38,0,.68-.3.68-.67s-.31-.67-.68-.67h-3.09v-4.07h9.16v4.07h-2.74c-.38,0-.68.3-.68.67s.31.67.68.67h2.96c.63,0,1.15-.5,1.15-1.13v-4.5c0-.62-.51-1.13-1.15-1.13"/>
  <path class="st0" d="M40.89,1.12h-10.84c-2.28,0-4.13,1.81-4.13,4.04v12.8c0,3.77,3.12,6.84,6.97,6.85v3.54h-9.5c.51-1.5.36-2.85.11-3.78-.38-1.41-1.21-2.66-2.28-3.43-.68-.49-1.54-.59-2.26-.28-.73.32-1.19,1.02-1.29,1.93-.22,2.22-.9,3.69-2.07,4.49-.91.62-2.76,1.05-3.59,1.08h-1.86v-.29c0-.53-.44-.96-.98-.96H3.96c-.54,0-.98.43-.98.96v6.5c0,.37.31.67.68.67s.69-.3.69-.67v-6.12h4.45v15.68h-4.45v-6.48c0-.37-.31-.67-.69-.67s-.68.3-.68.67v6.86c0,.53.44.96.98.96h5.23c.54,0,.98-.43.98-.96v-.29h1.45c1.16,0,1.76.45,2.52,1.03.84.63,1.88,1.42,3.81,1.62.03,0,.05,0,.07,0h12.18c1.15,0,1.85-.48,2.24-.88.49-.51.77-1.2.77-1.94,0-.62-.2-1.23-.59-1.74,1.1-.47,1.67-1.52,1.67-2.56,0-.62-.2-1.23-.59-1.74.4-.17.7-.41.91-.62.49-.51.76-1.2.76-1.94,0-.51-.14-1.03-.41-1.48h2.82c1.97,0,3-1.42,3-2.82s-.94-2.68-2.73-2.81v-3.55c3.84-.02,6.97-3.08,6.97-6.85V5.16c0-2.23-1.85-4.04-4.13-4.04M36.68,28.52c0,.65-.54,1.18-1.21,1.18s-1.21-.53-1.21-1.18v-7.01h2.42v7.01ZM31.45,45.08c-.29.3-.72.46-1.24.46h-5.79c-1.13,0-1.64-.74-1.64-1.48,0-.39.14-.75.4-1.02.29-.3.72-.46,1.24-.46h5.79c1.13,0,1.64.74,1.64,1.48,0,.39-.14.75-.39,1.02M31.29,41.25h-6.87c-1.13,0-1.64-.74-1.64-1.48,0-.39.14-.75.39-1.02.29-.3.72-.46,1.24-.46h6.87c1.13,0,1.63.74,1.63,1.48s-.51,1.48-1.63,1.48M34,35.47c0,.74-.51,1.48-1.63,1.48h-7.95c-1.13,0-1.64-.74-1.64-1.48,0-.39.14-.75.39-1.02.29-.3.72-.46,1.24-.46h7.95c1.13,0,1.63.74,1.63,1.48M39.41,31.18c0,.73-.51,1.48-1.63,1.48h-13.36c-1.97,0-3,1.42-3,2.82,0,.8.34,1.6.99,2.15-.65.54-.99,1.35-.99,2.15s.34,1.6.99,2.15c-.09.07-.16.14-.23.21-.49.51-.76,1.2-.76,1.94,0,.51.14,1.03.41,1.48h-3.76c-1.53-.17-2.29-.74-3.09-1.35-.85-.64-1.73-1.31-3.36-1.31h-1.45v-13.19h1.92c.87,0,3.15-.53,4.31-1.32,1.52-1.04,2.39-2.82,2.65-5.46.03-.3.14-.69.48-.84.26-.12.61-.06.89.14,1.66,1.19,2.64,4.01,1.34,6.5-.11.21-.1.46.02.66.12.2.35.32.59.32h10.83c.43.8,1.29,1.34,2.28,1.34s1.85-.55,2.28-1.35c0,0,.02,0,.02,0,1.13,0,1.63.74,1.63,1.48M43.65,17.96c0,3.03-2.51,5.5-5.6,5.51v-2.22c0-.6-.5-1.09-1.11-1.09h-2.93c-.61,0-1.11.49-1.11,1.09v2.22c-3.09-.02-5.6-2.48-5.6-5.51V5.16c0-1.49,1.24-2.7,2.76-2.7h10.84c1.52,0,2.76,1.21,2.76,2.7v12.8Z"/>
</svg>