<?xml version="1.0" encoding="UTF-8"?>
<svg id="Layer_1" xmlns="http://www.w3.org/2000/svg" version="1.1" viewBox="0 0 48 48">
  <!-- Generator: Adobe Illustrator 30.3.0, SVG Export Plug-In . SVG Version: 2.1.3 Build 182)  -->
  <defs>
    <style>
      .st0 {
        stroke: #231f20;
        stroke-width: 1.66px;
      }

      .st0, .st1 {
        fill: none;
        stroke-linecap: round;
        stroke-linejoin: round;
      }

      .st1 {
        stroke: #0f0a0f;
        stroke-width: 2px;
      }

      .st2 {
        fill: #0f0a0f;
      }
    </style>
  </defs>
  <g>
    <path class="st2" d="M30.04,27.9c0,3.05-2.57,5.52-5.74,5.52s-5.73-2.47-5.73-5.52,2.57-5.52,5.73-5.52,5.74,2.47,5.74,5.52"/>
    <line class="st0" x1="12.63" y1="14.76" x2="8.92" y2="9.66"/>
    <line class="st0" x1="37.35" y1="15.16" x2="41.19" y2="10.04"/>
    <line class="st0" x1="25.46" y1="12.9" x2="25.81" y2="4.93"/>
    <path class="st1" d="M34.07,27.9c0,5.2-4.37,9.41-9.77,9.41s-9.76-4.21-9.76-9.41,4.37-9.41,9.76-9.41,9.77,4.21,9.77,9.41"/>
  </g>
  <path class="st2" d="M23.94,18.48c8.41,0,16.04,2.82,20.43,7.55,1.11,1.2,1.11,3,0,4.2-4.39,4.73-12.02,7.55-20.43,7.55s-16.04-2.82-20.43-7.55c-1.11-1.2-1.11-3,0-4.2,4.39-4.73,12.02-7.55,20.43-7.55M23.94,16.48c-9.24,0-17.33,3.27-21.9,8.19-1.82,1.96-1.82,4.96,0,6.92,4.56,4.92,12.65,8.19,21.9,8.19s17.33-3.27,21.9-8.19c1.82-1.96,1.82-4.96,0-6.92-4.56-4.92-12.65-8.19-21.9-8.19h0Z"/>
</svg>