<?xml version="1.0" encoding="UTF-8"?>
<svg id="Layer_1" xmlns="http://www.w3.org/2000/svg" version="1.1" viewBox="0 0 48 48">
  <!-- Generator: Adobe Illustrator 30.3.0, SVG Export Plug-In . SVG Version: 2.1.3 Build 182)  -->
  <path d="M21.25,26.12v13.94c0,2.04-1.47,3.7-3.27,3.7h-7.68c-3.09,0-5.59-1.33-7.2-3.85-1.37-2.14-2.1-5.12-2.1-8.64,0-5.52,1.73-11.8,4.64-16.78,3.35-5.75,7.73-8.91,12.34-8.91,1.8,0,3.27,1.66,3.27,3.7v3.81c0,.68-.55,1.23-1.23,1.23s-1.23-.55-1.23-1.23v-3.81c0-.71-.43-1.24-.81-1.24-4.98,0-8.54,4.82-10.21,7.69-2.65,4.55-4.3,10.51-4.3,15.54,0,3.05.59,5.57,1.71,7.31,1.16,1.8,2.89,2.72,5.13,2.72h7.68c.38,0,.81-.53.81-1.24v-13.94c0-.68.55-1.23,1.23-1.23s1.23.55,1.23,1.23M42.36,14.49c-3.35-5.75-7.73-8.91-12.34-8.91-1.8,0-3.27,1.66-3.27,3.7v3.85c0,.68.55,1.23,1.23,1.23s1.23-.55,1.23-1.23v-3.85c0-.71.43-1.24.81-1.24,4.98,0,8.54,4.82,10.21,7.69,2.66,4.55,4.3,10.51,4.3,15.54,0,3.05-.59,5.57-1.71,7.31-1.16,1.8-2.89,2.72-5.13,2.72h-7.67c-.38,0-.81-.53-.81-1.24v-14.12c0-.68-.55-1.23-1.23-1.23s-1.23.55-1.23,1.23v14.12c0,2.04,1.47,3.7,3.27,3.7h7.67c3.09,0,5.59-1.33,7.2-3.85,1.37-2.14,2.1-5.13,2.1-8.64,0-5.52-1.73-11.8-4.64-16.78M30.89,29.43c0,.68.55,1.23,1.23,1.23s1.23-.55,1.23-1.23v-3.59l3.24,1.54c.61.29,1.35.03,1.64-.58.29-.61.03-1.35-.58-1.64l-4.79-2.28-7.64-8.2V5.47c0-.68-.55-1.23-1.23-1.23s-1.23.55-1.23,1.23v9.21l-7.63,8.2-4.79,2.28c-.61.29-.88,1.03-.58,1.64.29.61,1.03.87,1.64.58l3.24-1.54v3.59c0,.68.55,1.23,1.23,1.23s1.23-.55,1.23-1.23v-5.06l6.89-7.41,6.89,7.41v5.06Z"/>
</svg>