<?xml version="1.0" encoding="UTF-8"?>
<svg id="Layer_1" xmlns="http://www.w3.org/2000/svg" version="1.1" viewBox="0 0 48 48">
  <!-- Generator: Adobe Illustrator 30.3.0, SVG Export Plug-In . SVG Version: 2.1.3 Build 182)  -->
  <path d="M15.5,24c-.34-.35-.89-.36-1.24-.02,0,0-.01.01-.02.02l-6.18,6.21c-.34.35-.34.91,0,1.26l1.04.98L.88,40.49c-.35.34-.36.9-.01,1.25.34.35.9.36,1.25.01l8.2-8.05,3.4,3.4.71.71-8,7.86c-.37.32-.42.87-.1,1.25.19.22.48.34.77.31.23,0,.46-.09.62-.26l8.01-7.86,1.05,1.04c.33.34.88.36,1.22.03,0,0,.02-.02.03-.03l6.22-6.22c.34-.34.34-.9,0-1.25l-8.73-8.68ZM19.96,30.96l-1.59,1.59-2.74-2.74,1.59-1.6,2.74,2.75ZM17.34,38.27l-1.04-1.03h0l-5.36-5.35h0l-1.04-1.04,4.97-4.97,1.1,1.1-2.22,2.22c-.34.34-.34.9,0,1.25l4,4c.16.17.39.26.62.26.24,0,.46-.09.63-.26l2.22-2.22,1.09,1.1-4.96,4.95Z"/>
  <path d="M10.78,38.22l.12-.11c.23-.23.24-.6,0-.83-.23-.23-.6-.24-.83,0h0l-.13.12c-.23.23-.23.6,0,.83.22.23.59.24.82.02,0,0,.01-.01.02-.02Z"/>
  <path d="M9.22,39.78c.21-.25.18-.62-.07-.83-.22-.18-.53-.19-.75,0l-2.95,2.95c-.23.22-.24.59-.02.82,0,0,.01.01.02.02.22.23.58.24.81.02,0,0,.01-.01.02-.02l2.95-2.95Z"/>
  <path d="M47.14,6.63c-.34-.35-.9-.35-1.25,0,0,0,0,0,0,0l-14.25,14.03-4.1-4.1,14.43-14.22c.37-.32.41-.88.09-1.25s-.88-.41-1.25-.09c-.03.03-.06.05-.08.08l-14.44,14.22h0l-.98-.98c-.34-.34-.9-.34-1.25,0l-4.49,4.49c-.26.26-.34.65-.19.98l1.24,3.02-1.47,1.47c-.34.34-.34.9,0,1.25l3.49,3.49c.17.17.39.26.63.26.23,0,.46-.09.62-.26l1.47-1.46,3.1,1.34c.33.14.72.07.98-.19l4.49-4.49c.34-.35.34-.91,0-1.26l-1.04-1.03,14.25-14.05c.35-.34.35-.9,0-1.25ZM28.61,27l-3.11-1.34c-.33-.14-.72-.07-.98.19l-1.27,1.27-2.24-2.23,1.27-1.28c.26-.25.34-.65.19-.98l-1.3-3.06,3.45-3.44.38.38.66.66,5.35,5.35.34.34.7.7-3.44,3.44Z"/>
  <path d="M31.2,16.14l-.12.12c-.23.23-.23.6,0,.83.11.11.27.17.42.17.16,0,.3-.06.41-.18l.12-.12c.21-.25.17-.62-.08-.83-.22-.18-.54-.18-.75,0Z"/>
  <path d="M37.15,10.19l-4.39,4.39c-.23.23-.23.6,0,.83.23.22.6.22.83,0l4.39-4.39c.23-.23.23-.6,0-.83-.22-.23-.59-.24-.82-.02,0,0-.01.01-.02.02Z"/>
  <path d="M25.74,18.53c-.35-.34-.91-.34-1.26,0-.34.34-.34.9,0,1.25l3.93,3.93c.16.17.38.27.62.27.49,0,.89-.42.88-.91,0-.22-.09-.43-.24-.59l-3.93-3.94Z"/>
</svg>