<?xml version="1.0" encoding="UTF-8"?>
<svg id="Layer_1" xmlns="http://www.w3.org/2000/svg" version="1.1" viewBox="0 0 48 48">
  <!-- Generator: Adobe Illustrator 30.3.0, SVG Export Plug-In . SVG Version: 2.1.3 Build 182)  -->
  <defs>
    <style>
      .st0 {
        fill: #0f0b0f;
      }
    </style>
  </defs>
  <path class="st0" d="M44.3,38.73c-.07,0-.14,0-.21-.03l-18.98-5.14c-.24-.07-.44-.24-.53-.48-.09-.24-.06-.5.08-.71l.92-1.4-.87-1.07c-.21-.26-.23-.62-.06-.9l1.23-2.03c.18-.3.54-.44.88-.35l19.27,5.29c.2.06.37.19.48.37.1.18.13.4.07.6l-1.52,5.29c-.1.34-.41.57-.75.57ZM26.57,32.33l17.19,4.66,1.09-3.78-17.93-4.92-.64,1.05.88,1.09c.21.27.23.64.05.92l-.64.98Z"/>
  <path class="st0" d="M41.11,37.35c-.07,0-.14,0-.2-.03-.42-.11-.67-.54-.56-.96l1.16-4.35c.11-.42.54-.67.96-.56.42.11.67.54.56.96l-1.16,4.35c-.09.35-.41.58-.76.58Z"/>
  <path class="st0" d="M44.51,29.13s-.08,0-.12,0c-.43-.07-.72-.47-.65-.9.22-1.41.48-5.64-1.19-6.54l-.09-.05c-2.87-1.56-11.6-6.3-9.09-11.9.18-.39.64-.57,1.04-.39.39.18.57.64.39,1.04-1.27,2.84,1.55,6.16,8.4,9.88l.09.05c2.94,1.59,2.1,7.49,1.99,8.16-.06.39-.39.66-.77.66Z"/>
  <path class="st0" d="M37.56,22.65c-.06,0-.12,0-.18-.02-8.02-1.87-7.49-10.01-7.48-10.1.03-.43.41-.75.84-.72.43.03.75.41.72.84h0c-.02.28-.42,6.89,6.28,8.45.42.1.68.52.59.94-.08.36-.41.61-.76.61Z"/>
  <path class="st0" d="M44.68,20.4c-.32,0-.62-.2-.74-.52h0s-1-2.71-2.99-3.12c-.43-.09-.7-.5-.61-.93.09-.42.5-.7.93-.61,2.86.59,4.1,3.98,4.16,4.13.15.41-.07.86-.47,1-.09.03-.18.05-.26.05Z"/>
  <path class="st0" d="M37.56,15.04c-.17,0-.34-.05-.48-.17-.08-.07-2.06-1.64-1.58-3.56.11-.42.53-.67.95-.57.42.11.67.53.57.95-.23.92,1.01,1.94,1.03,1.94.34.27.4.76.13,1.1-.15.2-.38.3-.62.3Z"/>
  <path class="st0" d="M5.72,33.86c-.07,0-.13,0-.2-.03-.2-.05-.37-.18-.48-.36l-3.06-5.28c-.12-.21-.14-.46-.05-.69.09-.22.28-.39.51-.46l.25-.07,19.66-11.71c.22-.13.49-.15.72-.04.23.11.4.32.45.57l.32,1.67,1.65.5c.28.08.49.32.55.61l.5,2.63c.06.33-.09.65-.37.82l-20.04,11.74c-.12.07-.26.11-.4.11ZM3.77,28.15l2.23,3.85,18.89-11.06-.31-1.62-1.65-.5c-.28-.08-.49-.32-.54-.61l-.19-1.03L3.77,28.15Z"/>
  <path class="st0" d="M18.45,26.43c-.27,0-.53-.14-.68-.39l-3.1-5.26c-.08-.12-.11-.26-.11-.4,0-.27.14-.53.39-.68.37-.22.85-.1,1.07.28l3.1,5.26c.07.12.11.26.11.4,0,.27-.14.53-.39.68-.13.07-.26.11-.4.11Z"/>
</svg>