<?xml version="1.0" encoding="UTF-8"?>
<svg id="Layer_1" xmlns="http://www.w3.org/2000/svg" version="1.1" xmlns:xlink="http://www.w3.org/1999/xlink" viewBox="0 0 200 200">
  <!-- Generator: Adobe Illustrator 30.3.0, SVG Export Plug-In . SVG Version: 2.1.3 Build 182)  -->
  <defs>
    <style>
      .st0 {
        stroke-width: .5px;
      }

      .st0, .st1, .st2 {
        stroke: #000;
        stroke-miterlimit: 10;
      }

      .st0, .st1, .st2, .st3 {
        fill: none;
      }

      .st4 {
        fill: #3b2314;
      }

      .st5 {
        fill: #12100b;
      }

      .st2 {
        stroke-width: .75px;
      }

      .st6 {
        fill: #2e353a;
      }

      .st7 {
        fill: #5571b5;
      }

      .st8 {
        fill: #c69c6d;
      }

      .st9 {
        fill: #c1b49a;
      }

      .st10 {
        clip-path: url(#clippath-1);
      }

      .st11 {
        opacity: .6;
      }

      .st11, .st12 {
        fill: #ef5350;
      }

      .st13 {
        opacity: .1;
      }

      .st14 {
        clip-path: url(#clippath-3);
      }

      .st15 {
        fill: #bfb5b2;
      }

      .st16 {
        clip-path: url(#clippath-2);
      }

      .st17 {
        isolation: isolate;
        opacity: .2;
      }

      .st18 {
        clip-path: url(#clippath);
      }

      .st19 {
        opacity: .5;
      }
    </style>
    <clipPath id="clippath">
      <rect class="st3" x="74.46" y="100.3" width="87.42" height="86.25"/>
    </clipPath>
    <clipPath id="clippath-1">
      <rect class="st3" x="80.48" y="41.54" width="14.35" height="24.72"/>
    </clipPath>
    <clipPath id="clippath-2">
      <rect class="st3" x="49.46" y="40.1" width="50.93" height="65.26"/>
    </clipPath>
    <clipPath id="clippath-3">
      <rect class="st3" x="69.06" y="30.01" width="8.61" height="8.53"/>
    </clipPath>
  </defs>
  <path class="st11" d="M125.71,94.96c0,27.05-21.93,48.98-48.98,48.98s-48.98-21.93-48.98-48.98,21.93-48.98,48.98-48.98,48.98,21.93,48.98,48.98"/>
  <path class="st15" d="M52.48,87.14c-7.15-20.74-8.03-24.64-11.54-33.24-3.51-8.6-2.4-15.26,5.34-16,7.74-.74,28.39-2.28,34.99-2.34,6.61-.06,10.27,10.35,12.61,18.34,2.34,7.98,9.88,33.56,9.88,33.56"/>
  <path class="st2" d="M52.48,87.14c-7.15-20.74-8.03-24.64-11.54-33.24-3.51-8.6-2.4-15.26,5.34-16,7.74-.74,28.39-2.28,34.99-2.34,6.61-.06,10.27,10.35,12.61,18.34,2.34,7.98,9.88,33.56,9.88,33.56"/>
  <path class="st6" d="M150.42,190.24c-.46-2.55-.71-5.11-3.15-10.92,0,0,7.53-5.43,8.36-2.4,1.52,5.5,7.89,11.69,14.52,11.9,3.79.12,1.74,3.28-.82,4.34-4.08,1.69-4.55,1.07-8.41.47-3.31-.52-4.6-.72-7.09.32-2.07.87-2.95-1.16-3.42-3.72"/>
  <path class="st2" d="M150.42,190.24c-.46-2.55-.71-5.11-3.15-10.92,0,0,7.53-5.43,8.36-2.4,1.52,5.5,7.89,11.69,14.52,11.9,3.79.12,1.74,3.28-.82,4.34-4.08,1.69-4.55,1.07-8.41.47-3.31-.52-4.6-.72-7.09.32-2.07.87-2.95-1.16-3.42-3.72Z"/>
  <path class="st7" d="M80.17,124.56h37.31s13.48,1.56,13.48,1.56c3.78,20.97,16.11,54.33,17.63,57.46l.02.04s.04.09.06.12h0s.76,2.08.76,2.08l11.69-2.49-.43-1.89s0,0,0-.04c-.01-.06-.03-.18-.04-.36-.67-5.1-8.04-59.4-14.53-70.8-6.81-11.98-61.96-8.97-61.96-8.97-17.73,4.95-3.99,23.28-3.99,23.28"/>
  <path class="st1" d="M80.17,124.56h37.31s13.48,1.56,13.48,1.56c3.78,20.97,16.11,54.33,17.63,57.46l.02.04s.04.09.06.12h0s.76,2.08.76,2.08l11.69-2.49-.43-1.89s0,0,0-.04c-.01-.06-.03-.18-.04-.36-.67-5.1-8.04-59.4-14.53-70.8-6.81-11.98-61.96-8.97-61.96-8.97-17.73,4.95-3.99,23.28-3.99,23.28Z"/>
  <g class="st13">
    <g class="st18">
      <path class="st5" d="M80.17,124.56h37.31s13.48,1.56,13.48,1.56c3.78,20.97,16.11,54.33,17.63,57.46l.02.04s.04.09.06.12h0s.76,2.08.76,2.08l11.69-2.49-.43-1.89s0,0,0-.04c-.01-.06-.03-.18-.04-.36-.67-5.1-8.04-59.4-14.53-70.8-6.81-11.98-61.96-8.97-61.96-8.97-17.73,4.95-3.99,23.28-3.99,23.28"/>
      <path class="st1" d="M80.17,124.56h37.31s13.48,1.56,13.48,1.56c3.78,20.97,16.11,54.33,17.63,57.46l.02.04s.04.09.06.12h0s.76,2.08.76,2.08l11.69-2.49-.43-1.89s0,0,0-.04c-.01-.06-.03-.18-.04-.36-.67-5.1-8.04-59.4-14.53-70.8-6.81-11.98-61.96-8.97-61.96-8.97-17.73,4.95-3.99,23.28-3.99,23.28Z"/>
    </g>
  </g>
  <path class="st6" d="M124.31,190.13c.2-2.74.97-5.47.01-12.07,0,0,9.17-3.57,9.22-.24.09,6.04,4.63,14.12,11.38,16.1,3.85,1.13.91,3.83-2,4.24-4.63.64-4.95-.11-8.75-1.76-3.25-1.41-4.53-1.96-7.35-1.56-2.36.34-2.72-1.97-2.52-4.72"/>
  <path class="st2" d="M124.31,190.13c.2-2.74.97-5.47.01-12.07,0,0,9.17-3.57,9.22-.24.09,6.04,4.63,14.12,11.38,16.1,3.85,1.13.91,3.83-2,4.24-4.63.64-4.95-.11-8.75-1.76-3.25-1.41-4.53-1.96-7.35-1.56-2.36.34-2.72-1.97-2.52-4.72Z"/>
  <path class="st7" d="M67.73,129.49c.96.22,2.03.22,3.15.28.1,0,.21.01.32.02.54.02,1.09.04,1.65.06.05,0,.09,0,.15,0,14.97.31,38.48-3.15,38.48-3.15,0,0,.6,4.11,1.75,11.93,2.35,15.99,11.05,49.82,11.05,49.82l12.09-2.18v-1.14s-.03-1.65-.03-1.65v-.58c-.03-1.44-.05-1.72-.08-3.38-.24-12.73-1.56-28.79-3.04-43.83-1.12-11.31-2.74-20.61-5.09-23.88-6.19-8.63-28.38-10.37-44.23-10.44-9.59-.05-24.64-1.08-24.64-1.08,0,0-11.72,24.57,8.45,29.21"/>
  <path class="st1" d="M67.73,129.49c.96.22,2.03.22,3.15.28.1,0,.21.01.32.02.54.02,1.09.04,1.65.06.05,0,.09,0,.15,0,14.97.31,38.48-3.15,38.48-3.15,0,0,.6,4.11,1.75,11.93,2.35,15.99,11.05,49.82,11.05,49.82l12.09-2.18v-1.14s-.03-1.65-.03-1.65v-.58c-.03-1.44-.05-1.72-.08-3.38-.24-12.73-1.56-28.79-3.04-43.83-1.12-11.31-2.74-20.61-5.09-23.88-6.19-8.63-28.38-10.37-44.23-10.44-9.59-.05-24.64-1.08-24.64-1.08,0,0-11.72,24.57,8.45,29.21Z"/>
  <path class="st7" d="M105.09,100.44c-1.18-.05-8.57-27.38-8.72-28.55-.86-6.89-2.67-22.33-3.14-25.97-.3-2.28-1.94-4.15-4.16-4.76l-.59-.16c-1.53-.42-3.19-.19-4.54.65-.14.09-.29.19-.42.3-1.62,1.22-2.49,3.22-2.25,5.26.48,4.18,12.32,50.41,13.18,51.46"/>
  <path class="st8" d="M105.09,100.44c-1.18-.05-8.18-26.88-8.33-28.05-.86-6.89-2.67-22.33-3.14-25.97-.3-2.28-1.94-4.15-4.16-4.76l-.59-.16c-1.53-.42-3.19-.19-4.54.65-.14.09-.29.19-.42.3-1.62,1.22-2.49,3.22-2.25,5.26.48,4.18,8.36,52.18,9.23,53.23"/>
  <path class="st0" d="M105.09,100.44c-1.18-.05-8.18-26.88-8.33-28.05-.86-6.89-2.67-22.33-3.14-25.97-.3-2.28-1.94-4.15-4.16-4.76l-.59-.16c-1.53-.42-3.19-.19-4.54.65-.14.09-.29.19-.42.3-1.62,1.22-2.49,3.22-2.25,5.26.48,4.18,8.36,52.18,9.23,53.23"/>
  <g class="st17">
    <g class="st10">
      <path class="st5" d="M81.34,47.27c2.2,3.58,4.46,7.09,6.81,10.59,1.89,2.82,3.79,5.62,5.78,8.41l.44-1.7c1.01-3.92.36-8.08-1.83-11.49-1.3-2.02-2.91-4.29-4.74-6.32-2.66-2.96-4.79-4.67-6.64-5.21-.96,1.79-.89,3.97.18,5.72"/>
    </g>
  </g>
  <path class="st7" d="M57.08,43.72c-1.05.25-10.36,2.26-6.27,11.99,16.7,38.07,9.36,29.96,7.13,49.27l42.01-6.64s-7.54-19.24-6.41-24.54c1.91-8.93,4.01-13.46-.32-21.55-4.78-8.93-6.48-11.29-6.48-11.29-4.05-.34-16.6-1.53-29.66,2.75"/>
  <path class="st0" d="M57.08,43.72c-1.05.25-10.36,2.26-6.27,11.99,16.7,38.07,9.36,29.96,7.13,49.27l42.01-6.64s-7.54-19.24-6.41-24.54c1.91-8.93,4.01-13.46-.32-21.55-4.78-8.93-6.48-11.29-6.48-11.29-4.05-.34-16.6-1.53-29.66,2.75Z"/>
  <g class="st19">
    <g class="st16">
      <path class="st5" d="M57.08,43.72c-1.05.25-10.36,2.26-6.27,11.99,16.7,38.07,9.36,29.96,7.13,49.27l42.01-6.64s-7.54-19.24-6.41-24.54c1.91-8.93,4.01-13.46-.32-21.55-4.78-8.93-6.48-11.29-6.48-11.29-4.05-.34-14.35-1.99-29.66,2.75"/>
      <path class="st0" d="M57.08,43.72c-1.05.25-10.36,2.26-6.27,11.99,16.7,38.07,9.36,29.96,7.13,49.27l42.01-6.64s-7.54-19.24-6.41-24.54c1.91-8.93,4.01-13.46-.32-21.55-4.78-8.93-6.48-11.29-6.48-11.29-4.05-.34-14.35-1.99-29.66,2.75Z"/>
    </g>
  </g>
  <polygon class="st7" points="57.24 105.64 101.88 102.26 99.15 96.22 58.43 100.18 57.24 105.64"/>
  <polygon class="st1" points="57.24 105.64 101.88 102.26 99.15 96.22 58.43 100.18 57.24 105.64"/>
  <path class="st9" d="M110.38,90.15c0,1.66-1.35,3.01-3.01,3.01h-55.07c-1.66,0-3.01-1.35-3.01-3.01s1.35-3.01,3.01-3.01h55.07c1.66,0,3.01,1.35,3.01,3.01"/>
  <path class="st2" d="M110.38,90.15c0,1.66-1.35,3.01-3.01,3.01h-55.07c-1.66,0-3.01-1.35-3.01-3.01s1.35-3.01,3.01-3.01h55.07c1.66,0,3.01,1.35,3.01,3.01Z"/>
  <path class="st12" d="M69.85,85.12h-2.78c-1.16,0-2.16.28-2.9.94-.75.67-1.19,1.69-1.19,3.15v2.56c0,.22-.14.47-.34.67-.2.2-.44.34-.67.34h-4.45c-.32,0-.58-.15-.76-.37-.26-.33-.4-.82-.4-1.32v-12.41c0-.16.08-.32.23-.46.22-.22.56-.4.94-.5l-.48-1.81c-.7.18-1.33.53-1.78.98-.48.48-.78,1.09-.78,1.78v12.41c0,.91.28,1.82.81,2.49.52.66,1.26,1.08,2.22,1.08h4.45c.74,0,1.47-.36,1.99-.89.53-.53.89-1.27.89-2v-2.56c0-.88.21-1.44.56-1.76.36-.32.94-.46,1.66-.46h2.78v-1.88Z"/>
  <path class="st2" d="M69.85,85.12h-2.78c-1.16,0-2.16.28-2.9.94-.75.67-1.19,1.69-1.19,3.15v2.56c0,.22-.14.47-.34.67-.2.2-.44.34-.67.34h-4.45c-.32,0-.58-.15-.76-.37-.26-.33-.4-.82-.4-1.32v-12.41c0-.16.08-.32.23-.46.22-.22.56-.4.94-.5l-.48-1.81c-.7.18-1.33.53-1.78.98-.48.48-.78,1.09-.78,1.78v12.41c0,.91.28,1.82.81,2.49.52.66,1.26,1.08,2.22,1.08h4.45c.74,0,1.47-.36,1.99-.89.53-.53.89-1.27.89-2v-2.56c0-.88.21-1.44.56-1.76.36-.32.94-.46,1.66-.46h2.78v-1.88Z"/>
  <path class="st8" d="M53.81,45.59c2.38-.51,4.73.57,5.97,2.51,1.44,1.17,2.54,2.85,3.02,4.91.77,3.32.88,6.22.63,8.72,1.92,7.51,3.86,14.61,3.89,14.68-.09,0,24.27,4.51,28.09,5.22v-.11s.52-.07.52-.07l6.71-1.7c2.75-.3,5.43-.39,5.73,2.35,0,.06-.04.65-.09,1.22-.05.58-.09,1.17-.1,1.23.86,4.91-2.04,5.09-4.81,5.2-.88.03-2.97.74-3.74.32-1.17-.6-3.36-2.4-4.01-2.95l-15.04.24s-18.35,2.32-21.84-3.37c-.25-.42-.44-.81-.64-1.2-.19-.39-.36-.77-.52-1.15-.91-2.21-5.87-19.47-8.13-29.25-.71-3.09,1.25-6.17,4.36-6.84"/>
  <path class="st0" d="M53.81,45.59c2.38-.51,4.73.57,5.97,2.51,1.44,1.17,2.54,2.85,3.02,4.91.77,3.32.88,6.22.63,8.72,1.92,7.51,3.86,14.61,3.89,14.68-.09,0,24.27,4.51,28.09,5.22v-.11s.52-.07.52-.07l6.71-1.7c2.75-.3,5.43-.39,5.73,2.35,0,.06-.04.65-.09,1.22-.05.58-.09,1.17-.1,1.23.86,4.91-2.04,5.09-4.81,5.2-.88.03-2.97.74-3.74.32-1.17-.6-3.36-2.4-4.01-2.95l-15.04.24s-18.35,2.32-21.84-3.37c-.25-.42-.44-.81-.64-1.2-.19-.39-.36-.77-.52-1.15-.91-2.21-5.87-19.47-8.13-29.25-.71-3.09,1.25-6.17,4.36-6.84Z"/>
  <path class="st8" d="M80.29,40.6s-.07-.06-.07-.06c-3.17-.25-3.19-3.04-2.59-6.81l-11.97-6.98c1.33,4.68,2.83,11.54-.25,15,8.91,3.76,13.53,2.41,13.53,2.41,1.77-.14,2.61-2.31,1.34-3.55"/>
  <path class="st0" d="M80.29,40.6s-.07-.06-.07-.06c-3.17-.25-3.19-3.04-2.59-6.81l-11.97-6.98c1.33,4.68,2.83,11.54-.25,15,8.91,3.76,13.53,2.41,13.53,2.41,1.77-.14,2.61-2.31,1.34-3.55Z"/>
  <g class="st17">
    <g class="st14">
      <path class="st5" d="M69.16,30.01l6.46,2.51,2.05,1.19c-.38,1.58-.42,3.22-.13,4.82-4.06-.56-9.27-5.13-8.38-8.53"/>
    </g>
  </g>
  <path class="st8" d="M64.25,15.55c-.15,7.99-.38,11.41,3.3,15.75,5.55,6.63,15.41,5.06,17.94-2.72,2.25-7.01,2.19-18.92-5.39-22.7-5.37-2.73-11.93-.59-14.66,4.78-.77,1.52-1.18,3.19-1.18,4.9"/>
  <path class="st0" d="M64.25,15.55c-.15,7.99-.38,11.41,3.3,15.75,5.55,6.63,15.41,5.06,17.94-2.72,2.25-7.01,2.19-18.92-5.39-22.7-5.37-2.73-11.93-.59-14.66,4.78-.77,1.52-1.18,3.19-1.18,4.9Z"/>
  <path class="st8" d="M61.67,21.71c.45,1.48,1.48,2.72,2.84,3.44,1.82.95,3.17-.58,3-2.51-.14-1.74-1.25-4.33-3.24-4.48-1.45-.08-2.69,1.03-2.77,2.47-.02.36.04.73.17,1.07"/>
  <path class="st4" d="M66.53,29.98c-1.09-1.56-1.68-3.08-2-4.82h-.01c-1.37-.72-2.39-1.97-2.84-3.45-.13-.34-.19-.71-.17-1.07.06-1.16.86-2.09,1.92-2.37.24-.08.5-.11.76-.1.03,0,.06,0,.09,0,1.68.13,2.72,1.98,3.1,3.61,1.31-1.48,1.47-3.95,2.26-5.9.76-1.87,2.25-3.38,4.04-4.31.73-.4,1.54-.64,2.33-.88,6.37-1.97,9.22,1.47,9.47,1.5.74.09.43-7.87-10-10.13-.01,0-.03-.01-.04-.01-.66-.15-1.32-.26-1.99-.34-.44-.05-.87-.08-1.25-.09-.05,0-.08,0-.12,0-.2,0-.4,0-.6.01-.13,0-.27.02-.4.03-5.42.41-11.85,3.66-12.79,8.63-2.46,12.91,9.67,26.22,8.25,19.7"/>
  <path class="st0" d="M66.53,29.98c-1.09-1.56-1.68-3.08-2-4.82h-.01c-1.37-.72-2.39-1.97-2.84-3.45-.13-.34-.19-.71-.17-1.07.06-1.16.86-2.09,1.92-2.37.24-.08.5-.11.76-.1.03,0,.06,0,.09,0,1.68.13,2.72,1.98,3.1,3.61,1.31-1.48,1.47-3.95,2.26-5.9.76-1.87,2.25-3.38,4.04-4.31.73-.4,1.54-.64,2.33-.88,6.37-1.97,9.22,1.47,9.47,1.5.74.09.43-7.87-10-10.13-.01,0-.03-.01-.04-.01-.66-.15-1.32-.26-1.99-.34-.44-.05-.87-.08-1.25-.09-.05,0-.08,0-.12,0-.2,0-.4,0-.6.01-.13,0-.27.02-.4.03-5.42.41-11.85,3.66-12.79,8.63-2.46,12.91,9.67,26.22,8.25,19.7Z"/>
  <path class="st15" d="M83.68,28.87c-.62,1.14-4.05,2.12-6.64.88l6.64-.88Z"/>
  <path class="st0" d="M83.68,28.87c-.62,1.14-4.05,2.12-6.64.88l6.64-.88Z"/>
  <path class="st12" d="M77.78,84.92h0c0,1.22,1,2.22,2.22,2.22h6.17c1.22,0,2.22-1,2.22-2.22s-1-2.22-2.22-2.22h-6.17c-1.22,0-2.22,1-2.22,2.22"/>
  <path class="st2" d="M77.78,84.92h0c0,1.22,1,2.22,2.22,2.22h6.17c1.22,0,2.22-1,2.22-2.22s-1-2.22-2.22-2.22h-6.17c-1.22,0-2.22,1-2.22,2.22Z"/>
  <path class="st12" d="M51.96,68.3l2.02,7.21c.65,2.3,3.06,3.66,5.36,3.01l5.82-1.63c2.3-.65,3.66-3.05,3.01-5.36l-2.02-7.21c-.64-2.3-3.05-3.66-5.36-3.02l-5.82,1.63c-2.3.65-3.66,3.06-3.01,5.36"/>
  <path class="st2" d="M51.96,68.3l2.02,7.21c.65,2.3,3.06,3.66,5.36,3.01l5.82-1.63c2.3-.65,3.66-3.05,3.01-5.36l-2.02-7.21c-.64-2.3-3.05-3.66-5.36-3.02l-5.82,1.63c-2.3.65-3.66,3.06-3.01,5.36Z"/>
</svg>