<?xml version="1.0" encoding="UTF-8"?>
<svg id="Layer_1" xmlns="http://www.w3.org/2000/svg" version="1.1" viewBox="0 0 192 96">
  <!-- Generator: Adobe Illustrator 30.3.0, SVG Export Plug-In . SVG Version: 2.1.3 Build 182)  -->
  <defs>
    <style>
      .st0 {
        fill: #606060;
      }
    </style>
  </defs>
  <line class="st0" x1="70" y1="63.88" x2="71.1" y2="63.88"/>
  <path class="st0" d="M73.05,79.51v-.53c.27-.02.46-.07.57-.17.12-.1.19-.24.22-.43.03-.19.05-.44.05-.73v-5c0-.18,0-.35.01-.51,0-.17.02-.31.02-.43-.13,0-.28.02-.44.02-.16,0-.3.02-.43.02v-.66c.49,0,.98-.01,1.48-.02.5,0,1,0,1.5,0,.75,0,1.38.09,1.87.26.49.17.86.43,1.1.76.24.34.36.76.35,1.27,0,.32-.06.64-.19.96-.14.32-.36.6-.69.85-.32.25-.76.44-1.32.57.16.1.3.23.43.4.13.17.26.36.4.57l.73,1.13c.15.24.29.44.42.61.13.17.27.3.43.39.16.09.35.14.58.14v.53h-1.67c-.21-.18-.39-.37-.53-.57-.15-.21-.31-.44-.48-.69l-.83-1.35c-.1-.16-.21-.33-.33-.52-.12-.18-.24-.34-.38-.47h-.76v1.98c0,.22,0,.41,0,.59,0,.17-.01.31-.03.41.1,0,.2-.01.31-.02.11,0,.22,0,.32-.02.11,0,.2-.01.29-.01v.66h-3ZM75.86,75.32c.44,0,.82-.08,1.13-.21.31-.13.55-.34.72-.61.17-.28.25-.64.25-1.08,0-.33-.05-.6-.14-.83-.1-.22-.23-.41-.41-.55-.18-.14-.39-.24-.63-.3-.24-.06-.51-.09-.79-.09-.26,0-.44.05-.56.14-.12.1-.19.24-.22.42s-.05.42-.05.71v2.36c.12,0,.23.02.34.03.11.01.23.01.35,0"/>
  <path class="st0" d="M83.47,79.7c-.56,0-1.06-.13-1.51-.39-.45-.26-.8-.63-1.05-1.11-.26-.48-.39-1.04-.39-1.69,0-.56.13-1.09.38-1.58.25-.49.61-.88,1.06-1.18.46-.3.99-.45,1.59-.45.34,0,.66.05.96.16.3.11.57.27.81.49.24.22.42.5.56.85.14.35.21.77.21,1.27l-4.14.07c0,.54.06,1.03.19,1.46.12.43.33.75.61.99.28.23.65.35,1.1.35.22,0,.45-.04.69-.12.24-.08.48-.19.7-.33s.41-.32.56-.52l.37.33c-.24.36-.52.64-.83.85-.31.2-.63.35-.96.43-.33.08-.62.13-.9.13M81.99,75.52h2.78c0-.3-.04-.58-.13-.82s-.21-.44-.39-.59c-.18-.14-.4-.22-.67-.22-.43,0-.77.13-1.05.4-.27.27-.45.68-.54,1.22"/>
  <path class="st0" d="M86.92,82.58v-.51c.24,0,.41-.06.51-.17.1-.11.16-.27.18-.47.02-.2.03-.43.03-.7v-5.57c.01-.13.02-.27.03-.41,0-.15.02-.3.03-.44-.13,0-.28.01-.43.02-.15,0-.29,0-.42.02v-.64c.36,0,.65-.02.85-.05.21-.04.36-.08.47-.13.11-.05.19-.1.25-.16h.43c0,.08.02.18.02.29,0,.11.02.22.03.34.25-.23.54-.4.85-.52.31-.12.62-.18.94-.18.46,0,.89.12,1.28.37.39.24.7.59.94,1.04.24.45.35.98.35,1.6,0,.67-.14,1.26-.41,1.77-.27.51-.64.91-1.1,1.2-.46.28-.97.43-1.53.43-.26,0-.49-.03-.71-.09-.22-.06-.42-.14-.61-.25v1.72c0,.14,0,.29,0,.44,0,.15-.01.3-.03.45.13,0,.26-.01.39-.02.13,0,.25,0,.37-.02v.64h-2.68ZM90.12,79.08c.38,0,.7-.12.96-.34.25-.23.44-.54.56-.93.12-.39.19-.83.19-1.32,0-.41-.06-.8-.17-1.18-.11-.37-.29-.68-.53-.91-.24-.24-.56-.35-.96-.34-.25,0-.48.06-.71.18-.22.12-.41.27-.57.44,0,.1,0,.22,0,.34,0,.12,0,.27,0,.45v.69c0,.28,0,.62,0,1.04,0,.41,0,.91,0,1.5.16.12.35.22.56.29.21.07.43.11.67.1"/>
  <path class="st0" d="M96.68,79.7c-.45,0-.82-.08-1.11-.25-.29-.17-.51-.45-.65-.84s-.22-.9-.22-1.55v-1.89c0-.13,0-.28,0-.43,0-.15.02-.29.04-.44-.14,0-.28.01-.43.02-.15,0-.29,0-.41.02v-.64h.29c.4,0,.7-.04.9-.11.2-.07.34-.15.42-.23h.46v3.67c0,.63.09,1.11.26,1.42.18.31.47.47.89.46.27,0,.53-.08.79-.24.25-.16.46-.35.62-.56v-2.85c0-.18,0-.34.01-.5,0-.16.02-.31.05-.45-.15,0-.29.01-.45.02-.15,0-.29,0-.42.02v-.64h.35c.35,0,.63-.04.83-.11.2-.07.35-.15.43-.23h.46v4.43c-.01.13-.01.3-.02.52,0,.22-.02.41-.04.59.14,0,.28-.02.43-.02.15,0,.29-.01.41-.01v.64h-1.91c-.02-.13-.03-.25-.04-.36s-.02-.22-.04-.33c-.25.23-.54.44-.87.62-.33.18-.67.26-1.03.26M96.66,72.59l-.41-.35,1-1.65c.11-.16.23-.26.34-.31.12-.04.22-.06.33-.03.1.02.18.05.23.1.06.05.11.12.15.23.03.11.03.22,0,.35-.04.12-.12.25-.25.39l-1.38,1.28Z"/>
  <path class="st0" d="M101.71,72.23c0-.14,0-.28,0-.41,0-.14.01-.29.03-.45-.14,0-.29.02-.44.02-.15,0-.29,0-.41.02v-.64c.36,0,.65-.02.87-.06.22-.04.38-.08.5-.13.12-.05.2-.1.26-.16h.45v3.56c.24-.23.51-.4.81-.51.3-.12.61-.18.94-.18.5,0,.94.12,1.34.37.4.25.71.6.94,1.06.23.46.34,1,.34,1.62,0,.67-.14,1.25-.41,1.76-.28.5-.65.9-1.1,1.17-.46.28-.97.41-1.54.41-.26,0-.55-.05-.87-.15-.32-.09-.62-.29-.88-.59l-.31.54h-.53l.03-7.28ZM102.96,77.64c0,.38.06.67.18.87.12.2.27.35.46.43.19.08.39.13.59.13.38,0,.7-.1.95-.31.26-.22.45-.51.58-.88.13-.37.2-.8.2-1.27s-.06-.92-.18-1.3c-.12-.39-.3-.69-.55-.92-.25-.23-.56-.34-.94-.33-.25,0-.49.06-.72.17-.23.11-.42.26-.58.46v2.96Z"/>
  <path class="st0" d="M108.08,79c.24,0,.41-.06.51-.17.1-.11.15-.27.18-.47.02-.2.03-.43.03-.7v-5.44c0-.14,0-.28,0-.41,0-.14.01-.29.03-.45-.14,0-.28.01-.43.02-.15,0-.29,0-.41.02v-.64c.36,0,.65-.02.86-.06.21-.04.38-.08.49-.12.12-.05.2-.1.26-.16h.46v7.59c0,.14,0,.29-.01.44,0,.15-.02.3-.04.45.13,0,.26-.01.39-.02.13,0,.26,0,.37-.02v.64h-2.68v-.51Z"/>
  <path class="st0" d="M111.71,79c.24,0,.41-.06.51-.17s.15-.27.17-.47c.02-.2.03-.43.03-.7v-2.49c0-.14,0-.28.01-.41s.02-.29.04-.45c-.13,0-.28.01-.43.02-.15,0-.29,0-.42.02v-.64c.36,0,.65-.02.86-.06.21-.03.38-.08.49-.12.12-.05.2-.1.26-.16h.46v4.64c0,.14,0,.29,0,.44,0,.15-.02.3-.04.45.13,0,.26-.01.39-.02.13,0,.25,0,.37-.02v.64h-2.68v-.51ZM112.99,72.27c-.21,0-.38-.08-.53-.23-.14-.16-.22-.35-.22-.57s.07-.41.23-.57c.15-.16.33-.24.52-.24.21,0,.38.08.52.24.14.16.21.35.21.57s-.07.41-.21.57c-.14.16-.31.23-.52.23"/>
  <path class="st0" d="M118.08,79.7c-.54,0-1.03-.12-1.48-.37-.45-.24-.81-.59-1.08-1.05-.27-.46-.4-1.01-.4-1.66,0-.43.08-.85.23-1.24.15-.4.37-.75.65-1.06.28-.31.6-.56.99-.74.38-.18.8-.27,1.27-.27s.88.07,1.22.22c.34.15.59.33.78.57.18.23.27.49.27.76,0,.19-.06.36-.17.51s-.27.22-.48.22c-.23,0-.4-.06-.49-.21-.1-.15-.14-.29-.14-.41,0-.07.01-.15.04-.24.02-.09.07-.18.13-.25-.06-.17-.17-.29-.31-.37-.15-.08-.3-.13-.45-.16-.15-.02-.28-.04-.39-.04-.49,0-.9.22-1.23.63-.33.41-.5,1.01-.5,1.79,0,.5.07.94.22,1.34.15.39.37.71.65.94.29.23.63.35,1.04.36.36,0,.71-.09,1.05-.28.34-.19.61-.43.82-.72l.39.34c-.23.36-.5.65-.8.85-.3.21-.6.36-.91.45-.31.09-.6.13-.88.13"/>
  <path class="st0" d="M125.21,79.51c-.02-.13-.03-.24-.04-.34,0-.1-.02-.2-.04-.3-.27.27-.56.48-.88.62-.31.14-.64.21-.98.21-.58,0-1.01-.14-1.3-.43-.29-.28-.44-.64-.44-1.06,0-.37.11-.69.33-.96.22-.27.5-.5.85-.67.35-.17.74-.3,1.15-.38.42-.08.83-.13,1.23-.13v-.71c0-.26-.02-.49-.07-.71-.05-.22-.15-.4-.29-.54-.15-.14-.38-.21-.69-.21-.21,0-.42.03-.63.12-.21.08-.37.22-.48.41.06.06.11.14.13.22s.03.16.03.23c0,.11-.05.24-.15.38-.1.14-.26.21-.49.2-.19,0-.34-.06-.44-.2-.1-.13-.15-.29-.15-.46,0-.29.11-.55.32-.77.21-.22.5-.4.87-.53.37-.13.78-.19,1.24-.19.69,0,1.21.18,1.55.54.34.36.51.93.51,1.71v.83c0,.26,0,.53,0,.79,0,.26,0,.54,0,.84,0,.12,0,.26-.01.41,0,.15-.02.31-.04.48.14,0,.28-.01.42-.02.15,0,.28-.01.41-.01v.64h-1.91ZM125.1,76.62c-.26.02-.52.05-.79.11-.27.06-.51.14-.73.25-.22.11-.39.26-.52.43-.13.18-.2.39-.2.64.02.27.11.47.27.6.16.13.36.19.58.19.28,0,.53-.05.75-.16.22-.11.43-.26.64-.45,0-.09,0-.18,0-.27v-.3c0-.07,0-.2,0-.4,0-.19,0-.41,0-.64"/>
  <path class="st0" d="M130.51,79.51v-.54c.24,0,.42-.06.55-.19.13-.13.23-.3.32-.52.09-.22.18-.47.29-.74l2.43-6.65h.48l2.64,6.75c.06.15.14.36.22.62.08.26.12.48.11.67.13-.01.27-.02.4-.03.13,0,.26,0,.38-.02v.66h-2.92v-.53c.28,0,.47-.07.56-.19.09-.12.13-.26.11-.43-.02-.17-.06-.34-.13-.51l-.36-.97-2.95.07-.35,1.05c-.05.16-.1.31-.16.46-.06.14-.11.29-.17.42.14-.01.3-.02.46-.03.17,0,.31,0,.44-.02v.67h-2.36ZM132.85,76.31h2.53l-.76-2.03c-.1-.26-.19-.53-.28-.79-.09-.26-.17-.51-.24-.75h-.01c-.06.2-.13.42-.21.66-.08.24-.17.5-.28.78l-.75,2.13Z"/>
  <path class="st0" d="M139.06,79c.24,0,.41-.06.51-.17.1-.11.15-.27.18-.47.02-.2.03-.43.03-.7v-2.5c0-.13,0-.27,0-.41,0-.15.02-.3.04-.44-.14,0-.28.02-.43.02-.15,0-.3,0-.42.02v-.64h.41c.34,0,.59-.04.77-.11.18-.07.3-.15.38-.23h.43c.01.11.03.27.04.47,0,.2.01.42.02.67.15-.23.33-.43.53-.61.2-.18.42-.33.65-.44.24-.11.48-.17.74-.17s.47.07.65.2c.18.13.27.35.27.64,0,.08-.02.17-.06.28-.05.1-.12.19-.22.27-.1.08-.23.11-.4.11-.17,0-.32-.07-.44-.19-.12-.12-.18-.28-.18-.49-.19,0-.39.06-.58.18-.19.12-.37.27-.53.46-.17.19-.3.4-.41.63v2.64c0,.14,0,.29,0,.44,0,.15-.02.3-.04.45.13,0,.26-.01.4-.02.14,0,.26,0,.37-.02v.64h-2.7v-.51Z"/>
  <path class="st0" d="M147.25,82.77c-.71,0-1.27-.08-1.7-.23-.43-.16-.74-.36-.93-.6-.19-.24-.28-.5-.28-.77,0-.22.05-.42.15-.6.1-.18.23-.35.4-.49.17-.14.36-.25.57-.33-.28-.09-.49-.22-.64-.38-.15-.16-.22-.37-.22-.61,0-.26.1-.51.3-.76.2-.25.5-.42.88-.51-.36-.16-.65-.39-.87-.7-.22-.3-.33-.66-.34-1.08,0-.48.12-.9.37-1.26.25-.36.58-.64.97-.84.4-.2.81-.3,1.25-.3.25,0,.5.03.77.1.26.07.51.18.72.32.09-.23.21-.45.35-.64.14-.19.31-.35.51-.46.2-.11.4-.17.62-.17.23,0,.41.06.53.18.12.12.18.28.18.48,0,.06-.02.14-.05.24-.04.09-.1.17-.19.23-.09.06-.21.1-.36.1-.13,0-.24-.04-.34-.12-.1-.09-.16-.19-.18-.31-.17.03-.31.13-.41.29-.11.17-.18.33-.21.5.21.18.37.4.49.65.12.25.17.52.17.81,0,.46-.12.86-.36,1.22-.24.35-.56.63-.96.83-.39.2-.82.3-1.27.3-.14,0-.26,0-.39-.03-.12-.02-.25-.03-.4-.03-.26,0-.47.06-.63.18-.16.12-.23.26-.18.43.04.18.21.29.5.35.3.06.73.1,1.29.12.62.02,1.15.1,1.59.22s.79.31,1.03.57.37.61.37,1.05c0,.33-.09.62-.27.88-.18.26-.42.47-.72.64-.3.17-.64.3-1.01.39-.37.09-.74.13-1.11.13M147.36,82.18c.65,0,1.15-.12,1.51-.36.36-.24.53-.51.53-.82,0-.26-.09-.46-.26-.59-.18-.14-.42-.24-.74-.3-.32-.06-.69-.09-1.11-.1-.21-.02-.42-.03-.64-.04-.22,0-.42-.03-.6-.06-.18.13-.33.28-.43.47-.1.18-.15.38-.16.58,0,.37.17.66.52.89.35.23.81.34,1.39.34M147.2,77.3c.27,0,.5-.07.68-.21.18-.14.32-.33.41-.57.09-.24.14-.49.14-.77,0-.33-.05-.64-.14-.93-.1-.29-.24-.52-.42-.7-.18-.18-.42-.27-.71-.27-.39,0-.7.16-.91.47-.22.31-.33.69-.33,1.13,0,.35.05.67.15.94.1.28.25.5.44.66.19.16.42.24.7.24"/>
  <path class="st0" d="M153.84,79.7c-.56,0-1.06-.13-1.51-.39-.44-.26-.8-.63-1.05-1.11-.26-.48-.38-1.04-.38-1.69,0-.56.12-1.09.38-1.58.25-.49.61-.88,1.06-1.18.46-.3.99-.45,1.59-.45.34,0,.65.05.96.16.3.11.57.27.81.49.24.22.42.5.56.85.14.35.2.77.2,1.27l-4.14.07c0,.54.06,1.03.19,1.46.12.43.33.75.61.99.28.23.65.35,1.09.35.22,0,.45-.04.69-.12.24-.08.47-.19.7-.33.22-.14.41-.32.56-.52l.37.33c-.24.36-.52.64-.83.85-.31.2-.63.35-.95.43-.33.08-.63.13-.9.13M152.36,75.52h2.78c0-.3-.04-.58-.13-.82s-.21-.44-.39-.59c-.18-.14-.4-.22-.67-.22-.43,0-.77.13-1.05.4-.27.27-.46.68-.54,1.22"/>
  <path class="st0" d="M157.35,79.51v-.51c.24,0,.41-.06.51-.17.1-.11.15-.27.18-.47.02-.2.03-.43.03-.7v-2.5c.01-.13.01-.27.02-.41,0-.15.02-.3.04-.44-.14,0-.29.01-.44.02-.15,0-.29.01-.41.02v-.64c.36,0,.65-.02.85-.06.2-.04.36-.08.47-.12.11-.05.19-.1.24-.16h.43c0,.07.01.14.02.2,0,.06,0,.13.01.2,0,.07,0,.17.02.28.18-.14.37-.27.58-.38s.43-.2.65-.27c.23-.07.45-.1.66-.1.71,0,1.23.22,1.54.65.32.43.47,1.11.47,2.03v2.03c0,.14,0,.29-.01.44,0,.15-.02.3-.04.45.13,0,.26-.01.39-.02.13,0,.25,0,.37-.02v.64h-2.68v-.51c.24,0,.41-.06.51-.17.1-.11.16-.27.18-.47.02-.2.03-.43.03-.7v-1.68c0-.63-.11-1.11-.31-1.43-.19-.32-.51-.48-.94-.47-.26,0-.51.06-.76.19-.25.13-.46.28-.63.47v3.27c0,.14,0,.29-.01.44,0,.15-.02.3-.04.45.13,0,.26-.01.39-.02.13,0,.26,0,.37-.02v.64h-2.68Z"/>
  <path class="st0" d="M166.88,79.7c-.2,0-.4-.03-.61-.08-.21-.05-.39-.16-.56-.31s-.3-.38-.4-.68c-.1-.29-.14-.69-.14-1.18l.02-3.29h-.89v-.67c.22,0,.44-.09.66-.24.22-.15.42-.36.59-.61.17-.26.29-.53.35-.83h.57v1.68h1.85v.63l-1.85.02-.02,3.21c0,.3.02.57.08.8.05.23.14.41.27.53.12.12.29.19.51.19.18,0,.37-.06.57-.17s.38-.3.56-.55l.41.36c-.19.28-.39.5-.58.66-.19.16-.38.28-.55.35-.18.08-.34.12-.48.14-.15.02-.26.03-.35.03"/>
  <path class="st0" d="M169.49,79c.24,0,.41-.06.51-.17.1-.11.15-.27.17-.47.02-.2.03-.43.03-.7v-2.49c0-.14,0-.28.01-.41,0-.14.02-.29.04-.45-.13,0-.28.01-.43.02-.15,0-.29,0-.42.02v-.64c.36,0,.65-.02.86-.06.21-.03.38-.08.49-.12.12-.05.2-.1.26-.16h.46v4.64c0,.14,0,.29-.01.44,0,.15-.02.3-.04.45.13,0,.26-.01.39-.02.13,0,.25,0,.37-.02v.64h-2.68v-.51ZM170.76,72.27c-.21,0-.38-.08-.53-.23-.14-.16-.22-.35-.22-.57s.08-.41.23-.57c.15-.16.33-.24.52-.24.21,0,.38.08.52.24.14.16.21.35.21.57s-.07.41-.21.57c-.14.16-.31.23-.52.23"/>
  <path class="st0" d="M173.11,79.51v-.51c.24,0,.41-.06.51-.17.1-.11.15-.27.18-.47.02-.2.03-.43.03-.7v-2.5c.01-.13.01-.27.02-.41,0-.15.02-.3.04-.44-.14,0-.29.01-.44.02-.15,0-.29.01-.41.02v-.64c.36,0,.65-.02.85-.06.2-.04.36-.08.47-.12.11-.05.19-.1.24-.16h.43c0,.07.01.14.02.2,0,.06,0,.13.01.2,0,.07,0,.17.02.28.18-.14.37-.27.58-.38s.43-.2.65-.27c.23-.07.45-.1.66-.1.71,0,1.23.22,1.54.65.32.43.47,1.11.47,2.03v2.03c0,.14,0,.29-.01.44,0,.15-.02.3-.04.45.13,0,.26-.01.39-.02.13,0,.25,0,.37-.02v.64h-2.68v-.51c.24,0,.41-.06.51-.17.1-.11.16-.27.18-.47.02-.2.03-.43.03-.7v-1.68c0-.63-.11-1.11-.31-1.43-.19-.32-.51-.48-.94-.47-.26,0-.51.06-.76.19-.25.13-.46.28-.63.47v3.27c0,.14,0,.29-.01.44,0,.15-.02.3-.04.45.13,0,.26-.01.39-.02.13,0,.26,0,.37-.02v.64h-2.68Z"/>
  <path class="st0" d="M184.19,79.51c-.02-.13-.03-.24-.04-.34,0-.1-.02-.2-.04-.3-.27.27-.57.48-.88.62-.31.14-.64.21-.98.21-.58,0-1.01-.14-1.3-.43-.29-.28-.44-.64-.44-1.06,0-.37.11-.69.33-.96.22-.27.5-.5.85-.67.35-.17.74-.3,1.15-.38.42-.08.83-.13,1.23-.13v-.71c0-.26-.02-.49-.07-.71-.05-.22-.15-.4-.29-.54-.15-.14-.38-.21-.69-.21-.21,0-.42.03-.63.12-.21.08-.37.22-.48.41.06.06.11.14.13.22.02.08.03.16.03.23,0,.11-.05.24-.14.38-.1.14-.26.21-.49.2-.19,0-.34-.06-.44-.2-.1-.13-.15-.29-.15-.46,0-.29.11-.55.32-.77.21-.22.5-.4.87-.53.37-.13.78-.19,1.24-.19.69,0,1.2.18,1.55.54.34.36.51.93.51,1.71v.83c0,.26,0,.53,0,.79,0,.26,0,.54,0,.84,0,.12,0,.26,0,.41,0,.15-.02.31-.04.48.14,0,.28-.01.42-.02.15,0,.28-.01.41-.01v.64h-1.91ZM184.09,76.62c-.26.02-.52.05-.79.11-.27.06-.51.14-.73.25-.22.11-.39.26-.52.43-.13.18-.2.39-.2.64.01.27.11.47.27.6.16.13.36.19.58.19.28,0,.53-.05.75-.16.22-.11.43-.26.64-.45,0-.09-.01-.18-.01-.27v-.3c0-.07,0-.2,0-.4,0-.19,0-.41,0-.64"/>
  <path class="st0" d="M80.06,42.27c-.45-1.1-.9-2.19-1.34-3.27-.44-1.08-.89-2.17-1.34-3.25-.11-.25-.24-.6-.41-1.06-.17-.46-.34-.98-.52-1.58-.18-.59-.34-1.21-.49-1.84.03.74.05,1.44.06,2.09.01.65.01,1.28,0,1.87v.89c0,.3,0,.6,0,.9,0,.3,0,.59,0,.89v.9c0,.35-.01.7-.03,1.03-.02.33-.04.58-.07.76.23-.03.5-.04.83-.05.32,0,.55,0,.68,0v1.53h-4.52v-1.31c.31-.01.56-.05.76-.12.2-.06.36-.22.47-.46.11-.24.17-.62.17-1.15l.12-7.59c.01-.35.03-.7.04-1.03.01-.33.03-.58.04-.76-.21.01-.48.02-.79.03-.32,0-.55.02-.7.03v-1.53h4.38l2.99,7.67c.12.3.25.66.4,1.06.14.4.28.79.41,1.17.13.38.23.68.3.9h.02c.17-.46.33-.91.47-1.35.15-.44.3-.86.46-1.27.51-1.37,1.03-2.74,1.53-4.11.51-1.36,1.02-2.72,1.54-4.08h4.58v1.31c-.29.01-.55.05-.77.12-.23.07-.39.21-.51.45-.11.23-.16.62-.15,1.16l.3,7.59c.03.35.03.7,0,1.03-.03.33-.05.58-.08.76.23-.03.5-.04.82-.05.32,0,.55,0,.68,0v1.53h-5.51v-1.31c.3-.01.57-.05.78-.12.22-.06.38-.22.49-.46s.16-.62.13-1.15l-.16-4.2c0-.16-.01-.43-.04-.82-.03-.39-.05-.82-.07-1.29-.02-.47-.04-.91-.05-1.32-.04.09-.08.18-.12.27-.04.09-.07.18-.1.27l-3.87,10.33h-1.84Z"/>
  <path class="st0" d="M91.85,40.78c.37,0,.64-.07.79-.22.16-.15.26-.35.31-.63.04-.27.07-.58.07-.92v-3.29c0-.24,0-.51.02-.82.01-.31.03-.61.06-.9-.21.01-.46.02-.74.03-.28,0-.5.02-.64.03v-1.51c.61,0,1.12-.03,1.55-.1.42-.07.76-.15,1-.24.24-.09.41-.18.51-.26h1.07v6.92c0,.18,0,.45-.02.78-.01.34-.03.66-.06.96.21-.03.45-.04.71-.05.26,0,.45,0,.59,0v1.51h-5.2v-1.29ZM94.33,30.39c-.45,0-.82-.16-1.11-.47-.29-.32-.44-.7-.44-1.15s.15-.83.46-1.15c.3-.32.66-.48,1.07-.48s.78.16,1.06.48c.28.32.42.7.42,1.15s-.13.83-.4,1.15c-.26.32-.62.47-1.07.47"/>
  <path class="st0" d="M98.26,42.07v-1.29c.37,0,.64-.07.79-.22.16-.15.26-.35.31-.63.05-.27.07-.58.07-.92v-3.33c0-.24,0-.51.02-.8.01-.3.03-.59.06-.88-.21.01-.46.02-.74.03-.28,0-.5.02-.65.03v-1.51c.61,0,1.12-.03,1.55-.1.42-.07.76-.15,1-.24.24-.09.41-.18.5-.26h.97c.03.17.04.3.04.38s0,.16,0,.23c0,.07.03.2.07.39.26-.21.57-.4.91-.56.34-.17.69-.3,1.03-.4.35-.1.65-.15.91-.15,1.22,0,2.08.35,2.59,1.04.51.69.76,1.81.76,3.34v2.65c0,.18,0,.45-.02.78-.01.34-.03.66-.06.96.23-.02.46-.04.71-.05.25,0,.44,0,.58,0v1.51h-5.19v-1.29c.37,0,.64-.07.8-.22.16-.15.27-.35.32-.63.05-.27.07-.58.07-.92l-.02-2.82c0-.86-.12-1.5-.36-1.91-.24-.41-.66-.62-1.24-.62-.33,0-.66.07-.98.22-.32.15-.6.32-.82.52v4.48c0,.18,0,.45-.02.78-.01.34-.04.66-.06.96.21-.02.45-.04.71-.05.26,0,.45,0,.59,0v1.51h-5.19Z"/>
  <path class="st0" d="M110.86,40.78c.37,0,.63-.07.79-.22.16-.15.26-.35.31-.63.05-.27.07-.58.07-.92v-3.29c0-.24,0-.51.02-.82.01-.31.03-.61.06-.9-.21.01-.46.02-.74.03-.28,0-.5.02-.64.03v-1.51c.61,0,1.12-.03,1.55-.1.42-.07.76-.15,1-.24.24-.09.41-.18.51-.26h1.07v6.92c0,.18,0,.45-.02.78-.01.34-.03.66-.06.96.21-.03.45-.04.71-.05.26,0,.45,0,.59,0v1.51h-5.19v-1.29ZM113.34,30.39c-.45,0-.82-.16-1.11-.47-.29-.32-.44-.7-.44-1.15s.15-.83.46-1.15c.3-.32.66-.48,1.07-.48s.78.16,1.06.48c.28.32.43.7.43,1.15s-.13.83-.4,1.15c-.26.32-.62.47-1.07.47"/>
  <path class="st0" d="M121.79,42.39c-.57,0-1.12-.07-1.66-.22-.54-.14-.97-.33-1.27-.55l.04.59h-1.51l-.08-3.41h1.29c.04.4.2.76.47,1.09.28.33.64.59,1.09.78.45.19.95.29,1.51.29.22,0,.44-.03.64-.1.2-.06.38-.18.52-.33.14-.15.21-.34.21-.57,0-.25-.09-.46-.27-.61-.18-.16-.44-.31-.77-.46-.33-.15-.76-.31-1.26-.5-.41-.16-.82-.32-1.24-.49-.42-.17-.8-.38-1.15-.63-.35-.24-.63-.55-.84-.91-.21-.36-.32-.81-.32-1.34,0-.38.07-.76.22-1.14.15-.38.37-.72.67-1.03.3-.31.69-.56,1.16-.74.47-.18,1.03-.28,1.67-.28.36,0,.76.06,1.22.17.46.11.84.28,1.16.51v-.57h1.51v3.51h-1.29c-.08-.46-.24-.86-.49-1.19-.24-.33-.56-.58-.94-.76-.38-.18-.81-.27-1.29-.27-.33,0-.63.08-.9.24-.27.16-.41.43-.41.81,0,.3.11.54.32.72.21.18.5.33.87.45.37.12.78.26,1.23.41.67.23,1.27.49,1.79.79.52.3.94.67,1.24,1.1.3.43.46.95.46,1.58,0,.69-.17,1.26-.51,1.71-.35.45-.79.79-1.34,1.01-.55.23-1.13.34-1.75.34"/>
  <path class="st0" d="M130.57,42.39c-.4,0-.78-.05-1.15-.14-.37-.09-.7-.27-.99-.53-.29-.26-.52-.64-.69-1.14-.17-.5-.26-1.17-.26-2l.04-4.78h-1.35v-1.65c.41-.01.81-.15,1.19-.41.38-.27.71-.61.98-1.03s.45-.87.54-1.33h1.47l-.02,2.77h2.52v1.53l-2.52.06-.02,4.88c0,.3.03.6.09.9.06.3.18.54.35.73.17.19.42.29.75.29.19,0,.44-.06.76-.2.32-.13.67-.46,1.04-.99l.95.89c-.36.53-.73.94-1.11,1.23-.38.29-.75.5-1.1.63-.35.13-.66.21-.92.24-.26.03-.45.04-.55.04"/>
  <path class="st0" d="M139.62,42.39c-.96,0-1.82-.22-2.56-.65-.74-.43-1.31-1.04-1.72-1.82-.41-.79-.61-1.71-.61-2.79,0-.92.2-1.79.61-2.59.41-.81.99-1.46,1.73-1.95.75-.5,1.61-.74,2.61-.74.55,0,1.1.08,1.63.23.53.15,1.01.41,1.44.78.43.37.77.87,1.03,1.51.26.64.38,1.43.37,2.38l-6.5.12c0,.71.09,1.35.27,1.92.18.57.47,1.02.88,1.35.41.33.96.49,1.65.49.27,0,.57-.05.9-.14.34-.09.68-.25,1.03-.47.35-.22.68-.51.98-.88l.89.83c-.48.67-.99,1.18-1.53,1.54-.54.35-1.08.58-1.62.7-.53.12-1.03.18-1.48.18M137.76,35.47h3.65c-.01-.55-.09-.99-.23-1.32-.14-.32-.33-.56-.57-.7-.24-.15-.51-.22-.83-.22-.58,0-1.04.21-1.37.62-.33.42-.55.95-.65,1.62"/>
  <path class="st0" d="M145.33,40.78c.37,0,.64-.07.79-.22.16-.14.26-.35.31-.62s.07-.58.07-.92v-3.33c0-.24,0-.51.02-.8.01-.3.03-.59.06-.88-.21.01-.46.02-.74.03-.29,0-.5.02-.65.03v-1.51h.79c.52,0,.99-.06,1.42-.2.43-.13.71-.27.84-.4h.97c.03.13.05.38.06.74.01.36.02.69.02.96.35-.44.69-.79,1.01-1.05.32-.26.63-.46.94-.59.31-.12.62-.19.94-.19.46,0,.87.13,1.21.39.35.26.52.68.52,1.26,0,.2-.05.41-.14.62-.09.22-.24.4-.44.55-.2.14-.47.22-.81.22-.26,0-.53-.08-.81-.24-.28-.16-.44-.46-.48-.91-.26,0-.53.11-.79.33-.26.22-.5.48-.71.77-.2.3-.35.57-.42.82v3.23c0,.19,0,.45-.02.78-.01.34-.04.66-.06.96.21-.03.45-.04.71-.05.26,0,.45,0,.59,0v1.51h-5.19v-1.29Z"/>
  <path class="st0" d="M155.03,40.78c.37,0,.63-.07.79-.22.16-.15.26-.35.31-.63.05-.27.07-.58.07-.92v-3.29c0-.24,0-.51.02-.82.01-.31.03-.61.06-.9-.21.01-.46.02-.75.03-.28,0-.5.02-.64.03v-1.51c.61,0,1.12-.03,1.55-.1.42-.07.76-.15,1-.24.24-.09.41-.18.51-.26h1.07v6.92c0,.18,0,.45-.02.78-.01.34-.03.66-.06.96.21-.03.45-.04.71-.05.26,0,.45,0,.59,0v1.51h-5.19v-1.29ZM157.51,30.39c-.45,0-.82-.16-1.11-.47-.29-.32-.44-.7-.44-1.15s.15-.83.46-1.15c.3-.32.66-.48,1.07-.48s.78.16,1.06.48c.28.32.43.7.43,1.15s-.13.83-.4,1.15c-.26.32-.62.47-1.07.47"/>
  <path class="st0" d="M166.05,42.39c-.95,0-1.81-.2-2.58-.61-.77-.41-1.37-1-1.81-1.76-.44-.76-.66-1.65-.66-2.69,0-1.1.23-2.06.68-2.88.46-.82,1.06-1.47,1.82-1.92.76-.46,1.59-.68,2.49-.68.95,0,1.8.21,2.56.61.75.41,1.35,1,1.78,1.76.44.76.65,1.67.65,2.73,0,1.11-.21,2.07-.63,2.89-.42.82-1,1.45-1.75,1.89-.74.44-1.59.66-2.56.66M166.12,40.98c.53-.01.93-.2,1.2-.55.27-.36.46-.81.57-1.35.1-.54.16-1.09.16-1.65,0-.49-.03-.98-.11-1.49-.07-.5-.19-.96-.35-1.37-.16-.41-.37-.74-.64-.99-.27-.25-.6-.37-1-.36-.52.01-.92.2-1.22.55-.3.36-.51.8-.64,1.34-.12.53-.19,1.09-.19,1.68,0,.67.07,1.33.22,1.98.14.65.38,1.18.7,1.6.32.42.76.62,1.3.6"/>
  <path class="st0" d="M76.61,62.21c-.79,0-1.49-.2-2.09-.61-.6-.41-1.07-.99-1.41-1.74-.34-.76-.51-1.64-.51-2.66,0-1.07.21-2.02.62-2.86.41-.83.98-1.49,1.72-1.96.74-.47,1.6-.71,2.58-.71.35,0,.68.04.96.11.29.07.55.16.8.25v-1.31c0-.18,0-.45.02-.79.01-.34.03-.66.06-.95-.21.01-.47.03-.76.04-.29.01-.51.02-.65.02v-1.51c.62,0,1.14-.03,1.55-.1.42-.07.75-.15.99-.24.24-.09.41-.18.51-.26h1.07v11.77c0,.18,0,.45-.02.78-.01.34-.03.66-.06.96.23-.03.46-.04.71-.05.25,0,.44-.01.57-.01v1.51h-3.77c-.01-.14-.03-.3-.05-.46-.02-.16-.04-.31-.07-.46-.44.45-.89.77-1.35.95-.46.19-.94.28-1.45.28M77.64,60.41c.34,0,.66-.09.95-.27.29-.18.52-.41.69-.69v-5.95c-.13-.11-.33-.19-.59-.27-.27-.07-.54-.11-.82-.11-.61.01-1.08.2-1.43.58-.34.37-.59.84-.72,1.41-.14.57-.21,1.16-.21,1.78,0,.55.07,1.1.21,1.65.14.54.36.99.67,1.34.31.35.72.53,1.24.53"/>
  <path class="st0" d="M88.97,62.21c-.97,0-1.82-.22-2.56-.65-.74-.43-1.31-1.04-1.72-1.82-.41-.79-.61-1.71-.61-2.79,0-.92.21-1.79.61-2.59.41-.81.99-1.46,1.74-1.95.75-.5,1.61-.74,2.6-.74.56,0,1.1.08,1.63.23.53.15,1.01.41,1.44.78.43.37.77.87,1.03,1.51.26.64.38,1.43.37,2.38l-6.5.12c0,.71.09,1.35.27,1.92.18.57.47,1.02.88,1.35.41.33.96.49,1.65.49.26,0,.57-.05.9-.14.34-.09.68-.25,1.03-.47.35-.22.68-.51.98-.88l.89.83c-.47.67-.99,1.18-1.53,1.54-.54.35-1.08.58-1.62.7-.53.12-1.03.18-1.48.18M87.1,55.29h3.65c-.01-.55-.09-.99-.23-1.32-.14-.32-.33-.56-.57-.7-.24-.15-.52-.22-.83-.22-.58,0-1.04.21-1.37.62-.33.42-.55.95-.65,1.62"/>
  <path class="st0" d="M108.33,52.46c-.12-.74-.33-1.36-.63-1.85-.3-.49-.69-.87-1.16-1.12-.47-.25-1.01-.37-1.64-.36-.57,0-1.07.16-1.5.48-.43.32-.65.73-.65,1.23,0,.41.12.77.35,1.07.23.3.58.59,1.06.85.47.26,1.08.55,1.81.85.5.2,1.02.43,1.54.69.53.26,1.02.58,1.47.94.45.36.81.79,1.09,1.27.28.48.41,1.05.41,1.7,0,.78-.21,1.47-.63,2.08-.42.61-1.01,1.08-1.77,1.42-.76.34-1.65.5-2.67.5-.53,0-1.1-.08-1.71-.25-.61-.17-1.19-.41-1.73-.72l.06.83h-1.53v-4.64h1.31c.18,1.11.61,1.95,1.28,2.51.67.56,1.46.84,2.39.84.47,0,.89-.09,1.25-.26.35-.17.63-.4.83-.68.2-.28.3-.59.3-.92,0-.46-.16-.85-.49-1.15-.32-.3-.73-.56-1.21-.77-.48-.21-.98-.41-1.48-.61-.64-.27-1.23-.54-1.77-.84-.55-.3-1.03-.64-1.44-1.02-.41-.38-.73-.82-.95-1.32-.22-.5-.34-1.07-.34-1.71,0-.41.08-.83.24-1.28.16-.44.42-.85.77-1.23.36-.38.83-.68,1.43-.92.59-.24,1.33-.36,2.2-.36.53,0,1.11.08,1.73.24s1.17.4,1.62.71l-.08-.81h1.55v4.62h-1.31Z"/>
  <path class="st0" d="M117.49,61.89c-.03-.18-.04-.34-.05-.47,0-.12-.02-.27-.03-.45-.45.45-.93.77-1.43.95-.5.18-1.01.28-1.53.28-.84,0-1.51-.25-1.98-.75-.47-.5-.71-1.13-.71-1.88,0-.63.16-1.18.49-1.63.32-.45.75-.82,1.29-1.1.53-.28,1.13-.5,1.78-.65.65-.15,1.31-.24,1.97-.27v-1.03c0-.34-.04-.65-.13-.93-.09-.28-.23-.5-.43-.65-.21-.16-.49-.23-.86-.22-.25.01-.5.06-.73.16-.24.09-.44.23-.61.4.11.12.17.25.2.39.03.14.04.26.04.37,0,.26-.11.54-.32.82-.21.29-.55.42-1.01.41-.4-.01-.7-.15-.91-.42-.21-.26-.32-.57-.32-.93,0-.53.19-.99.56-1.38.38-.39.88-.7,1.52-.91.64-.22,1.33-.33,2.1-.33,1.16,0,2.06.3,2.71.9.64.6.96,1.56.96,2.88v1.15c0,.32,0,.64,0,.95,0,.32,0,.7,0,1.15,0,.19,0,.45-.02.78-.01.34-.03.66-.06.96.23-.03.46-.04.71-.05.25,0,.44,0,.57,0v1.51h-3.75ZM117.28,57.34c-.37.04-.72.11-1.05.2-.33.09-.62.22-.86.38-.24.16-.44.35-.58.57-.14.23-.21.48-.21.76.01.37.13.63.35.79.23.16.48.24.77.24.3,0,.59-.06.85-.2.27-.13.5-.3.71-.52v-2.22Z"/>
  <path class="st0" d="M122.23,60.61c.37,0,.64-.07.8-.22.16-.14.27-.35.3-.63.04-.27.06-.58.06-.92v-8.15c0-.24,0-.51.02-.82.01-.31.03-.61.06-.9-.21.01-.46.02-.74.03-.29,0-.5.02-.65.03v-1.51c.62,0,1.14-.03,1.56-.1.42-.07.75-.15.99-.24.24-.09.41-.18.51-.26h1.07v11.77c0,.19,0,.45-.02.78-.01.34-.03.66-.06.96.23-.03.46-.04.71-.05.25,0,.44,0,.58,0v1.51h-5.19v-1.29Z"/>
  <path class="st0" d="M132.42,62.21c-.79,0-1.43-.15-1.91-.46-.48-.3-.83-.78-1.05-1.43-.22-.65-.33-1.48-.33-2.5v-2.28c0-.24,0-.51.02-.82.01-.31.03-.61.04-.9-.21.01-.46.02-.74.03-.28,0-.5.01-.64.03v-1.51h.2c.82,0,1.47-.06,1.94-.2.48-.13.78-.26.91-.4h1.09v6.06c0,.86.11,1.5.34,1.91.22.42.58.62,1.07.62.35,0,.69-.1,1.04-.29.35-.19.64-.41.86-.66v-3.89c0-.24,0-.51.02-.82.01-.31.03-.61.06-.9-.21.01-.46.02-.74.03-.28,0-.5.01-.65.03v-1.51h.48c.62,0,1.17-.07,1.65-.21.47-.14.78-.27.91-.39h1.09v6.92c0,.18,0,.45-.02.78-.01.34-.03.66-.06.96.21-.03.45-.04.7-.05.26,0,.45-.01.59-.01v1.51h-3.77c-.01-.17-.03-.35-.05-.52-.02-.17-.04-.34-.07-.52-.41.34-.85.65-1.32.93-.47.28-1.02.41-1.65.41"/>
  <path class="st0" d="M144.12,62.21c-.79,0-1.49-.2-2.09-.61-.6-.41-1.07-.99-1.41-1.74-.34-.76-.51-1.64-.51-2.66,0-1.07.21-2.02.61-2.86.41-.83.99-1.49,1.73-1.96.74-.47,1.6-.71,2.58-.71.35,0,.68.04.96.11.29.07.55.16.8.25v-1.31c0-.18,0-.45.02-.79.01-.34.03-.66.06-.95-.21.01-.47.03-.76.04-.29.01-.51.02-.65.02v-1.51c.62,0,1.14-.03,1.55-.1.42-.07.75-.15.99-.24.24-.09.41-.18.51-.26h1.07v11.77c0,.18,0,.45-.02.78-.01.34-.04.66-.06.96.23-.03.46-.04.71-.05.25,0,.44-.01.58-.01v1.51h-3.77c-.01-.14-.03-.3-.05-.46-.02-.16-.04-.31-.07-.46-.44.45-.89.77-1.35.95-.46.19-.94.28-1.45.28M145.16,60.41c.34,0,.66-.09.95-.27.29-.18.52-.41.69-.69v-5.95c-.13-.11-.33-.19-.59-.27-.26-.07-.53-.11-.81-.11-.61.01-1.08.2-1.43.58-.34.37-.59.84-.72,1.41-.14.57-.21,1.16-.21,1.78,0,.55.07,1.1.21,1.65.14.54.36.99.67,1.34.31.35.72.53,1.24.53"/>
  <path class="st0" d="M34.08,82.37c-11.79,0-21.38-13.51-21.38-30.12s9.59-30.12,21.38-30.12,21.38,13.51,21.38,30.12-9.59,30.12-21.38,30.12M34.08,22.71c-11.47,0-20.8,13.25-20.8,29.54s9.33,29.54,20.8,29.54,20.8-13.25,20.8-29.54-9.33-29.54-20.8-29.54"/>
  <rect class="st0" x="12.79" y="51.3" width="42.62" height=".28"/>
  <rect class="st0" x="13.08" y="46.94" width="42.04" height=".28"/>
  <path class="st0" d="M27.43,42.55s0,0,0-.01h-13.38v.28h13.5c-.05-.08-.09-.17-.12-.27"/>
  <path class="st0" d="M41.22,42.54c-.06.11-.13.21-.23.28h13.16v-.28h-12.94Z"/>
  <path class="st0" d="M40.31,38.18c.05.1.1.2.15.28h12.16v-.28h-12.31Z"/>
  <path class="st0" d="M28.13,38.18h-12.54v.28h12.38c.06-.09.11-.19.16-.28"/>
  <path class="st0" d="M37.87,33.79c.06.09.12.18.18.28h12.69v-.28h-12.87Z"/>
  <path class="st0" d="M27.49,33.79h-10.02v.28h9.74c.09-.1.18-.2.29-.28"/>
  <rect class="st0" x="20.63" y="29.38" width="26.94" height=".28"/>
  <rect class="st0" x="24.95" y="25.02" width="18.3" height=".28"/>
  <path class="st0" d="M52.49,67.2c.18-.43.4-1.11.64-1.96-.29.87-.49,1.51-.64,1.96"/>
  <path class="st0" d="M52.14,67.73c-.83-.11-6.62-2.57-8-3.61-.24-.18-.51-.4-.8-.64-1.06-.88-2.17-1.94-2.83-2.57-.19-.18-.35-.33-.45-.43-.55-.51-3.14-1.83-4.27-1.83-.05,0-.11,0-.15.01-.58.08-1.07.36-1.55.64-.33.19-.65.38-.98.48-.84.26-1.95.24-2.11.16-.1-.07-.32-.26-.24-.44.12-.27.9-.61,1.28-.77.39-.17.95-.6,1.5-1.03.45-.35.92-.71,1.15-.81.48-.19,1.54-.21,2.11-.16.8.07,5.39,1.29,7.67,2.04,2.13.7,8.53,1.18,9.88,1.27-.41,1.97-.83,3.81-1.22,5.2.13-.4.28-.84.45-1.34.66-1.96,1.04-4.24,1.04-4.24-.08,0-7.73-.52-10.02-1.27-2.35-.77-6.93-1.98-7.77-2.06-.58-.05-1.71-.05-2.29.18-.05.02-.12.06-.18.09-.63-.2-2.18-.33-2.73-.28-.84.08-5.41,1.29-7.76,2.06-2.29.75-9.95,1.27-10.02,1.27l-.24.02.06.23s.35,2.28,1.01,4.3c1.25,3.84,1.48,4.32,1.75,4.32.03,0,4.43-1.97,7.04-3.45,1.02-.58,2.99-1.62,3.59-1.75l.32-.59c-.69.15-3.92,1.78-4,1.84-3.44,1.7-5.85,2.94-6.95,3.34-.63.22-2.47-7.89-2.32-7.89,0,0,7.75-.57,9.88-1.27,2.28-.75,6.88-1.97,7.68-2.04.43-.04,1.57.04,2.25.18-.19.14-.4.3-.62.47-.5.39-1.07.83-1.41.98-.83.36-1.34.63-1.49.98-.13.31,0,.66.37.92.32.23,1.7.13,2.46-.1.37-.12.72-.32,1.06-.51.44-.26.9-.52,1.4-.59.82-.11,3.54,1.2,4.1,1.72.1.1.26.24.45.42.66.64,1.78,1.7,2.85,2.59.29.24.57.46.81.65,1.34,1.01,7.24,3.74,8.24,3.87.01,0,.07-.22.35-1.11-.14.32-.26.51-.35.53"/>
  <path class="st0" d="M47.64,26.15h0s-6.28-2.23-6.28-2.23l-.02.04c.27.14.54.29.84.46l5.53,1.95.06.02-.03-.05c-.03-.07-.07-.13-.1-.2"/>
  <path class="st0" d="M52.63,20.2l-10.28-.69h0s.09-.03.13-.05c.22-.08.45-.17.73-.3.13-.06.27-.13.38-.18h0c.1-.06.19-.1.28-.14.42-.21.83-.36,1.22-.45.41-.1.82-.13,1.28-.11.13,0,.27.01.42.03h.01c.09,0,.18.01.28.02.26.01.54.03.84-.02.54-.09.95-.31,1.35-.52h0c.05-.03.1-.06.16-.08.39-.21.8-.43,1.22-.56.41-.12.84-.15,1.26-.09.22.02.42-.12.46-.33.02-.11,0-.22-.06-.31s-.16-.15-.27-.17c-.53-.1-1.09-.09-1.61.02-.52.12-1,.33-1.45.54-.19.09-.42.19-.63.27-.11.04-.21.07-.3.1h0s-.08.02-.12.03h-.04s-.06.02-.09.02h0c-.23.02-.53-.02-.83-.06-.15-.02-.32-.04-.5-.06-.55-.06-1.1-.05-1.61.04-.5.08-1.01.24-1.53.45-.11.05-.21.09-.3.12h-.02c-.11.06-.22.1-.34.15-.24.09-.44.16-.62.21-.15.05-.31.08-.47.1l-.03-.09,9.64-4.79c.15-.08.18-.23.13-.35-.05-.12-.18-.21-.34-.15l-9.68,3.59h0c.07-.06.15-.13.22-.2.18-.16.35-.33.56-.57.09-.1.18-.21.28-.31h0c.07-.09.14-.17.2-.24.3-.35.62-.65.95-.89.34-.25.71-.45,1.13-.6.13-.05.27-.1.41-.14h.01c.08-.03.17-.06.25-.09.25-.09.51-.19.77-.35.47-.3.76-.66,1.04-1l.02-.02s.06-.08.1-.12c.27-.35.57-.71.91-.99.33-.27.71-.46,1.13-.58.21-.06.34-.27.29-.48-.02-.11-.09-.2-.18-.26-.09-.06-.2-.08-.31-.06-.53.12-1.04.34-1.48.65-.43.31-.79.7-1.12,1.07-.14.16-.31.34-.47.5-.09.08-.16.14-.24.2h0s-.06.05-.09.07h-.01s-.02.02-.03.03c-.03.02-.05.03-.08.05h0c-.21.12-.49.2-.79.28-.16.04-.32.09-.48.14-.53.16-1.03.39-1.47.67-.42.27-.84.61-1.23,1.01-.09.09-.17.17-.24.25-.09.09-.17.17-.26.26-.19.18-.35.32-.49.44-.14.12-.3.23-.45.31h0l-.04-.05,7.05-8.24c.11-.13.07-.29-.02-.37-.09-.09-.25-.12-.37,0l-7.51,7.08h0c.04-.09.09-.18.13-.27.1-.22.19-.44.29-.74.05-.13.09-.26.13-.39h0c.03-.12.07-.22.1-.31.14-.44.32-.85.53-1.19.21-.36.47-.69.8-1,.1-.1.21-.19.32-.29l.02-.02c.06-.06.12-.11.19-.17.19-.18.4-.37.57-.62.31-.46.44-.9.56-1.33.02-.06.03-.12.05-.18.12-.43.25-.88.45-1.27.2-.38.48-.71.81-.98.17-.14.2-.38.08-.56-.06-.09-.16-.15-.27-.17-.11-.02-.22,0-.31.07-.44.31-.82.72-1.11,1.18-.28.46-.46.96-.62,1.42-.07.2-.15.43-.24.64-.05.1-.09.19-.14.28h0s-.04.07-.06.11l-.02.04s-.03.05-.06.08h0c-.15.19-.38.37-.62.57h0c-.12.1-.25.2-.38.31-.42.35-.8.76-1.09,1.19-.29.41-.53.89-.74,1.41-.05.12-.09.22-.13.32v.03c-.05.1-.09.21-.14.32-.1.24-.19.43-.28.59-.09.18-.2.35-.32.49l-.02.02s-.06-.03-.1-.05l3.63-10.3c.06-.16-.04-.29-.15-.34-.12-.05-.27-.02-.35.13l-4.16,8.73h0c0-.13,0-.26-.02-.41,0-.13-.02-.27-.03-.41h0c-.01-.12-.02-.23-.03-.33-.05-.46-.04-.9.02-1.3.06-.41.17-.82.35-1.24.05-.12.11-.25.18-.39.04-.08.08-.17.12-.26.11-.24.22-.5.28-.8.11-.54.05-1,0-1.44v-.02c0-.06-.01-.11-.02-.16-.06-.44-.12-.9-.08-1.34.04-.43.16-.83.37-1.22.1-.19.04-.43-.15-.54-.09-.06-.2-.08-.31-.05-.11.03-.2.09-.26.18-.28.46-.47.98-.56,1.52-.08.53-.05,1.06-.01,1.55.02.23.03.47.03.68,0,.12,0,.22-.02.31h0s0,.08-.02.12h0s0,.03,0,.04c0,.03-.01.06-.02.09h0c-.06.24-.2.5-.35.77-.07.13-.16.29-.23.44-.25.49-.44,1.02-.54,1.52-.1.49-.14,1.03-.12,1.59,0,.11,0,.2,0,.29v.08c0,.12,0,.23,0,.34,0,.26,0,.47-.03.66-.01.2-.05.4-.1.58,0,.03-.02.06-.03.1h0s-.08,0-.12-.01l-.64-10.8c-.01-.17-.14-.25-.27-.25s-.26.09-.27.26l-.48,10.32h0c-.03-.1-.06-.19-.09-.29-.08-.22-.17-.45-.3-.73-.05-.12-.11-.23-.18-.36l-.02-.03c-.05-.09-.09-.18-.13-.26-.21-.42-.36-.83-.45-1.23-.1-.41-.13-.82-.11-1.28,0-.13.01-.27.02-.41v-.06c0-.08.02-.16.02-.25.02-.26.03-.54-.02-.84-.09-.55-.31-.95-.52-1.35-.03-.06-.06-.11-.09-.16-.21-.39-.43-.8-.56-1.23-.12-.41-.15-.83-.1-1.26.03-.22-.12-.42-.33-.46-.11-.02-.22,0-.31.06-.09.06-.15.16-.18.26-.1.53-.09,1.09.02,1.62.12.52.34,1,.54,1.45.09.19.19.42.28.63.04.11.07.21.09.3h0s.02.08.02.12v.05s.02.06.02.09h0c.02.25-.01.54-.06.85-.02.16-.05.32-.06.5-.06.54-.05,1.1.05,1.61.08.49.23,1.01.45,1.53.05.12.09.22.13.32h0c.05.12.09.23.14.35.09.24.16.44.21.63.06.19.1.39.11.57h0s-.05.02-.05.02l-4.83-9.75c-.08-.15-.23-.18-.35-.13-.12.05-.21.18-.15.34l3.58,9.69h0c-.06-.08-.12-.15-.19-.23-.15-.17-.33-.35-.56-.56-.1-.09-.21-.18-.3-.26l-.04-.03c-.08-.07-.15-.13-.22-.19-.35-.3-.65-.62-.89-.95-.25-.34-.44-.71-.6-1.13-.05-.13-.1-.27-.14-.4-.03-.09-.06-.18-.09-.27-.09-.25-.19-.51-.35-.77-.3-.47-.65-.76-1-1.04-.05-.04-.09-.08-.14-.12-.35-.27-.71-.57-.99-.91-.27-.33-.46-.71-.58-1.13-.06-.21-.27-.34-.48-.29-.11.02-.2.09-.26.18-.06.09-.08.2-.06.31.11.53.34,1.04.65,1.48.31.44.7.8,1.07,1.13.17.15.34.31.5.47.08.08.14.16.2.24h0s.04.07.06.1l.03.04s.04.05.05.08h0c.12.22.19.5.27.8h0c.04.16.08.32.13.48.16.53.39,1.03.67,1.47.27.42.61.84,1.01,1.23.08.08.16.16.23.23l.02.02c.09.09.17.17.26.26.18.19.32.35.44.49.13.15.24.32.33.48.01.02.02.04.03.06l-.02.02-8.3-7.12c-.13-.11-.28-.07-.37.02-.09.09-.12.25,0,.37l7.07,7.52h0c-.09-.05-.18-.09-.27-.13-.21-.1-.44-.19-.74-.29-.12-.04-.25-.08-.39-.13h-.03c-.1-.04-.2-.07-.28-.1-.44-.14-.85-.32-1.19-.53-.36-.21-.69-.47-1-.81-.1-.1-.2-.22-.29-.31-.06-.07-.12-.14-.19-.21-.18-.19-.37-.4-.62-.57-.46-.31-.9-.44-1.33-.56h-.02c-.05-.02-.1-.04-.15-.05-.43-.12-.88-.24-1.27-.45-.38-.2-.7-.48-.97-.81-.14-.17-.38-.2-.56-.08-.18.13-.23.39-.1.58.31.44.72.82,1.18,1.11.46.28.95.46,1.42.62.2.07.43.15.64.24.11.05.19.09.28.14h0s.07.04.1.06l.04.02s.05.04.07.06h0c.19.15.37.38.56.63.1.12.2.26.31.39.35.42.76.8,1.19,1.09.41.29.89.53,1.41.74.12.05.22.09.32.13.12.05.23.09.34.14.24.11.43.19.59.28.18.09.35.2.49.32.02.02.05.04.07.06l-.04.07-10.34-3.65c-.16-.05-.29.04-.34.16-.05.12-.02.27.13.35l8.72,4.16h0c-.12,0-.25,0-.41.02-.13,0-.27.02-.4.03h-.03c-.11.01-.21.02-.3.03-.47.05-.9.04-1.3-.02-.41-.05-.82-.17-1.23-.35-.12-.06-.25-.11-.38-.18h0c-.08-.04-.17-.08-.26-.12-.24-.11-.5-.22-.8-.28-.54-.11-1-.05-1.44,0h-.04s-.1.02-.14.02c-.44.06-.9.12-1.34.08-.42-.04-.83-.16-1.21-.36-.19-.1-.43-.04-.54.15-.06.09-.08.2-.05.31.02.11.09.2.18.26.46.29.98.48,1.52.56.53.08,1.06.05,1.55.01.21-.01.45-.03.67-.03h0c.12,0,.22,0,.31.02h0s.08,0,.12.02h.04s.06.02.09.03h0c.23.07.48.21.76.36h0c.14.08.28.16.43.24.49.25,1.01.44,1.52.54.49.1,1.03.14,1.59.12.13,0,.24,0,.35,0,.12,0,.24,0,.36,0,.26,0,.47,0,.66.03.2.01.4.05.58.1.04,0,.07.02.11.04h0s-.01.08-.01.12l-10.8.64c-.17.01-.26.15-.25.27,0,.13.09.26.26.27l10.31.48h0c-.09.03-.19.06-.28.09-.22.08-.45.17-.73.3-.13.06-.27.13-.38.18h0c-.1.05-.19.1-.28.14-.42.21-.83.36-1.22.45-.41.1-.82.13-1.28.11-.14,0-.28-.01-.42-.03h-.05c-.08,0-.16-.01-.24-.02-.26-.02-.54-.03-.84.02-.55.09-.95.31-1.35.52-.06.03-.11.06-.16.08-.39.21-.8.43-1.22.56-.41.12-.83.15-1.26.1-.22-.03-.42.12-.46.33-.02.11,0,.22.06.31.06.09.16.15.26.17.53.1,1.09.09,1.62-.02.52-.12,1-.33,1.45-.54.19-.09.42-.19.63-.27.11-.04.2-.07.3-.1h0s.08-.02.12-.03h.01s.02,0,.03,0c.03,0,.06-.01.09-.01h0c.24-.02.53.02.84.06h0c.16.02.32.05.49.06.55.06,1.1.05,1.61-.04.49-.08,1.01-.24,1.53-.46.11-.04.2-.08.3-.12h.02c.12-.06.23-.1.34-.15.24-.09.44-.16.62-.21.18-.06.37-.09.54-.11,0,.02.01.04.02.06l-5.56,2.76h-.03s.02.04.02.04h0s.04.09.01.13l-.03.06,5.79-2.88h.02s-.02-.09-.02-.09c-.02-.07-.04-.15-.06-.22l-.02-.08h-.08s-.04,0-.06,0c-.19.02-.41.06-.61.12-.18.05-.39.12-.64.22-.12.04-.23.09-.34.14h0c-.1.04-.2.09-.32.13-.51.21-1.01.36-1.49.44-.49.09-1.03.1-1.56.04-.17-.02-.34-.04-.49-.06h0c-.31-.04-.61-.09-.87-.06-.05,0-.09,0-.12.02h-.04s-.09.02-.14.04c-.11.03-.22.07-.31.1-.22.08-.45.19-.65.28-.44.21-.91.42-1.41.53-.5.11-1.03.12-1.53.02-.06,0-.1-.04-.13-.09-.03-.05-.04-.1-.03-.16.02-.11.12-.18.23-.17.46.06.91.02,1.35-.1.45-.13.87-.35,1.26-.57.05-.02.09-.05.13-.07h.03c.38-.22.77-.43,1.28-.51.28-.05.55-.04.8-.02.1,0,.19.01.28.02h0c.15,0,.29.02.43.02.47.02.91-.01,1.33-.12.41-.1.83-.25,1.26-.47.08-.04.17-.08.27-.13h.02c.12-.07.25-.13.37-.19.28-.13.5-.22.72-.3.26-.1.52-.16.79-.21h.09s-.02-.25-.02-.25l-10.94-.52c-.06,0-.07-.05-.07-.07,0-.02,0-.06.06-.07l10.95-.65h.02s0-.09,0-.09c0-.09.02-.17.03-.26v-.04s-.04-.07-.04-.07h-.03c-.05-.04-.12-.07-.2-.09-.19-.06-.4-.09-.61-.11-.19-.02-.41-.03-.68-.03-.13,0-.25,0-.37,0-.11,0-.22,0-.35,0-.55.02-1.07-.02-1.55-.12-.49-.1-1-.27-1.47-.52-.15-.08-.3-.16-.43-.23-.28-.15-.55-.3-.8-.37-.04-.01-.08-.02-.12-.03h-.04s-.09-.03-.14-.03c-.11-.01-.21-.02-.33-.02h-.01c-.23,0-.48.01-.69.03-.48.03-1,.06-1.51-.01-.51-.08-1-.26-1.44-.53-.05-.03-.08-.07-.09-.13-.01-.06,0-.11.03-.16.06-.1.18-.13.27-.08.41.22.84.35,1.29.39.46.04.94-.02,1.38-.08.04,0,.08,0,.12-.01h.06c.42-.06.86-.12,1.37-.01.28.06.53.17.75.27.09.04.17.08.25.12h.01c.13.06.26.13.39.18.43.19.85.31,1.28.37.41.06.87.06,1.35.02.09,0,.2-.01.31-.03.13-.01.28-.03.42-.04.3-.02.54-.02.77-.02h.04l.51.02-9.56-4.57c-.05-.03-.04-.07-.03-.09,0-.02.03-.06.09-.04l10.48,3.7h.02s.04-.07.04-.07c0,0,.08-.14.12-.22l.03-.06-.05-.05s-.08-.08-.14-.13c-.15-.12-.33-.24-.52-.34-.17-.09-.36-.18-.61-.29-.12-.05-.23-.09-.33-.13h-.02c-.1-.05-.2-.09-.31-.13-.51-.2-.98-.44-1.38-.72-.41-.28-.81-.64-1.15-1.05-.11-.13-.22-.26-.31-.38-.2-.25-.38-.49-.59-.66-.03-.03-.07-.06-.1-.07l-.04-.03s-.07-.05-.12-.07c-.1-.06-.21-.11-.29-.15-.22-.09-.46-.18-.66-.25-.46-.16-.94-.33-1.38-.6-.43-.27-.82-.63-1.12-1.05-.07-.09-.05-.23.05-.29.09-.06.21-.05.28.04.29.36.64.65,1.04.87.41.21.87.35,1.31.47.05.01.1.03.15.04h.02c.41.12.84.25,1.27.54.23.16.42.36.59.54.06.07.12.14.18.21.1.12.2.22.3.33.32.34.66.62,1.04.84.36.22.77.4,1.23.54.09.03.19.06.3.1h.02c.12.04.26.09.38.13.29.1.51.19.72.29.26.12.5.25.72.41.02.02.05.04.08.06l.08.06.14-.17-7.59-8.06s-.01-.08,0-.1c.01-.01.05-.04.09,0l8.41,7.22h.01s.07-.04.07-.04c.05-.04.1-.08.14-.12l.06-.05-.02-.07c-.02-.05-.04-.1-.07-.15-.09-.17-.21-.35-.35-.51-.12-.15-.26-.31-.45-.51-.09-.09-.17-.18-.26-.26h0c-.08-.08-.16-.16-.24-.25-.39-.38-.73-.79-.99-1.2-.27-.42-.49-.91-.65-1.42-.05-.16-.1-.32-.13-.47h0c-.08-.32-.16-.61-.29-.84-.02-.05-.04-.08-.06-.11l-.02-.04s-.05-.07-.08-.12c-.07-.09-.15-.18-.21-.25-.17-.17-.35-.34-.51-.48-.36-.32-.74-.67-1.04-1.09-.3-.42-.51-.9-.62-1.41-.01-.06,0-.11.03-.16.03-.05.08-.08.13-.09.11-.02.22.04.25.15.12.44.34.85.62,1.2.29.36.66.66,1.02.94.05.04.1.08.14.12.33.27.68.55.96.99.15.24.24.49.33.73.03.09.06.17.09.26h0c.05.14.09.29.15.42.16.44.37.83.63,1.18.25.34.56.67.92.98.08.07.16.14.24.21h0c.1.09.21.18.3.27.23.21.4.38.55.54.2.21.36.42.51.66,0,.02.02.03.03.05l.05.08.2-.11-3.82-10.36c-.02-.06.02-.08.04-.09.02,0,.06-.02.09.03l4.9,9.88v.02s.09-.03.09-.03c.07-.02.14-.04.21-.06l.07-.02v-.08s0-.07,0-.1c-.02-.2-.06-.41-.12-.61-.05-.19-.12-.39-.22-.64-.04-.11-.08-.21-.13-.31l-.02-.06c-.04-.09-.08-.19-.12-.29-.21-.51-.36-1.01-.44-1.49-.09-.49-.1-1.03-.04-1.56.02-.17.04-.33.06-.49.05-.32.09-.62.06-.88,0-.05,0-.09-.01-.12,0,0,0-.02,0-.03v-.02s-.01-.09-.03-.14c-.02-.1-.06-.19-.1-.31-.08-.22-.19-.45-.28-.65-.21-.44-.42-.91-.53-1.41-.11-.5-.12-1.03-.02-1.54,0-.05.04-.1.09-.13.05-.03.1-.04.16-.03.11.02.18.12.17.23-.06.46-.02.91.1,1.35.13.44.35.87.57,1.26.03.05.06.11.09.16.2.38.41.77.5,1.28.05.28.03.55.02.8,0,.1-.01.19-.02.28-.01.15-.02.29-.03.43-.02.47.02.91.12,1.33.09.41.25.83.47,1.26.04.09.09.18.14.29.06.12.12.25.18.37.13.28.22.5.29.72.1.27.17.53.21.8l.02.1.23-.02.52-10.97c0-.06.05-.06.07-.07.02,0,.06,0,.07.06l.65,10.95v.02s.09,0,.09,0c.09,0,.19.02.28.03h.07s.03-.06.03-.06c.02-.05.05-.12.07-.2.05-.19.09-.4.11-.61.02-.19.03-.41.03-.68,0-.12,0-.23,0-.37v-.02c0-.1,0-.2,0-.32-.02-.55.02-1.07.12-1.55.09-.49.27-1,.52-1.47.08-.15.16-.3.23-.43.16-.28.3-.55.37-.8.02-.05.02-.08.03-.12v-.04s.03-.09.03-.14c.01-.11.02-.21.02-.33,0-.24-.01-.49-.03-.71-.04-.48-.06-1,0-1.51.08-.5.26-1,.53-1.44.03-.05.08-.08.13-.1.05-.01.11,0,.16.03.09.06.13.18.07.28-.22.41-.35.84-.39,1.29-.04.46.02.94.08,1.38,0,.04,0,.08.02.12v.06c.06.43.12.87.01,1.38-.06.28-.17.53-.27.76-.04.09-.08.17-.12.25v.02c-.07.12-.13.25-.18.38-.19.43-.31.85-.37,1.29-.06.41-.06.87-.02,1.35,0,.1.02.2.03.32.01.16.03.29.04.41.02.31.02.54.02.78,0,.02,0,.04,0,.07v.49s4.55-9.58,4.55-9.58c.03-.05.07-.04.09-.03.02,0,.06.03.04.08l-3.68,10.46v.02s.07.04.07.04c.08.04.16.08.24.12l.07.04.05-.05s.06-.06.09-.1c.12-.16.24-.34.34-.52.09-.17.18-.37.29-.61.05-.11.09-.21.13-.32l.02-.05c.04-.09.07-.19.12-.3.2-.51.44-.98.71-1.38.28-.41.64-.81,1.05-1.15.12-.11.26-.21.37-.3h0c.25-.21.49-.39.65-.6.03-.03.06-.07.07-.1l.02-.03s.05-.07.07-.12c.06-.1.11-.2.14-.29h0c.09-.22.17-.45.25-.67.16-.46.33-.94.6-1.38.27-.44.63-.82,1.05-1.12.05-.03.1-.05.16-.04.06,0,.1.04.14.09.06.09.05.21-.04.28-.36.29-.65.64-.86,1.04-.22.41-.35.87-.47,1.31l-.05.17h0c-.12.42-.24.85-.53,1.28-.16.23-.36.42-.54.59-.06.05-.11.1-.16.15l-.05.04c-.1.09-.22.19-.32.29-.35.33-.62.67-.84,1.04-.22.36-.4.77-.54,1.23-.03.08-.06.18-.09.27v.03c-.05.14-.1.27-.14.39-.1.29-.19.51-.29.72-.12.26-.25.5-.41.72,0,0,0,0-.01.02l-.06.09.18.14,8-7.55s.08-.01.09,0,.04.05,0,.09l-7.15,8.35h-.01s.06.08.06.08c.05.06.1.12.15.18l.05.06.07-.03s.04-.02.05-.03c.17-.09.35-.21.51-.35.15-.12.31-.26.51-.45.1-.09.18-.18.26-.26.08-.08.16-.16.24-.25.38-.39.78-.73,1.19-.99.42-.27.91-.5,1.42-.65.16-.05.33-.1.47-.14.31-.08.6-.16.83-.29.05-.02.08-.04.11-.06l.03-.02s.08-.05.12-.08c.09-.06.16-.13.25-.21.17-.16.34-.35.48-.51.32-.36.67-.74,1.09-1.04.42-.29.9-.51,1.41-.62.06-.01.11,0,.16.03.05.03.08.08.09.13.02.11-.04.22-.14.24-.44.13-.85.34-1.2.62-.36.29-.66.67-.94,1.02-.03.03-.05.06-.08.1l-.04.05c-.27.34-.55.68-.99.96-.24.15-.49.25-.73.33-.09.03-.18.06-.27.09-.15.05-.28.1-.41.15-.44.16-.83.37-1.18.63-.34.25-.67.56-.98.92-.06.06-.12.14-.18.21l-.02.03c-.08.1-.18.21-.27.31-.21.23-.38.4-.54.55-.2.18-.4.34-.62.48l-.08.05.12.21,10.24-3.79c.06-.02.08.02.09.04,0,.02.02.06-.03.09l-9.77,4.86h-.02s.03.09.03.09c.02.08.05.16.07.25l.02.08h.09c.19-.03.39-.07.58-.13.18-.05.39-.12.64-.22.11-.04.22-.09.34-.14h.01c.1-.05.2-.09.31-.13.51-.21,1.01-.36,1.49-.44.49-.09,1.03-.1,1.56-.04.17.01.33.04.48.06h0c.32.05.62.09.88.06.05,0,.09,0,.12-.02h.04s.09-.02.14-.04c.1-.02.2-.06.31-.1.22-.09.45-.19.65-.28.44-.21.91-.42,1.41-.53.5-.11,1.03-.12,1.53-.02.06,0,.1.04.13.09.03.05.04.1.03.16-.02.11-.12.18-.23.17-.46-.06-.91-.02-1.35.1-.44.13-.87.35-1.26.57-.05.02-.09.05-.14.07h-.02c-.38.22-.77.43-1.28.51-.28.05-.55.04-.8.02-.1,0-.19-.01-.29-.02-.15-.01-.29-.02-.43-.02-.47-.02-.91.01-1.33.12-.41.09-.83.25-1.26.47-.09.04-.18.08-.27.13h-.03c-.11.07-.24.13-.36.19-.28.13-.5.22-.72.3-.23.08-.46.15-.69.19l-.09.02.02.19,10.96.73c.06,0,.06.05.06.07s0,.07-.06.07l-10.95.44v.09c-.02.13-.03.26-.05.38v.08s.06.03.06.03c.03,0,.05.02.08.02.19.06.4.09.61.11.19.02.41.03.68.03.13,0,.26,0,.37,0h.04c.1,0,.2,0,.31,0,.55-.02,1.07.02,1.55.12.49.1,1,.27,1.47.52.15.08.3.16.44.23.28.16.55.3.8.37.05.02.09.02.12.03h.04s.09.03.14.03c.11.01.23.02.33.02h.01c.23,0,.48-.01.69-.03.48-.03,1-.06,1.5.01.51.08,1,.26,1.44.53.05.03.08.08.09.13.01.06,0,.11-.03.16-.06.09-.18.13-.28.08-.41-.22-.84-.35-1.29-.39-.46-.04-.94.02-1.38.08-.05,0-.11.01-.16.02h-.02c-.42.06-.87.11-1.37,0-.28-.06-.53-.17-.76-.27-.09-.04-.17-.08-.25-.12-.13-.06-.27-.13-.4-.18-.43-.19-.85-.31-1.29-.37-.41-.06-.87-.06-1.35-.02-.1,0-.2.02-.32.03h0c-.13.01-.27.03-.4.04-.31.02-.55.02-.78.02-.02,0-.05,0-.07,0h-.49s5.46,2.59,5.46,2.59l.03.02v-.04s0-.05.03-.08c0-.01.02-.02.04-.03l.05-.02-4.68-2.23h0c.12,0,.26,0,.41-.02.14,0,.29-.02.42-.04h.02c.11-.01.21-.02.3-.03.46-.05.9-.04,1.3.02.41.06.82.17,1.23.35.13.06.26.12.38.18h.03c.08.05.15.08.23.12.24.11.5.22.8.28.54.11,1,.05,1.44,0,.06,0,.12-.02.18-.02.44-.06.9-.12,1.34-.08.42.04.83.16,1.21.36.19.1.43.04.55-.15.06-.09.08-.21.05-.31-.02-.11-.09-.2-.18-.26-.46-.28-.98-.48-1.52-.56-.53-.08-1.06-.05-1.55-.01-.21.01-.45.03-.67.03h-.01c-.11,0-.22,0-.31-.02h0s-.08,0-.12-.02h-.04s-.06-.02-.09-.03h0c-.23-.06-.48-.21-.76-.36h-.01c-.14-.08-.28-.16-.43-.23-.49-.25-1.01-.44-1.52-.54-.49-.1-1.03-.14-1.59-.12-.13,0-.24,0-.35,0h0c-.12,0-.23,0-.36,0-.26,0-.47,0-.66-.03-.19-.01-.39-.05-.56-.09h0c0-.07.02-.15.03-.22l10.77-.43c.17,0,.26-.14.26-.27,0-.13-.08-.26-.25-.27"/>
  <path class="st0" d="M20.43,26.33h0c-.04.08-.07.15-.11.22l-.03.05,5.14-1.91c.27-.17.52-.31.75-.45l.47-.22-6.23,2.31Z"/>
  <path class="st0" d="M36.21,17.48c-.47.16-.73.49-.74.5l-.05.07.06.06c.35.41.79.55,1.21.55.8,0,1.54-.49,1.55-.49l.12-.08-.11-.09c-.89-.7-1.59-.66-2.03-.52M36.28,17.67c-.04.18-.1.54.06.74-.23-.05-.45-.17-.65-.37.09-.1.29-.27.59-.37M37.11,18.4c.19-.2.15-.55.11-.73.23.07.49.19.77.39-.17.1-.5.26-.88.34"/>
  <path class="st0" d="M36.77,17.02h-.01c-.68,0-1.32.29-1.89.87l-.05.05.03.06s.35.79,1.2,1.05c.19.06.38.09.59.09.55,0,1.16-.21,1.83-.63l-.11-.18c-.85.53-1.61.71-2.24.52-.62-.19-.94-.69-1.04-.87.53-.51,1.11-.76,1.71-.76,1.11,0,1.98.88,1.99.89l.15-.15s-.93-.94-2.13-.95"/>
  <path class="st0" d="M31.23,18.66c.42,0,.86-.14,1.21-.55l.06-.06-.05-.07s-.27-.34-.74-.5c-.43-.15-1.14-.18-2.03.52l-.11.09.12.08s.76.49,1.55.49M32.22,18.04c-.2.2-.42.32-.65.37.16-.2.1-.56.06-.74.3.1.49.27.59.37M30.69,17.67c-.04.18-.08.53.11.73-.38-.08-.71-.24-.88-.34.28-.2.53-.32.77-.39"/>
  <path class="st0" d="M36.68,16.03c-1.63,0-2.56.89-2.56,2.44,0,1.63.61,1.79.93,1.88.04.01.09.02.13.03.27.06.44.11.44.42,0,.13-.06.22-.18.27-.21.09-.53.01-.71-.17l-.08-.07-.07.08s-.2.2-.63.2-.62-.19-.63-.2l-.07-.08-.07.07c-.18.18-.5.25-.71.17-.12-.05-.18-.14-.18-.27,0-.31.17-.36.44-.42.05,0,.09-.02.16-.04.29-.07.91-.24.91-1.87s-.93-2.44-2.56-2.44c-1.49,0-2.46,1.21-2.5,1.26l.16.13s.94-1.18,2.34-1.18c1.52,0,2.35.79,2.35,2.23s-.51,1.6-.75,1.67h-.02s-.08.02-.12.03c-.24.05-.61.12-.61.62,0,.21.11.38.31.46.27.11.62.05.87-.15.11.08.34.2.7.2h0c.36,0,.59-.12.7-.2.16.13.38.2.58.2.1,0,.2-.02.29-.06.2-.08.31-.25.31-.46,0-.5-.37-.57-.61-.62-.04,0-.09-.02-.12-.03h-.02c-.24-.07-.75-.2-.75-1.68s.83-2.23,2.35-2.23c1.39,0,2.33,1.17,2.34,1.18l.16-.13c-.04-.05-1-1.26-2.5-1.26"/>
  <path class="st0" d="M33.07,18l.03-.06-.05-.05c-.58-.58-1.21-.87-1.89-.87h-.01c-1.2,0-2.09.91-2.13.95l.15.14s.87-.88,1.99-.89h.01c.6,0,1.17.26,1.7.76-.1.18-.42.68-1.04.87-.63.19-1.38.02-2.24-.52l-.11.18c.66.42,1.28.63,1.83.63.2,0,.4-.03.59-.09.85-.26,1.19-1.01,1.2-1.05"/>
  <path class="st0" d="M34.08,82.37c-11.79,0-21.38-13.51-21.38-30.12s9.59-30.12,21.38-30.12,21.38,13.51,21.38,30.12-9.59,30.12-21.38,30.12M34.08,22.71c-11.47,0-20.8,13.25-20.8,29.54s9.33,29.54,20.8,29.54,20.8-13.25,20.8-29.54-9.33-29.54-20.8-29.54"/>
  <path class="st0" d="M62.09,50.8c-.07-.03-.14-.02-.2.03-.13.12-.29.25-.45.4l-.03.02c-.31.27-.66.57-.99.88-.14-.43-.3-.86-.44-1.25v-.02c-.05-.13-.1-.25-.14-.36.09-.07.18-.14.28-.21.61-.45,1.13-.84,1.44-1.63.04-.09.07-.19.1-.29.25-.86.08-2.27-.05-3.3-.02-.19-.05-.37-.06-.53,0-.07-.06-.13-.13-.15-.07-.02-.14,0-.19.06-.12.15-.26.31-.41.49-.26.32-.55.67-.82,1.03-.21-.4-.44-.8-.65-1.16h0c-.09-.17-.17-.31-.25-.45.1-.1.2-.2.29-.3.54-.53,1-.99,1.2-1.82.02-.1.04-.2.06-.3.13-.89-.24-2.26-.51-3.26-.05-.18-.1-.36-.14-.52-.02-.07-.07-.12-.15-.13-.07,0-.14.02-.18.09-.1.17-.21.35-.33.54-.21.35-.45.74-.67,1.13-.26-.37-.54-.73-.8-1.06h0c-.08-.12-.16-.22-.24-.32.06-.1.13-.19.2-.29.44-.61.82-1.15.88-2,0-.1,0-.2,0-.3-.02-.9-.61-2.19-1.05-3.13-.08-.18-.16-.34-.22-.49-.03-.06-.1-.11-.17-.11-.07,0-.14.05-.16.12-.07.18-.15.37-.23.59h0c-.15.39-.32.81-.47,1.24-.32-.32-.66-.63-.97-.91-.12-.1-.22-.2-.32-.29.02-.08.03-.16.05-.23h0c.18-.82.33-1.52-.09-2.45-.36-.79-1.31-1.67-2.08-2.38h-.01c-.16-.16-.31-.3-.45-.43-.05-.05-.12-.06-.19-.03-.06.03-.11.09-.1.17,0,.18.01.39.02.58.01.62.03,1.32.11,1.96-.6-.17-1.27-.29-1.86-.39-.21-.04-.43-.08-.62-.11-.07-.01-.14.02-.18.08-.04.06-.04.14,0,.19.1.14.21.31.33.48.59.88,1.33,1.98,2.07,2.46.6.39,1.14.48,1.69.48.24,0,.48-.02.73-.03.05,0,.1,0,.15,0,0,.08,0,.17,0,.25,0,.44.02.92.06,1.39-.43-.17-.88-.33-1.28-.47-.22-.07-.42-.15-.61-.21-.07-.03-.14,0-.19.05s-.06.13-.03.19c.07.15.15.31.23.49.43.94,1.03,2.23,1.7,2.84.77.69,1.5.77,2.33.85h.01c.07,0,.16.02.23.03-.01.1-.03.2-.05.32-.06.43-.14.91-.18,1.38-.4-.24-.82-.47-1.19-.68-.22-.12-.4-.22-.56-.31-.06-.04-.14-.03-.2.01-.06.05-.08.12-.06.19.05.16.09.33.14.51h0c.27,1.01.64,2.38,1.2,3.09.65.81,1.35,1,2.16,1.23h.01c.09.03.19.06.28.08-.04.14-.08.29-.13.45-.12.42-.26.88-.37,1.35-.36-.3-.74-.58-1.08-.84h-.02c-.18-.15-.35-.27-.49-.39-.06-.05-.13-.05-.2-.02-.06.04-.1.11-.09.18.02.15.04.32.06.51v.03c.13,1.03.3,2.43.75,3.22.53.89,1.19,1.18,1.97,1.52.07.03.15.07.23.1-.04.09-.09.18-.14.28h0c-.19.41-.41.84-.59,1.28-.31-.35-.63-.7-.93-1-.16-.17-.31-.33-.44-.47-.05-.05-.12-.07-.19-.05-.07.02-.12.09-.12.16,0,.16-.01.34-.02.54-.05,1.03-.12,2.45.2,3.3.37.97.98,1.36,1.68,1.82.09.06.2.13.3.2-.07.12-.14.24-.22.37v.02c-.24.38-.48.79-.71,1.21-.27-.38-.57-.75-.83-1.08-.15-.19-.28-.35-.4-.5-.04-.06-.12-.08-.19-.06-.07.02-.12.08-.13.15-.02.15-.04.32-.06.5v.04c-.14,1.03-.33,2.43-.08,3.3.29,1,.86,1.44,1.52,1.96.07.06.15.12.23.18-.06.07-.13.15-.2.23-.29.33-.6.7-.89,1.08-.21-.42-.44-.83-.65-1.2-.11-.2-.22-.39-.31-.56-.03-.06-.09-.1-.16-.1,0,0-.01,0-.02,0-.07,0-.13.06-.15.12-.04.15-.09.32-.16.52-.31.99-.72,2.35-.63,3.24.12,1.03.61,1.56,1.18,2.18.06.06.13.14.2.21-.08.07-.16.14-.24.21h-.01c-.33.3-.7.62-1.04.94-.14-.44-.31-.88-.46-1.28-.08-.22-.16-.42-.22-.6-.02-.07-.09-.12-.16-.12-.07,0-.14.04-.17.1-.06.13-.13.28-.21.44l-.02.05c-.45.94-1.06,2.22-1.1,3.12-.04,1.04.37,1.64.84,2.33.06.09.14.2.21.3-.12.07-.25.14-.38.21-.38.22-.81.45-1.21.7-.05-.47-.12-.93-.19-1.35-.03-.23-.07-.44-.09-.63,0-.07-.06-.13-.13-.15-.07-.02-.14,0-.18.06-.1.13-.22.29-.33.43-.63.83-1.49,1.95-1.72,2.82-.25,1.01.02,1.68.34,2.46.05.12.1.25.15.38-.15.04-.31.09-.48.14h-.02c-.42.12-.89.25-1.34.4.06-.46.1-.93.14-1.35.02-.24.04-.45.06-.64,0-.07-.03-.14-.09-.18-.06-.04-.14-.03-.2.02-.12.1-.26.21-.41.33h-.01c-.81.66-1.91,1.56-2.34,2.35-.48.92-.37,1.64-.25,2.47.02.12.04.24.05.37h-.47c-.44,0-.92,0-1.4.03.18-.43.35-.87.5-1.27.08-.22.16-.42.23-.6.03-.07,0-.14-.04-.19-.05-.05-.13-.06-.19-.03-.14.06-.3.13-.47.2h-.03c-.95.43-2.26.99-2.89,1.64-.71.76-.8,1.47-.9,2.31-.02.15-.04.3-.06.46,0,.04,0,.08.02.12.01.04.04.07.07.1.13.09.25.18.36.26h.01c.61.46,1.13.85,1.98.93.1,0,.2.01.31.01.9,0,2.21-.57,3.17-.98.18-.08.35-.15.5-.21.07-.03.11-.09.11-.16,0-.07-.04-.14-.11-.17-.16-.06-.35-.14-.54-.22l-.05-.02c-.38-.16-.8-.34-1.23-.5.33-.31.64-.64.93-.95.16-.16.3-.32.44-.45.12.05.23.09.35.13.55.21,1.05.4,1.64.4.17,0,.34-.01.52-.05.1-.02.2-.04.3-.07.87-.24,1.98-1.14,2.79-1.79h.01c.15-.13.28-.24.41-.34.06-.05.08-.12.06-.19s-.08-.12-.15-.13c-.19-.02-.41-.05-.64-.08-.41-.05-.86-.11-1.31-.15.23-.39.45-.79.64-1.16l.02-.03c.1-.19.2-.37.29-.53,0,0,0-.02.01-.03.12.01.25.03.37.05h0c.34.05.66.09.98.09.38,0,.77-.06,1.2-.25.09-.04.18-.09.28-.13.78-.44,1.65-1.57,2.28-2.39.12-.16.23-.3.33-.42.05-.06.05-.13.02-.2-.04-.06-.11-.1-.18-.09-.19.02-.4.05-.63.07-.41.04-.86.09-1.31.16.13-.43.24-.87.35-1.28v-.03c.06-.19.1-.38.15-.54.12,0,.23-.02.34-.03.76-.06,1.41-.11,2.1-.6.08-.06.16-.12.24-.19.68-.59,1.29-1.88,1.74-2.81.08-.17.16-.34.23-.48.03-.06.02-.14-.03-.2-.05-.06-.12-.07-.19-.05-.18.06-.38.13-.61.2-.39.13-.83.27-1.25.43.04-.45.06-.9.08-1.32v-.04c0-.14.01-.27.02-.4.1-.02.21-.05.31-.07h0c.74-.17,1.38-.31,1.99-.91.07-.07.14-.14.21-.22.58-.69,1-2.04,1.31-3.03.06-.18.11-.36.16-.51.02-.07,0-.14-.06-.19-.06-.05-.13-.06-.2-.02-.17.09-.37.19-.57.29-.37.18-.78.39-1.17.61-.03-.45-.07-.9-.12-1.32-.02-.15-.03-.3-.05-.43.09-.04.18-.08.28-.12.7-.29,1.3-.53,1.81-1.22.06-.08.12-.17.17-.25.46-.77.65-2.18.78-3.21v-.04c.03-.18.05-.34.07-.49,0-.07-.02-.14-.09-.18-.06-.04-.14-.03-.2.01-.16.12-.33.24-.52.38-.33.24-.7.51-1.06.79-.1-.44-.22-.88-.34-1.28v-.03c-.06-.18-.1-.34-.14-.49.1-.05.2-.1.29-.15h.02c.67-.36,1.25-.65,1.7-1.38.05-.09.1-.18.15-.27.39-.81.46-2.23.51-3.26v-.03c0-.18.02-.35.03-.51,0-.07-.04-.14-.1-.17M56.07,72c-.4.83-.97,1.13-1.69,1.5-.06.03-.12.06-.18.09-.01-.06-.02-.12-.04-.18-.17-.8-.29-1.44.11-2.28.14-.3.39-.61.68-.93.1.38.17.74.17,1.05,0,.06.04.13.1.16.06.03.13.02.18-.02.25-.2.59-.38.96-.54-.06.44-.16.85-.3,1.15M53.95,70.97c-.39.8-.34,1.44-.21,2.13-.37-.56-.64-1.06-.61-1.86.04-.83.63-2.07,1.07-2.98l.05-.11c.02.07.05.13.08.21.17.45.36.95.51,1.44-.38.39-.71.79-.89,1.17M55.44,73.29c.42-.3.72-.66.95-1.14.19-.39.3-.91.36-1.46.46-.18.95-.34,1.39-.48h.01c.07-.03.14-.05.21-.07l-.05.11c-.44.91-1.03,2.15-1.66,2.7-.58.5-1.12.62-1.75.68.19-.1.37-.21.54-.33M55.46,70.92c-.04-.32-.12-.66-.22-1.02.38-.38.8-.74,1.16-1.05.04-.04.09-.08.13-.12,0,.04,0,.08,0,.12v.09c-.02.45-.05.98-.1,1.48-.35.15-.68.3-.96.48M58.41,66.25c-.27.88-.79,1.26-1.45,1.73l-.06.04s-.07.05-.11.08c-.02-.05-.03-.1-.05-.14v-.03c-.29-.77-.52-1.38-.24-2.27.1-.31.29-.66.54-1.02.16.36.27.71.32,1.01.01.07.06.12.12.14.06.02.14,0,.18-.05.22-.23.53-.46.87-.67,0,.44-.03.86-.13,1.18M56.17,65.55c-.26.85-.12,1.48.11,2.14-.45-.5-.79-.96-.88-1.75-.08-.82.32-2.14.62-3.1l.03-.11c.04.06.07.13.11.19.23.42.49.89.72,1.35-.32.44-.58.88-.71,1.29M57.98,67.62c.37-.36.61-.76.77-1.27.13-.41.16-.94.14-1.5.43-.24.89-.47,1.3-.68h.02c.06-.04.13-.07.19-.11l-.04.12c-.3.96-.71,2.28-1.24,2.91-.5.58-1.02.77-1.64.93.17-.13.33-.26.48-.41M57.65,65.28c-.08-.31-.21-.64-.36-.98.32-.43.68-.85.99-1.21l.11-.13c0,.06,0,.11.02.17v.05c.05.45.11.97.13,1.48-.33.19-.63.4-.88.62M59.82,60.22c-.12.92-.57,1.37-1.14,1.95-.05.05-.09.09-.14.14-.03-.06-.06-.11-.09-.16-.41-.71-.73-1.28-.61-2.2.04-.32.18-.7.36-1.09.21.33.39.65.49.95.02.06.08.11.15.12.06,0,.13-.02.17-.08.18-.27.44-.54.74-.81.08.44.11.85.07,1.18M57.49,59.9c-.12.88.13,1.47.47,2.09-.53-.42-.94-.81-1.16-1.58-.22-.8-.04-2.16.09-3.16v-.12c.06.06.11.11.15.17.3.37.64.79.93,1.21-.24.49-.43.97-.48,1.39M59.62,61.64c.3-.41.48-.85.55-1.38.06-.43,0-.95-.11-1.5.38-.31.8-.62,1.17-.88h.01c.06-.05.12-.1.18-.14l-.02.12c-.13,1-.31,2.36-.74,3.07-.4.66-.88.93-1.46,1.18.15-.15.28-.31.41-.48M58.9,59.38c-.13-.29-.31-.6-.52-.9.24-.47.53-.95.77-1.35l.09-.15c.01.05.03.1.04.15l.02.06c.12.43.26.94.37,1.44-.29.24-.56.5-.77.75M57.23,40.91c.32.22.61.46.82.69.04.05.11.07.18.06.06-.01.12-.07.13-.13.06-.32.2-.67.38-1.03.24.38.43.75.52,1.07.24.89,0,1.49-.31,2.24v.03s-.05.1-.07.15c-.04-.03-.08-.06-.12-.09l-.03-.02c-.65-.5-1.16-.9-1.4-1.8-.09-.31-.1-.72-.09-1.15M59.61,42.94c.12-.5.12-.97-.02-1.48-.11-.42-.37-.88-.68-1.34.23-.44.5-.87.74-1.27l.03-.04c.03-.05.06-.11.1-.16l.03.12c.26.97.62,2.3.5,3.12-.11.76-.45,1.2-.89,1.65.07-.2.14-.4.19-.6M58.08,41.13c-.24-.22-.52-.43-.83-.64.04-.53.12-1.08.19-1.54l.02-.17.14.17c.28.35.6.77.89,1.19-.17.34-.32.67-.42.99M56.97,42.15c.23.86.68,1.31,1.23,1.75-.65-.18-1.18-.4-1.68-1.02-.51-.65-.87-1.98-1.13-2.95l-.03-.12c.06.04.13.07.2.11.42.23.89.49,1.32.76-.03.54-.02,1.06.09,1.47M59.53,50.89s.03-.06.04-.09l.08.2c.16.42.34.92.49,1.41-.27.27-.51.55-.7.82-.16-.28-.36-.57-.6-.85.2-.49.45-.99.65-1.41l.03-.06ZM59.42,53.76c.07,0,.13-.03.16-.09.16-.28.4-.58.67-.87.12.43.19.84.17,1.18-.04.92-.45,1.41-.97,2.04l-.05.06s-.05.06-.08.1c-.03-.04-.06-.09-.09-.13v-.02c-.48-.68-.85-1.21-.81-2.14.02-.33.12-.71.27-1.12.24.31.44.62.56.9.03.06.09.1.16.11M58.07,53.85c-.04.89.25,1.46.64,2.04-.56-.37-1-.73-1.29-1.48-.29-.78-.23-2.15-.18-3.16v-.12c.06.05.11.11.16.16.33.35.7.74,1.03,1.13-.2.51-.34,1-.36,1.43M60.35,55.41c.27-.44.4-.89.43-1.42.02-.43-.08-.95-.24-1.48.36-.35.75-.68,1.1-.98h0c.06-.06.11-.1.17-.15v.12c-.05,1-.12,2.38-.48,3.12-.34.69-.79,1-1.35,1.3.13-.17.26-.33.37-.51M59.12,47.66c.04.06.1.09.17.08.06,0,.12-.05.15-.12.11-.3.29-.63.52-.97.18.41.32.8.36,1.13.11.92-.21,1.47-.62,2.17v.03s-.07.1-.1.14c-.04-.04-.08-.09-.12-.13h0c-.57-.59-1.02-1.06-1.14-1.98-.04-.32,0-.72.07-1.15.29.27.54.53.71.8M60.49,49.21c.19-.47.25-.94.18-1.47-.05-.43-.24-.92-.48-1.42.29-.4.62-.8.91-1.15l.04-.05s.07-.09.11-.13v.12c.14,1,.3,2.36.07,3.16-.22.73-.61,1.12-1.12,1.51.1-.18.2-.37.28-.57M59.23,47.2c-.2-.25-.46-.5-.73-.74.12-.52.28-1.05.41-1.5v-.05s.04-.08.05-.12l.11.19c.23.39.49.85.72,1.3-.22.31-.41.62-.55.92M57.98,48.06c.11.88.5,1.4.97,1.91-.61-.27-1.11-.56-1.52-1.25-.41-.72-.58-2.08-.71-3.08v-.12s.1.09.16.13c.39.29.82.61,1.21.94-.11.53-.17,1.04-.12,1.47M56.27,35.95c.06-.03.1-.09.11-.16,0-.32.09-.69.2-1.08.3.33.55.66.69.96.39.84.25,1.47.07,2.26-.01.06-.03.12-.04.19-.06-.03-.11-.06-.17-.09-.72-.39-1.3-.7-1.68-1.54-.14-.3-.22-.69-.28-1.12.35.17.67.35.92.54.05.04.13.05.19.02M57.86,36.99c.04-.51-.05-.97-.27-1.46-.18-.39-.51-.81-.89-1.21.16-.47.35-.94.52-1.37l.02-.04c.02-.06.05-.12.07-.18l.05.11c.42.92,1,2.17,1.01,2.99.01.76-.24,1.25-.6,1.77.04-.21.08-.41.09-.62M56.05,35.46c-.27-.18-.59-.34-.92-.49-.05-.53-.06-1.09-.07-1.56v-.06s0-.08,0-.11c.03.03.06.06.09.08l.07.06c.33.3.72.66,1.08,1.02-.11.36-.2.72-.25,1.05M55.12,36.65c.37.81.89,1.18,1.51,1.52-.67-.08-1.23-.19-1.82-.73-.62-.56-1.19-1.81-1.61-2.72l-.05-.11c.07.02.14.05.21.07.45.16.96.34,1.44.53.06.54.16,1.05.33,1.43M54.62,32.62c-.7-.38-1.25-.69-1.62-1.52-.07-.16-.13-.35-.18-.56.21.08.39.17.54.26.76.49.98,1.08,1.26,1.82M54.89,32.33c-.27-.7-.54-1.31-1.33-1.82-.22-.14-.5-.27-.81-.37-.1-.67-.11-1.45-.13-2.08v-.17s.1.1.15.14c.71.65,1.67,1.54,2,2.27.34.76.26,1.34.11,2.03M52.68,31.25c.4.87.97,1.23,1.63,1.6-.71.05-1.3.05-2-.41-.68-.44-1.42-1.55-1.97-2.36l-.1-.14c.07.01.14.03.21.04.6.11,1.35.24,1.98.43.06.31.13.6.24.84M52.65,77.39c-.56.73-1.18.9-1.97,1.12-.06.02-.12.04-.19.05,0-.06,0-.12,0-.18,0-.82,0-1.47.57-2.21.2-.26.51-.52.86-.77.02.39,0,.76-.05,1.06-.01.06.01.13.07.18.05.04.12.05.19.02.29-.14.65-.25,1.05-.33-.15.42-.33.8-.53,1.06M50.79,75.95c-.54.7-.63,1.34-.64,2.04-.25-.62-.41-1.17-.21-1.95.21-.8,1.05-1.9,1.66-2.7l.07-.09c.01.07.02.14.03.22.07.47.16,1,.2,1.51-.45.3-.85.63-1.11.97M51.77,78.53c.47-.21.84-.5,1.16-.92.26-.34.47-.83.65-1.35.49-.08,1-.14,1.46-.18h.02c.07,0,.15-.02.22-.03l-.07.1c-.61.8-1.46,1.89-2.18,2.3-.67.37-1.23.37-1.86.3.2-.06.4-.13.59-.21M52.27,76.21c.03-.32.02-.68,0-1.04.45-.29.93-.56,1.35-.79l.15-.08c-.02.07-.04.14-.05.21-.11.44-.24.94-.4,1.43-.37.07-.73.16-1.04.27M48.02,81.97c-.72.58-1.36.6-2.18.63-.06,0-.13,0-.2,0,.02-.06.03-.12.05-.18.2-.8.35-1.42,1.08-2.01.25-.2.61-.38,1.02-.54-.07.38-.17.74-.3,1.02-.03.06-.02.13.02.18.04.05.11.08.18.06.31-.07.7-.09,1.1-.07-.25.37-.51.7-.77.91M46.55,80.14c-.69.56-.93,1.16-1.11,1.83-.09-.66-.12-1.23.26-1.94.39-.73,1.47-1.6,2.25-2.23l.09-.07c0,.07-.01.15-.02.22-.04.48-.09,1.01-.16,1.52-.51.19-.98.41-1.31.68M46.9,82.87c.51-.09.94-.29,1.35-.62.34-.27.66-.69.96-1.16.5.04,1.01.1,1.47.16h.08c.05.02.1.02.15.03l-.09.07c-.78.63-1.86,1.5-2.66,1.72-.74.2-1.28.08-1.88-.14.21-.01.42-.03.63-.07M47.94,80.74c.1-.3.18-.65.24-1.01.51-.18,1.04-.32,1.5-.45l.17-.05c-.03.06-.07.13-.1.19-.21.4-.46.86-.73,1.3-.38-.02-.75-.02-1.08.02M42.4,85.21c-.85.37-1.47.22-2.26.02h-.03c-.05-.02-.11-.03-.16-.05.03-.05.06-.09.08-.14v-.02c.42-.71.74-1.28,1.59-1.65.3-.13.7-.21,1.13-.25-.18.35-.36.67-.57.9-.05.05-.06.12-.03.18.03.06.09.1.16.11.32.01.69.1,1.08.22-.34.29-.68.53-.98.67M41.48,83.05c-.82.35-1.2.87-1.56,1.47.09-.66.22-1.22.77-1.8.57-.6,1.84-1.15,2.77-1.55l.11-.05c-.03.07-.05.14-.08.21-.17.45-.35.95-.56,1.42-.54.05-1.06.13-1.45.3M41.08,85.77c.1,0,.19.01.29.01.4,0,.78-.08,1.18-.25.4-.17.82-.49,1.23-.86.47.17.94.37,1.37.55h.01c.07.03.13.06.2.09l-.11.05c-.93.4-2.19.94-3.03.95-.77,0-1.25-.27-1.77-.64.21.05.41.08.62.1M42.65,84c.18-.26.35-.58.51-.91.53-.04,1.09-.04,1.56-.04h.17s-.07.07-.1.11l-.05.05c-.31.33-.67.71-1.05,1.06-.36-.12-.72-.22-1.04-.27"/>
  <path class="st0" d="M47.46,25.89c.44.92,1,2.05,1.63,2.6.75.65,1.43.69,2.23.75h.01c.12,0,.25.02.38.03h.02s.02,0,.03,0c.04,0,.07-.03.1-.06.04-.04.05-.1.04-.15-.03-.14-.06-.27-.09-.4-.17-.78-.31-1.45-1.06-2.09-.62-.54-1.81-.93-2.76-1.23-.19-.06-.4-.13-.57-.19-.07-.02-.14,0-.18.05-.05.05-.05.12-.02.18.08.15.17.33.25.5M47.69,25.6l.19.06c.87.28,2.07.67,2.64,1.17.66.57.79,1.16.95,1.91v.02c.01.05.03.1.04.16-.05,0-.09,0-.14,0h-.03c-.77-.05-1.37-.1-2.03-.67-.58-.51-1.14-1.65-1.55-2.49-.02-.05-.05-.1-.07-.14"/>
  <path class="st0" d="M27.65,82.47c-.63-.65-1.93-1.22-2.89-1.63h-.02c-.17-.08-.33-.15-.47-.22-.06-.03-.14-.02-.19.03-.05.05-.07.12-.04.19.07.17.14.37.22.58v.02c.16.4.32.84.51,1.27-.47-.02-.96-.02-1.4-.02h-.03c-.16,0-.3,0-.44,0,.02-.12.03-.24.05-.36h0c.12-.84.24-1.56-.25-2.48-.42-.79-1.53-1.69-2.34-2.34l-.02-.02c-.14-.12-.28-.22-.4-.32-.06-.05-.13-.05-.2-.02-.06.03-.1.1-.09.18.02.2.04.43.06.64.04.42.08.89.14,1.35-.45-.15-.92-.28-1.34-.4h-.01c-.18-.05-.34-.1-.49-.14.05-.13.11-.26.15-.38.32-.78.59-1.45.34-2.46-.22-.87-1.09-2-1.72-2.82-.11-.14-.23-.29-.33-.43-.04-.06-.12-.08-.18-.06-.07.02-.12.08-.13.15-.03.19-.06.41-.09.63-.06.42-.14.88-.18,1.35-.4-.25-.83-.49-1.21-.7-.14-.07-.26-.14-.38-.21.07-.1.13-.21.2-.3.47-.7.88-1.29.84-2.33-.04-.9-.65-2.18-1.1-3.12v-.02c-.09-.17-.17-.32-.23-.46-.03-.06-.09-.11-.17-.1-.07,0-.13.05-.16.12-.06.18-.14.38-.22.59h0c-.15.41-.32.85-.46,1.29-.34-.33-.71-.65-1.04-.93h0c-.09-.08-.17-.15-.25-.22.06-.07.13-.14.19-.21.57-.62,1.06-1.15,1.18-2.18.09-.9-.32-2.25-.63-3.24-.06-.18-.11-.36-.16-.52-.02-.07-.08-.12-.15-.12-.07,0-.14.03-.18.09-.09.17-.2.36-.31.56-.21.37-.44.78-.65,1.2-.29-.38-.6-.74-.89-1.07h0c-.07-.08-.13-.16-.19-.23.07-.06.15-.12.22-.18h0c.66-.52,1.24-.96,1.52-1.96.24-.87.06-2.28-.08-3.3-.03-.19-.05-.37-.07-.53,0-.07-.06-.13-.13-.15-.07-.02-.14,0-.19.06-.12.15-.25.32-.4.5-.26.33-.56.7-.83,1.08-.22-.42-.47-.83-.7-1.21h0c-.08-.14-.16-.27-.23-.39.1-.07.2-.13.3-.2.7-.46,1.31-.85,1.69-1.82.31-.84.25-2.26.2-3.3h0c0-.2-.02-.38-.02-.54,0-.07-.05-.14-.12-.16-.07-.03-.15,0-.19.05-.13.14-.27.3-.44.47-.3.3-.62.65-.93,1-.19-.44-.4-.87-.59-1.26-.05-.1-.1-.2-.14-.29.07-.03.15-.06.22-.1h0c.77-.34,1.44-.62,1.97-1.52.45-.78.62-2.19.75-3.22h0c.02-.2.04-.37.06-.53,0-.07-.02-.14-.09-.18-.06-.04-.14-.03-.2.01-.15.12-.34.26-.51.39-.34.25-.72.54-1.08.84-.11-.46-.25-.92-.37-1.34h0c-.05-.17-.09-.32-.13-.46.1-.03.19-.06.29-.08h0c.81-.23,1.51-.42,2.16-1.23.56-.71.93-2.08,1.19-3.08h0c.05-.19.1-.36.14-.52.02-.07,0-.14-.06-.19-.06-.04-.13-.05-.2-.01-.17.1-.37.21-.56.31-.37.2-.79.43-1.18.68-.05-.47-.12-.95-.18-1.38h0c-.02-.12-.03-.22-.05-.32.08,0,.16-.02.23-.03h.01c.84-.08,1.56-.16,2.34-.85.67-.61,1.26-1.9,1.69-2.84.08-.18.16-.34.23-.49.03-.06.02-.14-.03-.19-.05-.05-.12-.07-.19-.05-.18.07-.39.14-.61.22-.4.14-.85.3-1.28.47.04-.47.05-.95.06-1.39h0c0-.1,0-.18,0-.25.05,0,.1,0,.15,0,.25.02.49.04.73.04.55,0,1.09-.09,1.69-.49.74-.48,1.47-1.57,2.07-2.46h0c.11-.18.22-.34.32-.48.04-.06.04-.13,0-.19-.04-.06-.11-.09-.18-.08-.18.04-.41.07-.62.11-.59.1-1.26.22-1.86.39.08-.64.1-1.34.11-1.96v-.02c0-.2,0-.4.01-.57,0-.07-.04-.14-.1-.17-.06-.03-.14-.01-.19.03-.14.13-.29.28-.46.43-.77.71-1.72,1.59-2.08,2.38-.42.94-.27,1.64-.09,2.44.01.07.03.15.05.23-.1.09-.2.18-.31.29h0c-.31.29-.65.59-.97.91-.15-.42-.32-.85-.47-1.23h0c-.09-.22-.17-.42-.23-.59-.03-.07-.09-.11-.16-.12h0c-.07,0-.13.04-.16.11-.07.15-.14.32-.22.49-.43.94-1.02,2.23-1.05,3.13,0,.1,0,.21,0,.3.06.85.44,1.38.88,2,.07.09.13.19.2.29-.08.1-.16.2-.24.31h0c-.26.34-.54.7-.8,1.07-.22-.4-.46-.78-.67-1.13h0c-.12-.2-.23-.38-.33-.54-.04-.06-.11-.1-.18-.09s-.13.06-.15.13c-.04.16-.09.35-.14.52-.27,1-.63,2.37-.51,3.26.01.1.04.2.06.3.2.83.66,1.29,1.2,1.82.09.09.19.19.29.3-.08.14-.17.29-.26.45h0c-.21.36-.44.76-.65,1.16-.27-.36-.56-.71-.82-1.03h0c-.14-.18-.28-.35-.4-.5-.05-.06-.12-.08-.19-.06-.07.02-.12.08-.13.15-.02.16-.04.34-.06.53h0c-.12,1.04-.3,2.45-.05,3.31.03.1.06.2.1.29.31.79.84,1.18,1.44,1.63.09.06.18.14.28.21-.04.12-.09.23-.13.36h0c-.15.41-.31.83-.44,1.26-.33-.31-.67-.61-.99-.88h-.01c-.17-.16-.33-.3-.47-.42-.06-.05-.13-.06-.2-.03-.06.03-.1.1-.1.17,0,.16.02.34.03.53h0c.05,1.05.12,2.46.51,3.27.05.09.1.18.15.27.44.73,1.02,1.02,1.7,1.37h.01c.1.06.2.11.3.16-.04.16-.09.32-.14.5v.03c-.12.4-.24.84-.34,1.28-.35-.28-.72-.55-1.06-.79h0c-.18-.14-.36-.26-.51-.38-.06-.04-.13-.05-.2-.01-.06.04-.1.11-.09.18.02.15.05.33.07.51v.02c.14,1.03.33,2.43.79,3.21.06.09.11.18.17.25.5.69,1.11.94,1.81,1.22.09.04.18.08.28.12-.01.14-.03.28-.05.43-.04.41-.09.87-.12,1.32-.4-.22-.81-.42-1.17-.6-.21-.1-.4-.2-.57-.29-.06-.03-.14-.03-.2.02-.06.05-.08.12-.06.19.05.16.11.33.16.52.31.99.73,2.35,1.31,3.03.07.08.14.15.21.22.61.59,1.25.74,1.99.91h.01c.1.03.2.05.3.07,0,.14.01.28.02.43h0c.02.43.04.88.08,1.33-.42-.16-.86-.3-1.25-.43h-.01c-.21-.07-.41-.14-.59-.2-.07-.02-.14,0-.19.05-.05.05-.06.13-.03.2.07.14.15.31.23.48.45.93,1.06,2.21,1.74,2.81.08.07.16.13.24.19.7.5,1.35.55,2.1.6.11,0,.23.02.34.03.05.17.1.36.15.57.1.4.22.85.35,1.28-.45-.07-.91-.12-1.32-.16-.23-.02-.44-.05-.63-.07-.07,0-.14.03-.18.09-.04.06-.03.14.01.2.1.13.21.27.33.43.63.82,1.5,1.95,2.28,2.39.09.05.18.1.28.13.42.19.81.25,1.2.25.32,0,.64-.04.98-.09h.01c.12-.02.24-.03.37-.05,0,0,0,.02.01.03.09.16.19.35.29.55h0c.2.38.41.78.64,1.17-.45.04-.91.1-1.31.15-.23.03-.44.06-.64.08-.07,0-.13.06-.15.13-.02.07,0,.14.06.19.12.09.25.2.39.31l.03.03c.81.65,1.92,1.54,2.79,1.79.1.03.2.05.3.07.18.03.35.05.52.05.59,0,1.09-.19,1.64-.4.11-.04.23-.09.35-.13.13.13.28.29.43.45h0c.29.31.6.64.93.95-.42.16-.85.34-1.23.5l-.04.02c-.2.08-.38.16-.55.23-.07.03-.11.09-.11.16s.04.14.11.17c.15.06.32.13.5.21.95.41,2.26.97,3.16.98.1,0,.2,0,.3-.01.85-.08,1.38-.47,1.98-.92h0c.12-.09.24-.18.37-.27.03-.02.06-.06.07-.1.02-.04.03-.08.02-.12-.02-.16-.04-.31-.06-.46-.1-.83-.19-1.55-.9-2.31M25.78,84.32c.07,0,.13-.05.15-.11.03-.06.02-.13-.03-.18-.2-.24-.39-.55-.57-.9.43.05.83.12,1.13.25.86.37,1.18.93,1.58,1.65.03.05.06.11.09.16-.06.01-.11.03-.16.04h-.03c-.79.2-1.41.35-2.26-.02-.31-.13-.65-.37-.98-.67.39-.12.76-.21,1.08-.22M26.61,83.05c-.39-.17-.9-.26-1.45-.3-.21-.47-.4-.97-.56-1.42-.03-.07-.05-.14-.08-.21l.11.05c.93.4,2.19.95,2.77,1.55.55.59.68,1.14.77,1.81-.35-.6-.74-1.12-1.56-1.47M25.43,84c-.33.05-.68.15-1.04.27-.37-.35-.74-.73-1.05-1.06l-.06-.06s-.06-.06-.09-.1h.18c.47,0,1.03,0,1.56.04.16.33.33.65.51.91M25.54,85.53c.4.17.78.25,1.18.25.1,0,.19,0,.29-.01.21-.02.41-.06.62-.1-.52.37-1,.64-1.77.64-.83,0-2.1-.55-3.03-.95l-.11-.05c.07-.03.13-.06.2-.09h.01c.42-.18.9-.38,1.36-.55.42.37.84.69,1.24.86M20.39,81.14c.06.01.14-.01.18-.06.04-.06.05-.13.02-.19-.13-.28-.23-.64-.3-1.02.4.16.76.34,1.02.54.72.58.88,1.21,1.08,2.01.02.06.03.12.05.18-.07,0-.13,0-.2,0-.81-.03-1.45-.05-2.18-.63-.26-.21-.52-.53-.77-.9.41-.01.78,0,1.1.07M22.64,81.97c-.18-.68-.41-1.28-1.11-1.83-.33-.27-.8-.49-1.31-.68-.08-.51-.12-1.04-.17-1.52v-.04c0-.06-.01-.12-.02-.18l.1.08c.78.63,1.86,1.5,2.25,2.23.37.71.35,1.28.26,1.94M20.15,80.74c-.33-.04-.7-.04-1.08-.02-.27-.43-.52-.9-.73-1.3l-.03-.05c-.03-.05-.05-.1-.08-.15l.17.05c.46.13.99.28,1.49.45.06.36.14.71.25,1.01M19.84,82.25c.41.33.84.53,1.35.62.21.04.41.05.63.06-.6.22-1.13.35-1.88.14-.8-.23-1.87-1.09-2.66-1.72l-.09-.07c.05,0,.1-.01.15-.02h.08c.46-.07.97-.14,1.47-.17.3.47.62.89.96,1.16M16.14,76.64c.06-.04.08-.11.07-.18-.06-.3-.07-.67-.05-1.06.35.25.66.51.86.77.57.74.57,1.39.57,2.21,0,.06,0,.12,0,.18-.06-.02-.13-.03-.19-.05-.78-.22-1.4-.39-1.97-1.12-.2-.26-.38-.64-.53-1.06.4.08.76.19,1.05.33.06.03.13.02.19-.02M17.3,75.95c-.26-.34-.66-.66-1.11-.97.05-.51.13-1.04.2-1.51.01-.07.02-.15.03-.22l.07.1c.61.8,1.45,1.89,1.66,2.7.19.78.04,1.33-.21,1.95-.01-.7-.1-1.33-.64-2.04M15.81,76.21c-.31-.12-.67-.2-1.04-.27-.16-.48-.29-1-.4-1.43v-.06c-.03-.05-.04-.11-.05-.16l.15.08c.41.23.9.5,1.35.79-.03.37-.03.72,0,1.04M15.15,77.6c.32.42.69.71,1.16.92.19.08.39.15.59.21-.63.07-1.18.07-1.86-.3-.72-.41-1.56-1.5-2.18-2.3l-.07-.09c.07,0,.14.01.22.02h.02c.46.05.97.11,1.46.19.18.53.39,1.01.65,1.35M11.82,35.95c.06.03.13.02.19-.02.24-.2.56-.38.92-.54-.06.43-.14.82-.28,1.12-.39.84-.96,1.15-1.68,1.54-.06.03-.11.06-.17.09-.01-.06-.03-.12-.04-.18h0c-.18-.8-.31-1.42.07-2.26.14-.3.39-.64.69-.97.11.39.19.76.2,1.08,0,.07.04.13.11.16M12.97,36.65c.18-.39.28-.89.33-1.43.47-.2.98-.37,1.44-.53.07-.02.14-.05.21-.07l-.05.11c-.42.91-1,2.17-1.61,2.72-.6.53-1.16.65-1.83.73.61-.34,1.14-.71,1.51-1.52M12.04,35.46c-.04-.33-.13-.68-.25-1.05.36-.36.75-.72,1.08-1.02l.05-.04s.08-.07.12-.1v.17c-.01.47-.03,1.02-.07,1.56-.34.15-.66.31-.93.49M10.5,35.53c-.22.48-.31.94-.27,1.46.01.21.05.41.09.62-.36-.52-.62-1.01-.6-1.77.02-.82.59-2.08,1.01-2.99l.05-.11c.03.07.05.13.08.2h0c.17.44.36.92.52,1.38-.38.41-.71.82-.89,1.21M15.08,31.1c-.37.83-.92,1.13-1.62,1.52.28-.74.5-1.32,1.26-1.82.15-.1.34-.19.54-.26-.05.21-.1.4-.18.56M15.4,31.25c.11-.24.19-.53.24-.84.64-.19,1.38-.32,1.98-.43.07-.01.14-.02.21-.04l-.1.14c-.54.81-1.29,1.92-1.97,2.36-.7.46-1.29.46-2,.41.66-.37,1.24-.73,1.63-1.6M14.53,30.51c-.79.51-1.07,1.12-1.33,1.82-.15-.69-.23-1.27.11-2.03.33-.72,1.29-1.62,2-2.27.05-.05.11-.1.16-.14v.17c-.02.63-.03,1.41-.13,2.08-.3.1-.58.23-.81.37M9.86,41.65c.07.02.14,0,.18-.06.21-.23.49-.47.82-.69.02.43,0,.83-.09,1.15-.24.89-.76,1.29-1.41,1.8l-.04.03s-.07.06-.11.08c-.02-.06-.05-.12-.07-.18-.3-.75-.55-1.34-.31-2.23.09-.32.28-.69.52-1.07.18.36.31.72.38,1.03.01.06.06.12.13.13M11.12,42.15c.11-.41.12-.93.09-1.47.43-.27.91-.53,1.33-.76.07-.04.13-.07.19-.11l-.03.12c-.26.97-.62,2.3-1.13,2.95-.5.63-1.03.84-1.68,1.02.54-.44,1-.89,1.23-1.75M10.01,41.13c-.1-.32-.25-.65-.42-.99.29-.42.62-.83.9-1.19.05-.06.09-.12.13-.17l.03.17c.07.47.15,1.01.19,1.54-.31.2-.59.41-.83.64M8.49,41.46c-.14.51-.14.98-.02,1.48.05.2.12.4.19.6-.44-.46-.78-.89-.89-1.65-.12-.82.24-2.15.5-3.12l.03-.12c.04.06.07.12.12.19h0c.24.4.51.84.74,1.28-.31.46-.56.93-.68,1.34M8.46,50.94s.04-.1.05-.14l.08.15c.21.42.45.92.65,1.41-.23.29-.44.58-.6.86-.19-.27-.43-.55-.7-.82.15-.49.33-.98.49-1.4l.02-.06ZM8.66,53.76h0c.07,0,.13-.05.16-.11.12-.29.33-.59.57-.9.15.41.25.79.27,1.12.04.93-.33,1.46-.79,2.14-.03.05-.07.1-.1.15-.04-.04-.07-.08-.11-.13l-.02-.02c-.52-.62-.93-1.11-.97-2.04-.02-.33.06-.74.17-1.18.28.3.52.59.67.87.03.06.09.09.16.09M10.01,53.85c-.02-.42-.17-.92-.36-1.43.33-.39.7-.78,1.03-1.13.05-.06.1-.11.15-.16v.12c.05,1,.12,2.38-.17,3.16-.29.75-.73,1.11-1.29,1.48.39-.58.68-1.15.64-2.04M7.31,53.99c.02.53.16.98.43,1.42.11.18.23.34.37.51-.56-.3-1.01-.62-1.35-1.3-.36-.74-.42-2.12-.47-3.12v-.12s.17.15.17.15c.35.3.74.64,1.09.98-.15.53-.26,1.05-.24,1.48M8.79,47.74c.06,0,.13-.02.17-.08.17-.26.42-.53.71-.79.08.42.12.82.08,1.15-.11.92-.57,1.39-1.14,1.98-.04.04-.08.09-.13.13-.03-.06-.06-.11-.1-.17-.41-.7-.73-1.25-.62-2.17.04-.33.18-.72.36-1.13.23.34.41.67.52.97.02.06.08.11.15.12M10.1,48.05c.05-.42,0-.94-.12-1.47.39-.33.82-.65,1.21-.94.06-.05.12-.09.18-.13v.12c-.14,1-.3,2.36-.72,3.08-.41.69-.9.97-1.52,1.25.48-.51.87-1.02.97-1.91M8.86,47.21c-.14-.3-.34-.61-.56-.92.23-.46.49-.91.72-1.3l.11-.19s.03.1.04.14v.03c.14.45.3.98.41,1.5-.28.24-.53.5-.73.75M7.41,47.74c-.06.53,0,.99.18,1.47.08.19.17.38.28.56-.5-.39-.89-.78-1.12-1.51-.23-.79-.06-2.16.06-3.16v-.12c.06.05.11.11.16.17h0c.3.36.62.76.91,1.16-.24.5-.43,1-.48,1.42M9.08,59.84c.04.06.11.08.17.08.07,0,.12-.06.15-.12.1-.29.27-.62.49-.95.18.39.32.77.36,1.09.12.92-.2,1.48-.61,2.2-.03.05-.06.11-.09.16l-.12-.12-.02-.02c-.57-.58-1.02-1.03-1.14-1.95-.04-.33,0-.75.07-1.18.3.27.57.54.75.81M10.6,59.9c-.06-.42-.24-.9-.48-1.39.3-.42.63-.84.93-1.21.05-.06.09-.12.14-.17l.02.12c.13,1,.31,2.36.09,3.16-.22.77-.63,1.17-1.16,1.58.33-.61.58-1.21.46-2.09M9.18,59.38c-.21-.25-.48-.51-.77-.75.11-.5.25-1.01.37-1.44l.02-.06c.01-.05.03-.1.04-.15l.09.15c.24.41.53.88.77,1.35-.21.3-.39.61-.52.9M7.91,60.26c.07.53.24.96.55,1.38.12.17.26.32.41.48-.58-.25-1.06-.53-1.46-1.19-.42-.71-.6-2.08-.74-3.07l-.02-.12c.06.04.12.09.18.13h.01c.37.28.79.58,1.17.89-.11.54-.17,1.07-.11,1.5M9.7,62.96s.06.07.09.11l.02.03c.3.36.67.78.99,1.21-.15.34-.28.67-.36.98-.25-.22-.56-.42-.88-.62.02-.51.08-1.03.12-1.48l.02-.22ZM9.54,65.07c.34.21.65.44.87.67.05.05.12.07.18.05.06-.02.11-.07.12-.14.05-.31.17-.66.32-1.01.24.35.44.71.54,1.02.27.89.05,1.5-.23,2.27v.03s-.05.09-.06.14c-.04-.03-.08-.06-.12-.08l-.04-.03c-.66-.47-1.18-.85-1.45-1.73-.1-.32-.13-.73-.13-1.18M11.92,65.55c-.12-.41-.39-.85-.71-1.29.22-.46.48-.93.71-1.35.04-.06.07-.13.11-.19l.04.11c.3.96.7,2.28.62,3.1-.09.8-.43,1.26-.88,1.76.23-.66.37-1.29.11-2.14M9.33,66.36c.16.51.4.91.77,1.26.15.15.31.28.48.41-.62-.15-1.14-.35-1.64-.93-.54-.63-.94-1.95-1.24-2.91l-.03-.11c.06.03.13.06.2.1h.01c.41.21.87.44,1.3.69-.01.55.02,1.08.14,1.5M12.86,71.41c.06-.03.1-.09.1-.16,0-.31.07-.67.17-1.05.29.32.54.64.68.93.4.84.27,1.47.11,2.28v.04s-.03.09-.04.14c-.06-.03-.12-.06-.18-.09-.72-.37-1.29-.67-1.69-1.5-.14-.3-.24-.71-.3-1.15.37.16.71.34.96.54.05.04.13.05.18.02M14.13,70.97c-.18-.38-.51-.78-.89-1.17.15-.49.34-.99.51-1.44.03-.07.05-.14.08-.21l.05.11c.43.91,1.03,2.15,1.07,2.98.03.8-.24,1.3-.61,1.86.13-.69.18-1.33-.21-2.13M12.63,70.92c-.28-.18-.61-.33-.96-.48-.05-.51-.08-1.03-.1-1.48v-.05c0-.06,0-.11,0-.17.04.04.09.08.13.12.36.31.77.67,1.15,1.05-.1.35-.18.7-.22,1.02M11.7,72.15c.23.48.53.84.95,1.14.17.12.35.23.54.33-.63-.06-1.17-.18-1.75-.68-.62-.55-1.22-1.79-1.66-2.7l-.05-.11c.07.02.14.05.21.07h.01c.44.15.93.3,1.39.48.07.55.18,1.07.36,1.46"/>
  <path class="st0" d="M16.35,29.25s.02,0,.03,0h.01c.13,0,.27-.01.4-.02.8-.03,1.49-.06,2.25-.69.65-.53,1.23-1.66,1.69-2.56v-.02c.1-.17.18-.33.26-.47.03-.06.02-.13-.02-.19-.04-.05-.12-.07-.18-.05-.17.05-.35.11-.57.17-.96.29-2.15.64-2.79,1.17-.76.63-.92,1.29-1.11,2.06h0c-.03.13-.06.26-.1.39-.01.05,0,.11.03.15.03.03.06.05.1.06M16.6,28.9c.01-.06.03-.12.04-.18.18-.74.32-1.33,1-1.88.59-.48,1.79-.84,2.67-1.1l.19-.06-.07.14c-.43.83-1.01,1.96-1.61,2.46-.68.56-1.28.58-2.05.62h-.02s-.1,0-.15,0"/>
  <path class="st0" d="M42.01,62.33l-.29.27c.29.31.22.6.06.77-.25.26-.75.3-1.23-.12-.07-.06-.3-.27-.59-.54-.92-.84-1.36-1.24-1.59-1.42-.03-.02-.04-.04-.05-.05h0c-.17-.11-.21-.07-.27-.01l-.15.13.13.15c.05.05.48.46,1.14,1.08.34.32.7.65.73.68.35.38.34.75.17.95-.17.21-.59.33-1.19-.04-.18-.11-.35-.23-.53-.35l-.1-.08h0c-.18-.15-.6-.53-.95-.84-.6-.54-.88-.79-1.04-.91,0,0-.01-.01-.02-.02h0c-.12-.08-.16-.06-.22-.03-.12.06-.15.22-.06.31t1.31,1.25l.7.67c.35.38.34.75.18.95-.17.21-.59.33-1.19-.04-.14-.09-.25-.08-.94-.64q-1.02-.83-1.1-.83c-.18-.01-.28.19-.16.33.05.06-.43-.38.56.52.38.34.45.45.48.48.32.35.24.67.09.86-.16.19-.53.3-1.09-.04-.11-.06-.29-.19-.5-.34-.02-.01-.05-.03-.07-.05,0,0-.01.02-.02.03.2-.25.3-.49.29-.72,0-.19-.1-.46-.48-.65-.34-.17-.66-.13-.94,0,0-.05,0-.11,0-.16-.03-.22-.16-.51-.62-.69-.27-.1-.52-.1-.75-.04,0-.05,0-.1,0-.14-.03-.24-.18-.57-.69-.77-.48-.18-.9-.08-1.26.14,0-.2-.05-.41-.18-.62-.26-.41-.57-.49-.79-.48-.54.03-1.12.6-1.61,1.63-.17.34-.22.63-.19.88.03.33.2.56.39.69.22.15.53.19.85.06,0,.29.1.54.27.71.18.18.48.32.84.28.19-.02.41-.08.64-.21.01.23.11.42.24.56.16.17.43.29.76.25.22-.02.46-.11.73-.29.02.13.08.25.15.35.13.16.35.28.64.28.21,0,.47-.07.75-.24.05-.03.11-.06.16-.1v9.3c0,.36.29.65.66.65s.66-.29.66-.65v-9.27c.29.16.55.23.77.23.34,0,.59-.15.74-.33.18-.22.33-.54.2-.89,0,0,.34.26.35.26.82.51,1.43.29,1.71-.05.18-.22.26-.55.15-.91.85.55,1.48.33,1.76-.01.15-.18.23-.44.19-.73.58.35,1.17.23,1.49-.11.29-.31.39-.83-.06-1.32M34.09,65.57s.03-.03.04-.05c-.01.02-.03.03-.04.05M28.37,63.99c-.29.29-.6.31-.78.19-.2-.14-.35-.5-.06-1.07.5-1.02.99-1.39,1.28-1.41.17,0,.31.09.44.3.07.12.11.23.12.35.01.14-.01.28-.07.42-.27.26-.48.56-.63.77-.05.07-.09.13-.13.18-.07.09-.12.18-.17.26M30.13,64.69s-.09.07-.14.11c-.57.43-1,.35-1.19.16-.19-.19-.23-.56.09-.97.04-.06.09-.12.14-.2.4-.56.86-1.14,1.41-1.19.13-.01.27,0,.41.06.25.1.39.24.42.42.01.09,0,.2-.05.33-.38.28-.67.68-.85.94-.05.06-.09.12-.12.16-.05.06-.08.12-.12.18M31.8,65.29c-.08.06-.16.13-.25.19-.51.39-.89.32-1.07.14-.17-.17-.21-.5.08-.87.04-.05.08-.11.13-.18.35-.5.76-1.01,1.26-1.06.12-.01.24,0,.37.05.23.09.35.21.37.38.02.11-.01.26-.11.44-.19.17-.35.36-.47.49-.05.05-.08.1-.12.13-.09.09-.15.18-.2.28M33.05,65.96c-.48.29-.8.2-.94.03-.13-.16-.14-.45.14-.75.04-.04.08-.09.13-.14.35-.41.75-.82,1.18-.82.1,0,.21.02.32.08.19.1.29.21.29.36.01.26-.28.72-1.12,1.24"/>
  <path class="st0" d="M41.38,41.19c-.07-.78-.3-1.51-.65-2.18-.18-.34-2.47-4.88-3.49-6.12-.4-.48-2.2-2.31-4.07-1.98-.66.06-1.3.26-1.91.53-1.35.59-2.58,1.42-3.76,2.35-.71.55-.99,1.63-.7,2.49.14.41.37.72.77.84.34.1.65,0,.95-.19.1-.06.19-.14.34-.1-.02.07-.04.14-.07.2-.02.05-.06.09-.08.14-.38.67-.77,1.33-1.14,2.01-.11.2-.19.42-.25.65-.14.51-.14,1.04-.1,1.57.04.39.08.79.21,1.16.13.37.35.65.71.76.07.02.14.04.21.06,1.34.49,2.71.81,4.12.94.31.03.61.05.92.06v12.37c.44.1.89-.24,1.32-.04v-12.35c.07,0,.15,0,.22,0,.73-.05,1.45-.14,2.18-.28,1.24-.24,2.44-.62,3.62-1.09.3-.12.49-.34.59-.67.11-.37.11-.74.07-1.12M29.26,43.14c1.37-.58,2.74-.92,4.12-1.06v1.86c-1.34-.06-2.65-.34-4.12-.8M34.7,43.93v-1.93c1.71-.02,3.43.25,5.15.77-1.99.7-3.63,1.06-5.15,1.16M40.88,42.18c-.09.31-.27.35-.47.26-.47-.21-.95-.32-1.45-.43-.65-.15-1.51-.33-2.17-.42-.82-.12-1.91-.14-2.74-.12-1.38.04-2.09.21-3.42.65-.54.18-1.24.46-1.77.66-.16.06-.31.1-.48.08-.23-.02-.39-.15-.49-.37-.12-.26-.16-.54-.19-.82-.06-.47-.08-.94-.01-1.41.05-.3.13-.59.28-.84.36-.63.72-1.26,1.07-1.89.05-.09.11-.17.15-.26.1-.21.26-.67.34-.94.32-1.08,2.54-1.45,3.42-1.76-.12-.09-3.16.44-3.84,1.3-.4.5-1.24,1.3-1.85.35-.19-.48-.14-.97.06-1.43.11-.25.27-.47.48-.62.96-.72,1.94-1.41,3-1.95.65-.33,1.32-.6,2.03-.73,1.48-.27,3.22.3,5.4,4.01.47.79.82,1.8,1.11,2.28,0,0,0,.02.01.03-.71-.3-2.37-.38-3.27-.3-1.38.13-2.68.86-4.09,1.31-.99.36-2.07.37-1.96,1.21.46-.45,1.37-.7,1.98-.9,1.2-.4,1.54-.61,2.75-.89.75-.18,3.38-.82,5.02.22.07.02.14.08.18.14.52.78.86,1.65.98,2.62.04.33.04.66-.05.99"/>
  <path class="st0" d="M42.89,92.9c-1.23-2.07-4.77-3.72-6.39-4.21.96-.91,1.77-2.07,1.85-2.99,0-.01,0-.02,0-.03,0,0,0,0,0-.01,0-.61-.06-1.32-.47-1.88-.13-.17-.48-.24-.68-.19-.17.04-1.72.31-3.31.27-1.77-.04-2.89-.23-3.06-.27-.21-.05-.55.02-.68.19-.42.56-.47,1.27-.47,1.88,0,0,0,0,0,.01,0,.01,0,.02,0,.03.07.92.89,2.08,1.84,2.99-1.62.49-5.16,2.13-6.39,4.21-.04.06-.03.14.02.2.05.06.13.07.2.04.62-.3,1.22-.34,1.73-.13.53.21.96.7,1.24,1.41.02.06.09.11.16.11h0c.07,0,.13-.04.15-.11.69-1.93,2.95-4.14,3.97-4.81.07.24.28.42.56.45.25.03.51.05.77.06h0s0,0,0,0c.02,0,.05,0,.07,0,.03,0,.05,0,.07,0h.01c.26,0,.52-.03.77-.06.28-.03.49-.21.56-.45,1.02.67,3.28,2.88,3.97,4.81.02.07.09.11.16.11h0c.07,0,.13-.04.16-.11.27-.71.7-1.19,1.24-1.41.52-.21,1.12-.16,1.73.13.07.03.15.01.19-.04.05-.06.06-.13.02-.2M30.41,83.98s.22-.09.33-.06c.17.04,1.18.22,3.14.28,1.9.06,3.22-.24,3.39-.28.11-.03.3.03.34.06.11.15.19.31.25.48-2.59.59-5.03.64-7.69,0,.06-.17.14-.33.25-.47M30,85.66c0-.18,0-.37.03-.56,2.72.66,5.16.69,7.95-.01.02.19.03.39.03.57,0,0-.01.02-.02.03-2.18.77-5.76.74-7.96,0-.01-.01-.02-.02-.02-.03M35.47,88.23c0-.06-.01-.12-.02-.18,0,0,0-.01,0-.02.23-.46.38-1.01.41-1.44.03,0,.06,0,.09-.01h0c.17-.03.35-.06.51-.1,0,0,.01,0,.02,0,.05,0,.1-.02.15-.03-.26.66-.65,1.25-1.15,1.79M32.56,88.05c0,.06-.01.12-.02.18-.51-.53-.89-1.13-1.16-1.79.05,0,.1.02.15.03h.02c.17.04.34.07.51.1h0s.06,0,.09.01c.03.43.18.98.41,1.44,0,0,0,.01,0,.02M25.7,92.64c1.45-1.88,4.74-3.32,6.1-3.69.03.03.06.05.09.08-1.73.94-3.7,2.14-5.18,3.53-.32-.05-.66-.02-1.01.08M28.46,93.92c-.22-.42-.5-.75-.82-.99.89-1.27,3.18-2.89,4.51-3.7.06.05.12.1.18.14-1.03.72-3.05,2.71-3.87,4.55M31.97,88.64s-.03-.02-.05-.02c-.83-.75-1.58-1.72-1.83-2.53.07.02.13.05.2.06l.06.02c.09.03.19.06.3.08.48.94,1.08,1.78,1.86,2.48,0,.09,0,.18,0,.28-.22-.13-.37-.23-.54-.38M32.9,89.47s-.01-.09-.02-.13c0,0,0,0,0-.01,0-.02,0-.04-.01-.06-.02-.18-.04-.36-.04-.53v-.02s0-.06,0-.08c0-.15.02-.31.05-.53,0-.02,0-.05.01-.07.03-.19.22-.24.3-.25.12-.02.25-.03.38-.05v2.02c-.13,0-.25-.02-.38-.04-.16-.02-.27-.11-.3-.25M35.13,89.26s-.01.04-.01.06c0,0,0,0,0,.01,0,.04-.01.09-.02.13-.02.13-.13.23-.29.25-.12.02-.25.03-.38.04v-2.02c.12.01.25.03.37.05.08.01.27.06.3.25,0,.02,0,.05,0,.07.03.21.04.37.05.53,0,.03,0,.06,0,.08v.02c0,.17-.01.35-.04.53M35.26,87.63c-.1-.1-.23-.16-.39-.19-.26-.04-1.46-.04-1.71,0-.16.02-.29.09-.39.19-.14-.34-.23-.69-.26-.99.49.07,2.53.07,3.02,0-.03.3-.12.66-.26.99M35.5,88.74c.78-.71,1.38-1.55,1.86-2.48.11-.03.21-.06.3-.08l.06-.02c.06-.02.13-.04.2-.06-.25.81-1,1.77-1.83,2.53-.02,0-.03.01-.05.02-.18.15-.33.25-.54.38,0-.1,0-.19,0-.28M39.55,93.92c-.82-1.84-2.83-3.82-3.87-4.55.06-.05.13-.1.19-.15,1.32.8,3.62,2.43,4.52,3.7-.34.23-.62.57-.84,1M41.32,92.56c-1.49-1.39-3.46-2.59-5.2-3.53.03-.02.06-.05.09-.07,1.36.36,4.65,1.81,6.1,3.69-.34-.1-.67-.12-.99-.08"/>
</svg>